<?xml version="1.0" encoding="utf-8"?>
<!-- created with diagram-js -->
<!DOCTYPE svg PUBLIC "-//W3C//DTD SVG 1.1//EN" "http://www.w3.org/Graphics/SVG/1.1/DTD/svg11.dtd">
<svg xmlns="http://www.w3.org/2000/svg" xmlns:xlink="http://www.w3.org/1999/xlink" width="1232" height="592" viewBox="344 634 1232 592" version="1.1"><defs><marker id="default-condition-flow-end-_FEA00F-_FEA00F-77ojm122gotkrn5fr0y2ockvp-undefined-undefined" viewBox="0 0 20 20" refX="19.1" refY="7.2" markerWidth="11" markerHeight="11" orient="auto"><path d="M 17.83,7.19 C 17.83,9.29 16.20,10.99 14.18,10.99 12.16,10.99 10.52,9.29 10.52,7.19 10.52,5.09 12.16,3.38 14.18,3.38 16.20,3.38 17.83,5.09 17.83,7.19 Z M 10.59,7.18 C 10.59,7.18 5.29,9.56 5.29,9.56 5.29,9.56 -0.00,11.94 -0.00,11.94 -0.00,11.94 0.01,7.16 0.01,7.16 0.01,7.16 0.03,2.37 0.03,2.37 0.03,2.37 5.31,4.77 5.31,4.77 5.31,4.77 10.59,7.18 10.59,7.18 Z" style="fill: rgb(254, 160, 15); stroke-width: 1px; stroke-linecap: butt; stroke-dasharray: 10000px, 1px; stroke: rgb(254, 160, 15);"/></marker><marker id="default-response-flow-start-_2192FF-_2192FF-77ojm122gotkrn5fr0y2ockvp-undefined-undefined" viewBox="0 0 20 20" refX="4.2" refY="6.6" markerWidth="11" markerHeight="11" orient="auto"><path d="M 12.24,6.64 C 12.24,8.74 10.60,10.44 8.58,10.44 6.56,10.44 4.92,8.74 4.92,6.64 4.92,4.54 6.56,2.84 8.58,2.84 10.60,2.84 12.24,4.54 12.24,6.64 Z" style="fill: rgb(33, 146, 255); stroke-width: 1px; stroke-linecap: butt; stroke-dasharray: 10000px, 1px; stroke: rgb(33, 146, 255);"/></marker><marker id="default-response-flow-end-_2192FF-_2192FF-77ojm122gotkrn5fr0y2ockvp-undefined-undefined" viewBox="0 0 20 20" refX="8.7" refY="5" markerWidth="16" markerHeight="16" orient="auto"><path d="m 1 5 l 0 -3 l 7 3 l -7 3 z" style="fill: rgb(33, 146, 255); stroke-width: 1px; stroke-linecap: butt; stroke-dasharray: 10000px, 1px; stroke: rgb(33, 146, 255);"/></marker><marker id="default-exclude-flow-end-_FB1818-_FB1818-77ojm122gotkrn5fr0y2ockvp-undefined-undefined" viewBox="0 0 20 20" refX="21" refY="7.73" markerWidth="8" markerHeight="8" orient="auto"><g style="fill: rgb(251, 24, 24); stroke-width: 1px; stroke-linecap: butt; stroke-dasharray: 10000px, 1px; stroke: rgb(251, 24, 24);"><rect x="10" y="4" width="20" height="100" style="fill: white; stroke: none;"/><path d="M 18.28,0.00 C 18.28,0.00 20.00,0.92 20.00,0.92 20.00,0.92 11.84,14.84 11.84,14.84 11.84,14.84 10.12,13.92 10.12,13.92 10.12,13.92 18.28,0.00 18.28,0.00 Z M 16.61,13.64 C 16.61,14.39 17.23,15.00 18.01,15.00 18.78,15.00 19.41,14.39 19.41,13.64 19.41,12.88 18.78,12.27 18.01,12.27 17.23,12.27 16.61,12.88 16.61,13.64 Z M 13.74,1.47 C 13.74,2.22 13.11,2.83 12.34,2.83 11.56,2.83 10.94,2.22 10.94,1.47 10.94,0.72 11.56,0.11 12.34,0.11 13.11,0.11 13.74,0.72 13.74,1.47 Z M 12.25,7.81 C 12.25,7.81 6.13,11.23 6.13,11.23 6.13,11.23 -0.00,14.65 -0.00,14.65 -0.00,14.65 0.02,7.78 0.02,7.78 0.02,7.78 0.03,0.92 0.03,0.92 0.03,0.92 6.14,4.36 6.14,4.36 6.14,4.36 12.25,7.81 12.25,7.81 Z"/></g></marker><marker id="default-include-flow-end-_2CA81A-_2CA81A-77ojm122gotkrn5fr0y2ockvp-undefined-undefined" viewBox="0 0 20 20" refX="20.6" refY="6.6" markerWidth="11" markerHeight="11" orient="auto"><path d="M 18.35,5.99 C 18.35,5.99 15.08,5.99 15.08,5.99 15.08,5.99 15.08,2.66 15.08,2.66 15.08,2.35 14.83,2.10 14.53,2.10 14.23,2.10 13.99,2.35 13.99,2.66 13.99,2.66 13.99,5.99 13.99,5.99 13.99,5.99 10.72,5.99 10.72,5.99 10.42,5.99 10.17,6.24 10.17,6.54 10.17,6.85 10.42,7.10 10.72,7.10 10.72,7.10 13.99,7.10 13.99,7.10 13.99,7.10 13.99,10.43 13.99,10.43 13.99,10.73 14.23,10.98 14.53,10.98 14.83,10.98 15.08,10.73 15.08,10.43 15.08,10.43 15.08,7.10 15.08,7.10 15.08,7.10 18.35,7.10 18.35,7.10 18.65,7.10 18.89,6.85 18.89,6.54 18.89,6.24 18.65,5.99 18.35,5.99 18.35,5.99 18.35,5.99 18.35,5.99 Z M 10.53,6.59 C 10.53,6.59 5.27,9.52 5.27,9.52 5.27,9.52 0.00,12.46 0.00,12.46 0.00,12.46 0.01,6.57 0.01,6.57 0.01,6.57 0.03,0.69 0.03,0.69 0.03,0.69 5.28,3.64 5.28,3.64 5.28,3.64 10.53,6.59 10.53,6.59 Z" style="fill: rgb(44, 168, 26); stroke-width: 1px; stroke-linecap: butt; stroke-dasharray: 10000px, 1px; stroke: rgb(44, 168, 26);"/></marker><marker id="default-milestone-flow-end-_A932D0-_A932D0-77ojm122gotkrn5fr0y2ockvp-undefined-undefined" viewBox="0 0 20 20" refX="15" refY="10" markerWidth="16" markerHeight="16" orient="auto"><g style="fill: white; stroke-width: 2px; stroke-linecap: butt; stroke-dasharray: 10000px, 1px; stroke: rgb(169, 50, 208);"><path d="m 1 5 l 0 -3 l 7 3 l -7 3 z" style="fill: rgb(169, 50, 208);" transform="translate(-5, 3.5) scale(1.3)"/><rect x="0" y="0" width="8" height="8" transform="rotate(-45 0 0) translate(-2, 12) scale(0.6)"/></g></marker></defs><g class="djs-group"><g class="djs-element djs-connection" data-element-id="Relation_1tm0x27" style="display: block;"><g class="djs-visual"><path d="m  1220,950L1440,950 " style="fill: none; stroke-width: 2px; stroke-linejoin: round; stroke: rgb(169, 50, 208); marker-end: url('#default-milestone-flow-end-_A932D0-_A932D0-77ojm122gotkrn5fr0y2ockvp-undefined-undefined');"/></g><path d="M1220,950L1440,950" style="fill: none; stroke-opacity: 0; stroke: white; stroke-width: 15px;" class="djs-hit djs-hit-stroke"/><rect x="1214" y="944" rx="4" width="232" height="12" style="fill: none;" class="djs-outline"/></g></g><g class="djs-group"><g class="djs-element djs-connection" data-element-id="Relation_06tqhie" style="display: block;"><g class="djs-visual"><path d="m  1220,920L1440,920 " style="fill: none; stroke-width: 2px; stroke-linejoin: round; stroke: rgb(33, 146, 255); marker-start: url('#default-response-flow-start-_2192FF-_2192FF-77ojm122gotkrn5fr0y2ockvp-undefined-undefined'); marker-end: url('#default-response-flow-end-_2192FF-_2192FF-77ojm122gotkrn5fr0y2ockvp-undefined-undefined');" orient="auto"/></g><path d="M1220,920L1440,920" style="fill: none; stroke-opacity: 0; stroke: white; stroke-width: 15px;" class="djs-hit djs-hit-stroke"/><rect x="1214" y="914" rx="4" width="232" height="12" style="fill: none;" class="djs-outline"/></g></g><g class="djs-group"><g class="djs-element djs-connection" data-element-id="Relation_19cx7rh" style="display: block;"><g class="djs-visual"><path d="m  480,780L720,780 " style="fill: none; stroke-width: 2px; stroke-linejoin: round; stroke: rgb(33, 146, 255); marker-start: url('#default-response-flow-start-_2192FF-_2192FF-77ojm122gotkrn5fr0y2ockvp-undefined-undefined'); marker-end: url('#default-response-flow-end-_2192FF-_2192FF-77ojm122gotkrn5fr0y2ockvp-undefined-undefined');" orient="auto"/></g><path d="M480,780L720,780" style="fill: none; stroke-opacity: 0; stroke: white; stroke-width: 15px;" class="djs-hit djs-hit-stroke"/><rect x="474" y="774" rx="4" width="252" height="12" style="fill: none;" class="djs-outline"/></g></g><g class="djs-group"><g class="djs-element djs-connection" data-element-id="Relation_1pqmejp" style="display: block;"><g class="djs-visual"><path d="m  480,810L720,810 " style="fill: none; stroke-width: 2px; stroke-linejoin: round; stroke: rgb(254, 160, 15); marker-end: url('#default-condition-flow-end-_FEA00F-_FEA00F-77ojm122gotkrn5fr0y2ockvp-undefined-undefined');"/></g><path d="M480,810L720,810" style="fill: none; stroke-opacity: 0; stroke: white; stroke-width: 15px;" class="djs-hit djs-hit-stroke"/><rect x="474" y="804" rx="4" width="252" height="12" style="fill: none;" class="djs-outline"/></g></g><g class="djs-group"><g class="djs-element djs-shape" data-element-id="Event_1vph62a" transform="matrix(1, 0, 0, 1, 350, 720)" style="display: block;"><g class="djs-visual"><rect x="0" y="0" width="130" height="150" rx="7" ry="7" style="fill: white; fill-opacity: 0.35; stroke: black; stroke-width: 2px;"/><path style="fill: none; stroke: black; stroke-width: 2px;" d="M0,30L130,30"/><text style="font-family: IBM Plex, sans-serif; font-size: 16px; font-weight: normal;" lineHeight="1.2" class="djs-label"><tspan x="48.35000038146973" y="19.8">User</tspan></text><text style="font-family: IBM Plex, sans-serif; font-size: 16px; font-weight: normal;" lineHeight="1.2" class="djs-label"><tspan x="22.816665649414062" y="94.80000000000001">Create case</tspan></text></g><rect style="fill: none; stroke-opacity: 0; stroke: white; stroke-width: 15px;" class="djs-hit djs-hit-all" x="0" y="0" width="130" height="150"/><rect x="-6" y="-6" rx="4" width="142" height="162" style="fill: none;" class="djs-outline"/></g></g><g class="djs-group"><g class="djs-element djs-shape" data-element-id="Event_1wmhvbv" transform="matrix(1, 0, 0, 1, 1440, 855)" style="display: block;"><g class="djs-visual"><rect x="0" y="0" width="130" height="150" rx="7" ry="7" style="fill: white; fill-opacity: 0.35; stroke: black; stroke-width: 2px;"/><path style="fill: none; stroke: black; stroke-width: 2px;" d="M0,30L130,30"/><text style="font-family: IBM Plex, sans-serif; font-size: 16px; font-weight: normal;" lineHeight="1.2" class="djs-label"><tspan x="12.733333587646484" y="19.8">Organization A</tspan></text><text style="font-family: IBM Plex, sans-serif; font-size: 16px; font-weight: normal;" lineHeight="1.2" class="djs-label"><tspan x="16.808334350585938" y="94.80000000000001">Hold meeting</tspan></text></g><rect style="fill: none; stroke-opacity: 0; stroke: white; stroke-width: 15px;" class="djs-hit djs-hit-all" x="0" y="0" width="130" height="150"/><rect x="-6" y="-6" rx="4" width="142" height="162" style="fill: none;" class="djs-outline"/></g></g><g class="djs-group"><g class="djs-element djs-shape" data-element-id="Nesting_0cbyns1" transform="matrix(1, 0, 0, 1, 660, 640)" style="display: block;"><g class="djs-visual"><rect x="0" y="0" width="560" height="580" rx="7" ry="7" style="fill: white; fill-opacity: 0.35; stroke: black; stroke-width: 2px;"/><path style="fill: none; stroke: black; stroke-width: 2px;" d="M0,30L560,30"/><text style="font-family: IBM Plex, sans-serif; font-size: 16px; font-weight: normal;" lineHeight="1.2" class="djs-label"><tspan x="280" y="19.8"/></text><text style="font-family: IBM Plex, sans-serif; font-size: 16px; font-weight: normal;" lineHeight="1.2" class="djs-label"><tspan x="220.90833282470703" y="49.4">Arrange Meeting</tspan></text><path d="m 545,575 l -2.25 0 l 0 -13 l 2.175 0 l 0 2.175 q 0.7 -0.95, 1.788 -1.762 a 4.329 4.329 0 0 1 1.776 -0.656 a 5.657 5.657 0 0 1 0.811, -0.056 a 5.806 5.806 0 0 1 1.266 0.13 q 0.836 0.186 1.445 0.643 a 3.315, 3.315 0 0 1 0.576 0.552 a 4.601 4.601 0 0 1 0.902 1.845 q 0.163 0.66 0.183, 1.432 a 8.441 8.441 0 0 1 0.003 0.223 l 0 8.475 l -2.25 0 l 0 -8.225 q 0, -1.148 -0.445 -1.926 a 2.741 2.741 0 0 0 -0.217 -0.324 a 2.145 2.145 0 0 0, -1.57 -0.838 a 3.015 3.015 0 0 0 -0.268 -0.012 a 3.28 3.28 0 0 0 -1.712 0.491, a 4.338 4.338 0 0 0 -0.463 0.322 q -1.025 0.812 -1.75 1.912 l 0 8.6 Z" style="fill: grey; stroke-width: 1px; stroke: grey;" data-marker="nesting"/></g><rect style="fill: none; stroke-opacity: 0; stroke: white; stroke-width: 15px;" class="djs-hit djs-hit-all" x="0" y="0" width="560" height="580"/><rect x="-6" y="-6" rx="4" width="572" height="592" style="fill: none;" class="djs-outline"/></g><g class="djs-children"><g class="djs-group"><g class="djs-element djs-connection" data-element-id="Relation_05ffyh3" style="display: block;"><g class="djs-visual"><path d="m  850,1070L1000,1070 " style="fill: none; stroke-width: 2px; stroke-linejoin: round; stroke: rgb(44, 168, 26); marker-end: url('#default-include-flow-end-_2CA81A-_2CA81A-77ojm122gotkrn5fr0y2ockvp-undefined-undefined');"/></g><path d="M850,1070L1000,1070" style="fill: none; stroke-opacity: 0; stroke: white; stroke-width: 15px;" class="djs-hit djs-hit-stroke"/><rect x="844" y="1064" rx="4" width="162" height="12" style="fill: none;" class="djs-outline"/></g></g><g class="djs-group"><g class="djs-element djs-connection" data-element-id="Relation_1pk0efm" style="display: block;"><g class="djs-visual"><path d="m  850,780L1000,780 " style="fill: none; stroke-width: 2px; stroke-linejoin: round; stroke: rgb(44, 168, 26); marker-end: url('#default-include-flow-end-_2CA81A-_2CA81A-77ojm122gotkrn5fr0y2ockvp-undefined-undefined');"/></g><path d="M850,780L1000,780" style="fill: none; stroke-opacity: 0; stroke: white; stroke-width: 15px;" class="djs-hit djs-hit-stroke"/><rect x="844" y="774" rx="4" width="162" height="12" style="fill: none;" class="djs-outline"/></g></g><g class="djs-group"><g class="djs-element djs-connection" data-element-id="Relation_19a6j4d" style="display: block;"><g class="djs-visual"><path d="m  1010,720L1010,710 L950,710 L950,730 L1000,730 " style="fill: none; stroke-width: 2px; stroke-linejoin: round; stroke: rgb(251, 24, 24); marker-end: url('#default-exclude-flow-end-_FB1818-_FB1818-77ojm122gotkrn5fr0y2ockvp-undefined-undefined');"/></g><path d="M1010,720L1010,710L950,710L950,730L1000,730" style="fill: none; stroke-opacity: 0; stroke: white; stroke-width: 15px;" class="djs-hit djs-hit-stroke"/><rect x="944" y="704" rx="4" width="72" height="32" style="fill: none;" class="djs-outline"/></g></g><g class="djs-group"><g class="djs-element djs-connection" data-element-id="Relation_0zmryoe" style="display: block;"><g class="djs-visual"><path d="m  1010,1010L1010,1000 L960,1000 L960,1020 L1000,1020 " style="fill: none; stroke-width: 2px; stroke-linejoin: round; stroke: rgb(251, 24, 24); marker-end: url('#default-exclude-flow-end-_FB1818-_FB1818-77ojm122gotkrn5fr0y2ockvp-undefined-undefined');"/></g><path d="M1010,1010L1010,1000L960,1000L960,1020L1000,1020" style="fill: none; stroke-opacity: 0; stroke: white; stroke-width: 15px;" class="djs-hit djs-hit-stroke"/><rect x="954" y="994" rx="4" width="62" height="32" style="fill: none;" class="djs-outline"/></g></g><g class="djs-group"><g class="djs-element djs-connection" data-element-id="Relation_1neba79" style="display: block;"><g class="djs-visual"><path d="m  1050,870L1050,1010 " style="fill: none; stroke-width: 2px; stroke-linejoin: round; stroke: rgb(251, 24, 24); marker-end: url('#default-exclude-flow-end-_FB1818-_FB1818-77ojm122gotkrn5fr0y2ockvp-undefined-undefined');"/></g><path d="M1050,870L1050,1010" style="fill: none; stroke-opacity: 0; stroke: white; stroke-width: 15px;" class="djs-hit djs-hit-stroke"/><rect x="1044" y="864" rx="4" width="12" height="152" style="fill: none;" class="djs-outline"/></g></g><g class="djs-group"><g class="djs-element djs-connection" data-element-id="Relation_06xv5tu" style="display: block;"><g class="djs-visual"><path d="m  1080,1010L1080,870 " style="fill: none; stroke-width: 2px; stroke-linejoin: round; stroke: rgb(251, 24, 24); marker-end: url('#default-exclude-flow-end-_FB1818-_FB1818-77ojm122gotkrn5fr0y2ockvp-undefined-undefined');"/></g><path d="M1080,1010L1080,870" style="fill: none; stroke-opacity: 0; stroke: white; stroke-width: 15px;" class="djs-hit djs-hit-stroke"/><rect x="1074" y="864" rx="4" width="12" height="152" style="fill: none;" class="djs-outline"/></g></g><g class="djs-group"><g class="djs-element djs-connection" data-element-id="Relation_1b7tkh7" style="display: block;"><g class="djs-visual"><path d="m  850,1100L1000,1100 " style="fill: none; stroke-width: 2px; stroke-linejoin: round; stroke: rgb(33, 146, 255); marker-start: url('#default-response-flow-start-_2192FF-_2192FF-77ojm122gotkrn5fr0y2ockvp-undefined-undefined'); marker-end: url('#default-response-flow-end-_2192FF-_2192FF-77ojm122gotkrn5fr0y2ockvp-undefined-undefined');" orient="auto"/></g><path d="M850,1100L1000,1100" style="fill: none; stroke-opacity: 0; stroke: white; stroke-width: 15px;" class="djs-hit djs-hit-stroke"/><rect x="844" y="1094" rx="4" width="162" height="12" style="fill: none;" class="djs-outline"/></g></g><g class="djs-group"><g class="djs-element djs-connection" data-element-id="Relation_1d7p87n" style="display: block;"><g class="djs-visual"><path d="m  850,810L1000,810 " style="fill: none; stroke-width: 2px; stroke-linejoin: round; stroke: rgb(33, 146, 255); marker-start: url('#default-response-flow-start-_2192FF-_2192FF-77ojm122gotkrn5fr0y2ockvp-undefined-undefined'); marker-end: url('#default-response-flow-end-_2192FF-_2192FF-77ojm122gotkrn5fr0y2ockvp-undefined-undefined');" orient="auto"/></g><path d="M850,810L1000,810" style="fill: none; stroke-opacity: 0; stroke: white; stroke-width: 15px;" class="djs-hit djs-hit-stroke"/><rect x="844" y="804" rx="4" width="162" height="12" style="fill: none;" class="djs-outline"/></g></g><g class="djs-group"><g class="djs-element djs-connection" data-element-id="Relation_0qrbzf8" style="display: block;"><g class="djs-visual"><path d="m  785,870L785,1010 " style="fill: none; stroke-width: 2px; stroke-linejoin: round; stroke: rgb(254, 160, 15); marker-end: url('#default-condition-flow-end-_FEA00F-_FEA00F-77ojm122gotkrn5fr0y2ockvp-undefined-undefined');"/></g><path d="M785,870L785,1010" style="fill: none; stroke-opacity: 0; stroke: white; stroke-width: 15px;" class="djs-hit djs-hit-stroke"/><rect x="779" y="864" rx="4" width="12" height="152" style="fill: none;" class="djs-outline"/></g></g><g class="djs-group"><g class="djs-element djs-shape" data-element-id="Event_1mid6b7" transform="matrix(1, 0, 0, 1, 720, 720)" style="display: block;"><g class="djs-visual"><rect x="0" y="0" width="130" height="150" rx="7" ry="7" style="fill: white; fill-opacity: 0.35; stroke: black; stroke-width: 2px;"/><path style="fill: none; stroke: black; stroke-width: 2px;" d="M0,30L130,30"/><text style="font-family: IBM Plex, sans-serif; font-size: 16px; font-weight: normal;" lineHeight="1.2" class="djs-label"><tspan x="12.733333587646484" y="19.8">Organization A</tspan></text><text style="font-family: IBM Plex, sans-serif; font-size: 16px; font-weight: normal;" lineHeight="1.2" class="djs-label"><tspan x="13.558334350585938" y="94.80000000000001">Propose dates</tspan></text></g><rect style="fill: none; stroke-opacity: 0; stroke: white; stroke-width: 15px;" class="djs-hit djs-hit-all" x="0" y="0" width="130" height="150"/><rect x="-6" y="-6" rx="4" width="142" height="162" style="fill: none;" class="djs-outline"/></g></g><g class="djs-group"><g class="djs-element djs-shape" data-element-id="Event_0tmbhob" transform="matrix(1, 0, 0, 1, 1000, 720)" style="display: block;"><g class="djs-visual"><rect x="0" y="0" width="130" height="150" rx="7" ry="7" style="fill: white; fill-opacity: 0.35; stroke: black; stroke-width: 2px;"/><path style="fill: none; stroke: black; stroke-width: 2px;" d="M0,30L130,30"/><text style="font-family: IBM Plex, sans-serif; font-size: 16px; font-weight: normal;" lineHeight="1.2" class="djs-label"><tspan x="12.733333587646484" y="19.8">Organization A</tspan></text><text style="font-family: IBM Plex, sans-serif; font-size: 16px; font-weight: normal;" lineHeight="1.2" class="djs-label"><tspan x="18.25833511352539" y="94.80000000000001">Accept dates</tspan></text></g><rect style="fill: none; stroke-opacity: 0; stroke: white; stroke-width: 15px;" class="djs-hit djs-hit-all" x="0" y="0" width="130" height="150"/><rect x="-6" y="-6" rx="4" width="142" height="162" style="fill: none;" class="djs-outline"/></g></g><g class="djs-group"><g class="djs-element djs-shape" data-element-id="Event_0nym0la" transform="matrix(1, 0, 0, 1, 720, 1010)" style="display: block;"><g class="djs-visual"><rect x="0" y="0" width="130" height="150" rx="7" ry="7" style="fill: white; fill-opacity: 0.35; stroke: black; stroke-width: 2px;"/><path style="fill: none; stroke: black; stroke-width: 2px;" d="M0,30L130,30"/><text style="font-family: IBM Plex, sans-serif; font-size: 16px; font-weight: normal;" lineHeight="1.2" class="djs-label"><tspan x="12.63333511352539" y="19.8">Organization B</tspan></text><text style="font-family: IBM Plex, sans-serif; font-size: 16px; font-weight: normal;" lineHeight="1.2" class="djs-label"><tspan x="13.558334350585938" y="94.80000000000001">Propose dates</tspan></text></g><rect style="fill: none; stroke-opacity: 0; stroke: white; stroke-width: 15px;" class="djs-hit djs-hit-all" x="0" y="0" width="130" height="150"/><rect x="-6" y="-6" rx="4" width="142" height="162" style="fill: none;" class="djs-outline"/></g></g><g class="djs-group"><g class="djs-element djs-shape" data-element-id="Event_1125kuo" transform="matrix(1, 0, 0, 1, 1000, 1010)" style="display: block;"><g class="djs-visual"><rect x="0" y="0" width="130" height="150" rx="7" ry="7" style="fill: white; fill-opacity: 0.35; stroke: black; stroke-width: 2px;"/><path style="fill: none; stroke: black; stroke-width: 2px;" d="M0,30L130,30"/><text style="font-family: IBM Plex, sans-serif; font-size: 16px; font-weight: normal;" lineHeight="1.2" class="djs-label"><tspan x="12.63333511352539" y="19.8">Organization B</tspan></text><text style="font-family: IBM Plex, sans-serif; font-size: 16px; font-weight: normal;" lineHeight="1.2" class="djs-label"><tspan x="18.25833511352539" y="94.80000000000001">Accept dates</tspan></text></g><rect style="fill: none; stroke-opacity: 0; stroke: white; stroke-width: 15px;" class="djs-hit djs-hit-all" x="0" y="0" width="130" height="150"/><rect x="-6" y="-6" rx="4" width="142" height="162" style="fill: none;" class="djs-outline"/></g></g></g></g></svg>