<?xml version="1.0" encoding="utf-8"?>
<!-- created with diagram-js -->
<!DOCTYPE svg PUBLIC "-//W3C//DTD SVG 1.1//EN" "http://www.w3.org/Graphics/SVG/1.1/DTD/svg11.dtd">
<svg xmlns="http://www.w3.org/2000/svg" xmlns:xlink="http://www.w3.org/1999/xlink" width="640" height="700" viewBox="215 75 640 700" version="1.1"><defs><marker id="proposed-condition-flow-end-white-_FEA00F-b60qt4qt00vzr33sw12uqu5ju-left-to-right-left-to-right" viewBox="0 0 20 20" refX="20.65" refY="10" markerWidth="10" markerHeight="10" orient="auto"><g transform="" style="fill: white; stroke-width: 1px; stroke-linecap: round; stroke-dasharray: 10000, 1;"><circle cx="10" cy="10" r="9" style="fill: white; stroke: rgb(254, 160, 15); stroke-width: 2px;"/><circle cx="6.5" cy="10" r="2.1" style="stroke: rgb(254, 160, 15); stroke-width: 2px;"/><path d="M9.5 10H12.5M15.5 12.5V10H12.5M12.5 10V12.5" style="stroke: rgb(254, 160, 15); stroke-width: 2px; stroke-linecap: round; stroke-linejoin: round;"/></g></marker><marker id="proposed-condition-flow-start-_FEA00F-_FEA00F-b60qt4qt00vzr33sw12uqu5ju-undefined-undefined" viewBox="0 0 20 20" refX="0" refY="7.22" markerWidth="10" markerHeight="10" orient="auto"><path d="M0 24V0L24 12L0 24Z" transform="scale(0.6)" style="fill: rgb(254, 160, 15); stroke-width: 1px; stroke-linecap: round; stroke-dasharray: 10000, 1; stroke: rgb(254, 160, 15);"/></marker><marker id="proposed-condition-flow-end-white-_FEA00F-b60qt4qt00vzr33sw12uqu5ju-left-to-right-right-to-left" viewBox="0 0 20 20" refX="20.65" refY="10" markerWidth="10" markerHeight="10" orient="auto"><g transform="rotate(180, 10, 10)" style="fill: white; stroke-width: 1px; stroke-linecap: round; stroke-dasharray: 10000, 1;"><circle cx="10" cy="10" r="9" style="fill: white; stroke: rgb(254, 160, 15); stroke-width: 2px;"/><circle cx="6.5" cy="10" r="2.1" style="stroke: rgb(254, 160, 15); stroke-width: 2px;"/><path d="M9.5 10H12.5M15.5 12.5V10H12.5M12.5 10V12.5" style="stroke: rgb(254, 160, 15); stroke-width: 2px; stroke-linecap: round; stroke-linejoin: round;"/></g></marker><marker id="proposed-condition-flow-end-white-_FEA00F-b60qt4qt00vzr33sw12uqu5ju-left-to-right-bottom-to-top" viewBox="0 0 20 20" refX="20.65" refY="10" markerWidth="10" markerHeight="10" orient="auto"><g transform="rotate(90, 10, 10)" style="fill: white; stroke-width: 1px; stroke-linecap: round; stroke-dasharray: 10000, 1;"><circle cx="10" cy="10" r="9" style="fill: white; stroke: rgb(254, 160, 15); stroke-width: 2px;"/><circle cx="6.5" cy="10" r="2.1" style="stroke: rgb(254, 160, 15); stroke-width: 2px;"/><path d="M9.5 10H12.5M15.5 12.5V10H12.5M12.5 10V12.5" style="stroke: rgb(254, 160, 15); stroke-width: 2px; stroke-linecap: round; stroke-linejoin: round;"/></g></marker><marker id="proposed-response-flow-start-_2192FF-_2192FF-b60qt4qt00vzr33sw12uqu5ju-undefined-undefined" viewBox="0 0 20 20" refX="0" refY="7.22" markerWidth="10" markerHeight="10" orient="auto"><path d="M0 24V0L24 12L0 24Z" transform="scale(0.6)" style="fill: rgb(33, 146, 255); stroke-width: 1px; stroke-linecap: round; stroke-dasharray: 10000, 1; stroke: rgb(33, 146, 255);"/></marker><marker id="proposed-response-flow-end-white-_2192FF-b60qt4qt00vzr33sw12uqu5ju-left-to-right-left-to-right" viewBox="0 0 20 20" refX="21" refY="10" markerWidth="10" markerHeight="10" orient="auto"><g transform="" style="fill: white; stroke-width: 2; stroke-linecap: round; stroke-dasharray: 10000, 1; stroke: rgb(33, 146, 255);"><circle cx="10" cy="10" r="9"/><path d="M12 0.8V5" transform="translate(-2, 5)" style="stroke-width: 2.3px; stroke-linecap: round;"/><circle cx="10" cy="14" r="0.21"/></g></marker><marker id="proposed-exclude-flow-start-_FB1818-_FB1818-b60qt4qt00vzr33sw12uqu5ju-undefined-undefined" viewBox="0 0 20 20" refX="0" refY="7.22" markerWidth="10" markerHeight="10" orient="auto"><path d="M0 24V0L24 12L0 24Z" transform="scale(0.6)" style="fill: rgb(251, 24, 24); stroke-width: 1px; stroke-linecap: round; stroke-dasharray: 10000, 1; stroke: rgb(251, 24, 24);"/></marker><marker id="proposed-exclude-flow-end-white-_FB1818-b60qt4qt00vzr33sw12uqu5ju-top-to-bottom-left-to-right" viewBox="0 0 20 20" refX="21" refY="10" markerWidth="10" markerHeight="10" orient="auto"><g transform="" style="fill: white; stroke-width: 2; stroke-linecap: round; stroke-dasharray: 10000, 1; stroke: rgb(251, 24, 24);"><circle cx="10" cy="10" r="9"/><path d="M16 12H10" transform="translate(-3, -2)" style="fill: rgb(251, 24, 24); stroke-width: 2px; stroke-linecap: round;"/></g></marker><marker id="proposed-condition-flow-end-white-_FEA00F-b60qt4qt00vzr33sw12uqu5ju-bottom-to-top-bottom-to-top" viewBox="0 0 20 20" refX="20.65" refY="10" markerWidth="10" markerHeight="10" orient="auto"><g transform="rotate(90, 10, 10)" style="fill: white; stroke-width: 1px; stroke-linecap: round; stroke-dasharray: 10000, 1;"><circle cx="10" cy="10" r="9" style="fill: white; stroke: rgb(254, 160, 15); stroke-width: 2px;"/><circle cx="6.5" cy="10" r="2.1" style="stroke: rgb(254, 160, 15); stroke-width: 2px;"/><path d="M9.5 10H12.5M15.5 12.5V10H12.5M12.5 10V12.5" style="stroke: rgb(254, 160, 15); stroke-width: 2px; stroke-linecap: round; stroke-linejoin: round;"/></g></marker><marker id="proposed-response-flow-end-white-_2192FF-b60qt4qt00vzr33sw12uqu5ju-bottom-to-top-bottom-to-top" viewBox="0 0 20 20" refX="21" refY="10" markerWidth="10" markerHeight="10" orient="auto"><g transform="rotate(90, 10, 10)" style="fill: white; stroke-width: 2; stroke-linecap: round; stroke-dasharray: 10000, 1; stroke: rgb(33, 146, 255);"><circle cx="10" cy="10" r="9"/><path d="M12 0.8V5" transform="translate(-2, 5)" style="stroke-width: 2.3px; stroke-linecap: round;"/><circle cx="10" cy="14" r="0.21"/></g></marker><marker id="proposed-condition-flow-end-white-_FEA00F-b60qt4qt00vzr33sw12uqu5ju-top-to-bottom-top-to-bottom" viewBox="0 0 20 20" refX="20.65" refY="10" markerWidth="10" markerHeight="10" orient="auto"><g transform="rotate(270, 10, 10)" style="fill: white; stroke-width: 1px; stroke-linecap: round; stroke-dasharray: 10000, 1;"><circle cx="10" cy="10" r="9" style="fill: white; stroke: rgb(254, 160, 15); stroke-width: 2px;"/><circle cx="6.5" cy="10" r="2.1" style="stroke: rgb(254, 160, 15); stroke-width: 2px;"/><path d="M9.5 10H12.5M15.5 12.5V10H12.5M12.5 10V12.5" style="stroke: rgb(254, 160, 15); stroke-width: 2px; stroke-linecap: round; stroke-linejoin: round;"/></g></marker><marker id="proposed-exclude-flow-end-white-_FB1818-b60qt4qt00vzr33sw12uqu5ju-left-to-right-left-to-right" viewBox="0 0 20 20" refX="21" refY="10" markerWidth="10" markerHeight="10" orient="auto"><g transform="" style="fill: white; stroke-width: 2; stroke-linecap: round; stroke-dasharray: 10000, 1; stroke: rgb(251, 24, 24);"><circle cx="10" cy="10" r="9"/><path d="M16 12H10" transform="translate(-3, -2)" style="fill: rgb(251, 24, 24); stroke-width: 2px; stroke-linecap: round;"/></g></marker><marker id="proposed-exclude-flow-end-white-_FB1818-b60qt4qt00vzr33sw12uqu5ju-right-to-left-left-to-right" viewBox="0 0 20 20" refX="21" refY="10" markerWidth="10" markerHeight="10" orient="auto"><g transform="" style="fill: white; stroke-width: 2; stroke-linecap: round; stroke-dasharray: 10000, 1; stroke: rgb(251, 24, 24);"><circle cx="10" cy="10" r="9"/><path d="M16 12H10" transform="translate(-3, -2)" style="fill: rgb(251, 24, 24); stroke-width: 2px; stroke-linecap: round;"/></g></marker><marker id="proposed-exclude-flow-end-white-_FB1818-b60qt4qt00vzr33sw12uqu5ju-bottom-to-top-left-to-right" viewBox="0 0 20 20" refX="21" refY="10" markerWidth="10" markerHeight="10" orient="auto"><g transform="" style="fill: white; stroke-width: 2; stroke-linecap: round; stroke-dasharray: 10000, 1; stroke: rgb(251, 24, 24);"><circle cx="10" cy="10" r="9"/><path d="M16 12H10" transform="translate(-3, -2)" style="fill: rgb(251, 24, 24); stroke-width: 2px; stroke-linecap: round;"/></g></marker><marker id="proposed-exclude-flow-end-white-_FB1818-b60qt4qt00vzr33sw12uqu5ju-bottom-to-top-top-to-bottom" viewBox="0 0 20 20" refX="21" refY="10" markerWidth="10" markerHeight="10" orient="auto"><g transform="rotate(270, 10, 10)" style="fill: white; stroke-width: 2; stroke-linecap: round; stroke-dasharray: 10000, 1; stroke: rgb(251, 24, 24);"><circle cx="10" cy="10" r="9"/><path d="M16 12H10" transform="translate(-3, -2)" style="fill: rgb(251, 24, 24); stroke-width: 2px; stroke-linecap: round;"/></g></marker><marker id="proposed-include-flow-start-_2CA81A-_2CA81A-b60qt4qt00vzr33sw12uqu5ju-undefined-undefined" viewBox="0 0 20 20" refX="0" refY="7.22" markerWidth="10" markerHeight="10" orient="auto"><path d="M0 24V0L24 12L0 24Z" transform="scale(0.6)" style="fill: rgb(44, 168, 26); stroke-width: 1px; stroke-linecap: round; stroke-dasharray: 10000, 1; stroke: rgb(44, 168, 26);"/></marker><marker id="proposed-include-flow-end-white-_2CA81A-b60qt4qt00vzr33sw12uqu5ju-top-to-bottom-top-to-bottom" viewBox="0 0 20 20" refX="21" refY="10" markerWidth="10" markerHeight="10" orient="auto"><g transform="rotate(270, 10, 10)" style="fill: white; stroke-width: 2; stroke-linecap: round; stroke-dasharray: 10000, 1; stroke: rgb(44, 168, 26);"><circle cx="10" cy="10" r="9"/><path d="M16 12L8 12M12 16L12 8" transform="translate(-2, -2)" style="fill: rgb(44, 168, 26); stroke-width: 2px; stroke-linecap: round;"/></g></marker><marker id="proposed-include-flow-end-white-_2CA81A-b60qt4qt00vzr33sw12uqu5ju-left-to-right-left-to-right" viewBox="0 0 20 20" refX="21" refY="10" markerWidth="10" markerHeight="10" orient="auto"><g transform="" style="fill: white; stroke-width: 2; stroke-linecap: round; stroke-dasharray: 10000, 1; stroke: rgb(44, 168, 26);"><circle cx="10" cy="10" r="9"/><path d="M16 12L8 12M12 16L12 8" transform="translate(-2, -2)" style="fill: rgb(44, 168, 26); stroke-width: 2px; stroke-linecap: round;"/></g></marker></defs><g class="djs-group"><g class="djs-element djs-connection" data-element-id="Relation_1vaknp2" style="display: block;"><g class="djs-visual"><path d="m  350,465L420,465 " style="fill: none; stroke-width: 2px; stroke-linejoin: round; stroke: rgb(254, 160, 15); marker-end: url('#proposed-condition-flow-end-white-_FEA00F-b60qt4qt00vzr33sw12uqu5ju-left-to-right-left-to-right'); marker-start: url('#proposed-condition-flow-start-_FEA00F-_FEA00F-b60qt4qt00vzr33sw12uqu5ju-undefined-undefined');"/></g><path d="M350,465L420,465" class="djs-hit djs-hit-stroke" style="fill: none; stroke-opacity: 0; stroke: white; stroke-width: 15px;"/><rect x="345" y="460" rx="4" width="80" height="10" class="djs-outline" style="fill: none;"/></g></g><g class="djs-group"><g class="djs-element djs-connection" data-element-id="Relation_0dphiv2" style="display: block;"><g class="djs-visual"><path d="m  520,380L520,270 " style="fill: none; stroke-width: 2px; stroke-linejoin: round; stroke: rgb(254, 160, 15); marker-end: url('#proposed-condition-flow-end-white-_FEA00F-b60qt4qt00vzr33sw12uqu5ju-bottom-to-top-bottom-to-top'); marker-start: url('#proposed-condition-flow-start-_FEA00F-_FEA00F-b60qt4qt00vzr33sw12uqu5ju-undefined-undefined');"/></g><path d="M520,380L520,270" class="djs-hit djs-hit-stroke" style="fill: none; stroke-opacity: 0; stroke: white; stroke-width: 15px;"/><rect x="515" y="265" rx="4" width="10" height="120" class="djs-outline" style="fill: none;"/></g></g><g class="djs-group"><g class="djs-element djs-connection" data-element-id="Relation_0r6vork" style="display: block;"><g class="djs-visual"><path d="m  350,500L420,500 " style="fill: none; stroke-width: 2px; stroke-linejoin: round; stroke: rgb(33, 146, 255); marker-start: url('#proposed-response-flow-start-_2192FF-_2192FF-b60qt4qt00vzr33sw12uqu5ju-undefined-undefined'); marker-end: url('#proposed-response-flow-end-white-_2192FF-b60qt4qt00vzr33sw12uqu5ju-left-to-right-left-to-right');"/></g><path d="M350,500L420,500" class="djs-hit djs-hit-stroke" style="fill: none; stroke-opacity: 0; stroke: white; stroke-width: 15px;"/><rect x="345" y="495" rx="4" width="80" height="10" class="djs-outline" style="fill: none;"/></g></g><g class="djs-group"><g class="djs-element djs-connection" data-element-id="Relation_1l0348l" style="display: block;"><g class="djs-visual"><path d="m  485,380L485,270 " style="fill: none; stroke-width: 2px; stroke-linejoin: round; stroke: rgb(33, 146, 255); marker-start: url('#proposed-response-flow-start-_2192FF-_2192FF-b60qt4qt00vzr33sw12uqu5ju-undefined-undefined'); marker-end: url('#proposed-response-flow-end-white-_2192FF-b60qt4qt00vzr33sw12uqu5ju-bottom-to-top-bottom-to-top');"/></g><path d="M485,380L485,270" class="djs-hit djs-hit-stroke" style="fill: none; stroke-opacity: 0; stroke: white; stroke-width: 15px;"/><rect x="480" y="265" rx="4" width="10" height="120" class="djs-outline" style="fill: none;"/></g></g><g class="djs-group"><g class="djs-element djs-connection" data-element-id="Relation_0y753f2" style="display: block;"><g class="djs-visual"><path d="m  550,195L720,195 " style="fill: none; stroke-width: 2px; stroke-linejoin: round; stroke: rgb(254, 160, 15); marker-end: url('#proposed-condition-flow-end-white-_FEA00F-b60qt4qt00vzr33sw12uqu5ju-left-to-right-left-to-right'); marker-start: url('#proposed-condition-flow-start-_FEA00F-_FEA00F-b60qt4qt00vzr33sw12uqu5ju-undefined-undefined');"/></g><path d="M550,195L720,195" class="djs-hit djs-hit-stroke" style="fill: none; stroke-opacity: 0; stroke: white; stroke-width: 15px;"/><rect x="545" y="190" rx="4" width="180" height="10" class="djs-outline" style="fill: none;"/></g></g><g class="djs-group"><g class="djs-element djs-connection" data-element-id="Relation_1afb2fv" style="display: block;"><g class="djs-visual"><path d="m  550,170L720,170 " style="fill: none; stroke-width: 2px; stroke-linejoin: round; stroke: rgb(33, 146, 255); marker-start: url('#proposed-response-flow-start-_2192FF-_2192FF-b60qt4qt00vzr33sw12uqu5ju-undefined-undefined'); marker-end: url('#proposed-response-flow-end-white-_2192FF-b60qt4qt00vzr33sw12uqu5ju-left-to-right-left-to-right');"/></g><path d="M550,170L720,170" class="djs-hit djs-hit-stroke" style="fill: none; stroke-opacity: 0; stroke: white; stroke-width: 15px;"/><rect x="545" y="165" rx="4" width="180" height="10" class="djs-outline" style="fill: none;"/></g></g><g class="djs-group"><g class="djs-element djs-connection" data-element-id="Relation_09i9t2h" style="display: block;"><g class="djs-visual"><path d="m  485,530L485,620 " style="fill: none; stroke-width: 2px; stroke-linejoin: round; stroke: rgb(254, 160, 15); marker-end: url('#proposed-condition-flow-end-white-_FEA00F-b60qt4qt00vzr33sw12uqu5ju-top-to-bottom-top-to-bottom'); marker-start: url('#proposed-condition-flow-start-_FEA00F-_FEA00F-b60qt4qt00vzr33sw12uqu5ju-undefined-undefined');"/></g><path d="M485,530L485,620" class="djs-hit djs-hit-stroke" style="fill: none; stroke-opacity: 0; stroke: white; stroke-width: 15px;"/><rect x="480" y="525" rx="4" width="10" height="100" class="djs-outline" style="fill: none;"/></g></g><g class="djs-group"><g class="djs-element djs-connection" data-element-id="Relation_0l4ss9s" style="display: block;"><g class="djs-visual"><path d="m  785,120L785,80 L750,80 L750,120 " style="fill: none; stroke-width: 2px; stroke-linejoin: round; stroke: rgb(251, 24, 24); marker-start: url('#proposed-exclude-flow-start-_FB1818-_FB1818-b60qt4qt00vzr33sw12uqu5ju-undefined-undefined'); marker-end: url('#proposed-exclude-flow-end-white-_FB1818-b60qt4qt00vzr33sw12uqu5ju-bottom-to-top-top-to-bottom');"/></g><path d="M785,120L785,80L750,80L750,120" class="djs-hit djs-hit-stroke" style="fill: none; stroke-opacity: 0; stroke: white; stroke-width: 15px;"/><rect x="745" y="75" rx="4" width="45" height="50" class="djs-outline" style="fill: none;"/></g></g><g class="djs-group"><g class="djs-element djs-connection" data-element-id="Relation_1jzwgzs" style="display: block;"><g class="djs-visual"><path d="m  550,455L625,455 " style="fill: none; stroke-width: 2px; stroke-linejoin: round; stroke: rgb(254, 160, 15); marker-end: url('#proposed-condition-flow-end-white-_FEA00F-b60qt4qt00vzr33sw12uqu5ju-left-to-right-left-to-right'); marker-start: url('#proposed-condition-flow-start-_FEA00F-_FEA00F-b60qt4qt00vzr33sw12uqu5ju-undefined-undefined');"/></g><path d="M550,455L625,455" class="djs-hit djs-hit-stroke" style="fill: none; stroke-opacity: 0; stroke: white; stroke-width: 15px;"/><rect x="545" y="450" rx="4" width="85" height="10" class="djs-outline" style="fill: none;"/></g></g><g class="djs-group"><g class="djs-element djs-connection" data-element-id="Relation_13ftcm8" style="display: block;"><g class="djs-visual"><path d="m  690,530L690,620 " style="fill: none; stroke-width: 2px; stroke-linejoin: round; stroke: rgb(44, 168, 26); marker-start: url('#proposed-include-flow-start-_2CA81A-_2CA81A-b60qt4qt00vzr33sw12uqu5ju-undefined-undefined'); marker-end: url('#proposed-include-flow-end-white-_2CA81A-b60qt4qt00vzr33sw12uqu5ju-top-to-bottom-top-to-bottom');"/></g><path d="M690,530L690,620" class="djs-hit djs-hit-stroke" style="fill: none; stroke-opacity: 0; stroke: white; stroke-width: 15px;"/><rect x="685" y="525" rx="4" width="10" height="100" class="djs-outline" style="fill: none;"/></g></g><g class="djs-group"><g class="djs-element djs-connection" data-element-id="Relation_1jeucuw" style="display: block;"><g class="djs-visual"><path d="m  550,695L625,695 " style="fill: none; stroke-width: 2px; stroke-linejoin: round; stroke: rgb(44, 168, 26); marker-start: url('#proposed-include-flow-start-_2CA81A-_2CA81A-b60qt4qt00vzr33sw12uqu5ju-undefined-undefined'); marker-end: url('#proposed-include-flow-end-white-_2CA81A-b60qt4qt00vzr33sw12uqu5ju-left-to-right-left-to-right');"/></g><path d="M550,695L625,695" class="djs-hit djs-hit-stroke" style="fill: none; stroke-opacity: 0; stroke: white; stroke-width: 15px;"/><rect x="545" y="690" rx="4" width="85" height="10" class="djs-outline" style="fill: none;"/></g></g><g class="djs-group"><g class="djs-element djs-shape" data-element-id="Event_02h3k2r" style="display: block;" transform="matrix(1 0 0 1 220 390)"><g class="djs-visual"><rect x="0" y="0" width="130" height="150" rx="7" ry="7" style="fill: white; fill-opacity: 0.35; stroke: black; stroke-width: 2px;"/><path style="fill: none; stroke: black; stroke-width: 2px;" d="M0,30L130,30"/><text lineHeight="1.2" class="djs-label" style="font-family: 'IBM Plex', sans-serif; font-size: 16px; font-weight: normal;"><tspan x="31.1796875" y="19.8">Company</tspan></text><text lineHeight="1.2" class="djs-label" style="font-family: 'IBM Plex', sans-serif; font-size: 16px; font-weight: normal;"><tspan x="22.375" y="85.2">Receives an </tspan><tspan x="39.796875" y="104.4">invoice</tspan></text><path d="m 6,60 c0,0,0,0,0,0c0,-1.79,1.34,-3.25,3,-3.25c1.66,0,3,1.46,3,3.25c0,0,0,0,0,0c0,1.8,-1.34,3.25,-3,3.25c-1.66,0,-3,-1.45,-3,-3.25c0,0,0,0,0,0zm0.29,-19.5c-0.01,-0.1,-0.01,-0.21,-0.01,-0.31c0,-1.62,1.21,-2.94,2.71,-2.94c1.5,0,2.72,1.32,2.72,2.94c0,0.1,-0.01,0.21,-0.02,0.31c0,0,-1.05,11.39,-1.05,11.39c-0.08,0.9,-0.79,1.61,-1.65,1.61c-0.85,0,-1.56,-0.71,-1.65,-1.61c0,0,-1.05,-11.39,-1.05,-11.39z" data-marker="pending" style="fill: rgb(3, 155, 229); stroke-width: 2px; stroke: rgb(3, 155, 229);"/></g><rect class="djs-hit djs-hit-all" x="0" y="0" width="130" height="150" style="fill: none; stroke-opacity: 0; stroke: white; stroke-width: 15px;"/><rect x="-5" y="-5" rx="4" width="140" height="160" class="djs-outline" style="fill: none;"/></g></g><g class="djs-group"><g class="djs-element djs-shape" data-element-id="Event_0hj2u32" style="display: block;" transform="matrix(1 0 0 1 420 380)"><g class="djs-visual"><rect x="0" y="0" width="130" height="150" rx="7" ry="7" style="fill: white; fill-opacity: 0.35; stroke: black; stroke-width: 2px;"/><path style="fill: none; stroke: black; stroke-width: 2px;" d="M0,30L130,30"/><text lineHeight="1.2" class="djs-label" style="font-family: 'IBM Plex', sans-serif; font-size: 16px; font-weight: normal;"><tspan x="31.1796875" y="19.8">Company</tspan></text><text lineHeight="1.2" class="djs-label" style="font-family: 'IBM Plex', sans-serif; font-size: 16px; font-weight: normal;"><tspan x="8.3515625" y="75.60000000000001">Register invoice</tspan><tspan x="16.34375" y="94.80000000000001">in Accounting </tspan><tspan x="38.3984375" y="114.00000000000001">System</tspan></text></g><rect class="djs-hit djs-hit-all" x="0" y="0" width="130" height="150" style="fill: none; stroke-opacity: 0; stroke: white; stroke-width: 15px;"/><rect x="-5" y="-5" rx="4" width="140" height="160" class="djs-outline" style="fill: none;"/></g></g><g class="djs-group"><g class="djs-element djs-shape" data-element-id="Event_0ovdkh5" style="display: block;" transform="matrix(1 0 0 1 420 120)"><g class="djs-visual"><rect x="0" y="0" width="130" height="150" rx="7" ry="7" style="fill: white; fill-opacity: 0.35; stroke: black; stroke-width: 2px;"/><path style="fill: none; stroke: black; stroke-width: 2px;" d="M0,30L130,30"/><text lineHeight="1.2" class="djs-label" style="font-family: 'IBM Plex', sans-serif; font-size: 16px; font-weight: normal;"><tspan x="29.359375" y="19.8">Employee</tspan></text><text lineHeight="1.2" class="djs-label" style="font-family: 'IBM Plex', sans-serif; font-size: 16px; font-weight: normal;"><tspan x="6.7265625" y="94.80000000000001">Approve Invoice</tspan></text></g><rect class="djs-hit djs-hit-all" x="0" y="0" width="130" height="150" style="fill: none; stroke-opacity: 0; stroke: white; stroke-width: 15px;"/><rect x="-5" y="-5" rx="4" width="140" height="160" class="djs-outline" style="fill: none;"/></g></g><g class="djs-group"><g class="djs-element djs-shape" data-element-id="Event_01dphc3" style="display: block;" transform="matrix(1 0 0 1 420 620)"><g class="djs-visual"><rect x="0" y="0" width="130" height="150" rx="7" ry="7" style="fill: white; fill-opacity: 0.35; stroke: black; stroke-width: 2px;"/><path style="fill: none; stroke: black; stroke-width: 2px;" d="M0,30L130,30"/><text lineHeight="1.2" class="djs-label" style="font-family: 'IBM Plex', sans-serif; font-size: 16px; font-weight: normal;"><tspan x="38.3984375" y="19.8">System</tspan></text><text lineHeight="1.2" class="djs-label" style="font-family: 'IBM Plex', sans-serif; font-size: 16px; font-weight: normal;"><tspan x="5.5078125" y="94.80000000000001">Deadline Passed</tspan></text></g><rect class="djs-hit djs-hit-all" x="0" y="0" width="130" height="150" style="fill: none; stroke-opacity: 0; stroke: white; stroke-width: 15px;"/><rect x="-5" y="-5" rx="4" width="140" height="160" class="djs-outline" style="fill: none;"/></g></g><g class="djs-group"><g class="djs-element djs-shape" data-element-id="Event_11mkefa" style="display: block;" transform="matrix(1 0 0 1 720 120)"><g class="djs-visual"><rect x="0" y="0" width="130" height="150" rx="7" ry="7" style="fill: white; fill-opacity: 0.35; stroke: black; stroke-width: 2px;"/><path style="fill: none; stroke: black; stroke-width: 2px;" d="M0,30L130,30"/><text lineHeight="1.2" class="djs-label" style="font-family: 'IBM Plex', sans-serif; font-size: 16px; font-weight: normal;"><tspan x="31.1796875" y="19.8">Company</tspan></text><text lineHeight="1.2" class="djs-label" style="font-family: 'IBM Plex', sans-serif; font-size: 16px; font-weight: normal;"><tspan x="24.9140625" y="94.80000000000001">Pay invoice</tspan></text></g><rect class="djs-hit djs-hit-all" x="0" y="0" width="130" height="150" style="fill: none; stroke-opacity: 0; stroke: white; stroke-width: 15px;"/><rect x="-5" y="-5" rx="4" width="140" height="160" class="djs-outline" style="fill: none;"/></g></g><g class="djs-group"><g class="djs-element djs-shape" data-element-id="Event_1lpriid" style="display: block;" transform="matrix(1 0 0 1 625 380)"><g class="djs-visual"><rect x="0" y="0" width="130" height="150" rx="7" ry="7" style="fill: white; fill-opacity: 0.35; stroke: black; stroke-width: 2px;"/><path style="fill: none; stroke: black; stroke-width: 2px;" d="M0,30L130,30"/><text lineHeight="1.2" class="djs-label" style="font-family: 'IBM Plex', sans-serif; font-size: 16px; font-weight: normal;"><tspan x="31.1796875" y="19.8">Company</tspan></text><text lineHeight="1.2" class="djs-label" style="font-family: 'IBM Plex', sans-serif; font-size: 16px; font-weight: normal;"><tspan x="24.8515625" y="85.2">Rejects the </tspan><tspan x="39.796875" y="104.4">invoice</tspan></text></g><rect class="djs-hit djs-hit-all" x="0" y="0" width="130" height="150" style="fill: none; stroke-opacity: 0; stroke: white; stroke-width: 15px;"/><rect x="-5" y="-5" rx="4" width="140" height="160" class="djs-outline" style="fill: none;"/></g></g><g class="djs-group"><g class="djs-element djs-shape" data-element-id="Event_1erhpnx" style="display: block;" transform="matrix(1 0 0 1 625 620)"><g class="djs-visual"><rect x="0" y="0" width="130" height="150" rx="7" ry="7" style="fill: white; fill-opacity: 0.35; stroke: black; stroke-width: 2px; stroke-dasharray: 12, 5;"/><path style="fill: none; stroke: black; stroke-width: 2px; stroke-dasharray: 12, 5;" d="M0,30L130,30"/><text lineHeight="1.2" class="djs-label" style="font-family: 'IBM Plex', sans-serif; font-size: 16px; font-weight: normal;"><tspan x="31.1796875" y="19.8">Company</tspan></text><text lineHeight="1.2" class="djs-label" style="font-family: 'IBM Plex', sans-serif; font-size: 16px; font-weight: normal;"><tspan x="6.25" y="85.2">Notify the issuer</tspan><tspan x="10.828125" y="104.4">about rejection</tspan></text></g><rect class="djs-hit djs-hit-all" x="0" y="0" width="130" height="150" style="fill: none; stroke-opacity: 0; stroke: white; stroke-width: 15px;"/><rect x="-5" y="-5" rx="4" width="140" height="160" class="djs-outline" style="fill: none;"/></g></g></svg>
