<?xml version="1.0" encoding="utf-8"?>
<!-- created with diagram-js -->
<!DOCTYPE svg PUBLIC "-//W3C//DTD SVG 1.1//EN" "http://www.w3.org/Graphics/SVG/1.1/DTD/svg11.dtd">
<svg xmlns="http://www.w3.org/2000/svg" xmlns:xlink="http://www.w3.org/1999/xlink" width="520" height="460" viewBox="225 -155 520 460" version="1.1"><defs><marker id="proposed-condition-flow-end-white-_FEA00F-0yvilwyx3uq4w8ycxavoy8fpq-left-to-right-left-to-right" viewBox="0 0 20 20" refX="20.65" refY="10" markerWidth="10" markerHeight="10" orient="auto"><g transform="" style="fill: white; stroke-width: 1px; stroke-linecap: round; stroke-dasharray: 10000, 1;"><circle cx="10" cy="10" r="9" style="fill: white; stroke: rgb(254, 160, 15); stroke-width: 2px;"/><circle cx="6.5" cy="10" r="2.1" style="stroke: rgb(254, 160, 15); stroke-width: 2px;"/><path d="M9.5 10H12.5M15.5 12.5V10H12.5M12.5 10V12.5" style="stroke: rgb(254, 160, 15); stroke-width: 2px; stroke-linecap: round; stroke-linejoin: round;"/></g></marker><marker id="proposed-condition-flow-start-_FEA00F-_FEA00F-0yvilwyx3uq4w8ycxavoy8fpq-undefined-undefined" viewBox="0 0 20 20" refX="0" refY="7.22" markerWidth="10" markerHeight="10" orient="auto"><path d="M0 24V0L24 12L0 24Z" transform="scale(0.6)" style="fill: rgb(254, 160, 15); stroke-width: 1px; stroke-linecap: round; stroke-dasharray: 10000, 1; stroke: rgb(254, 160, 15);"/></marker><marker id="proposed-response-flow-start-_2192FF-_2192FF-0yvilwyx3uq4w8ycxavoy8fpq-undefined-undefined" viewBox="0 0 20 20" refX="0" refY="7.22" markerWidth="10" markerHeight="10" orient="auto"><path d="M0 24V0L24 12L0 24Z" transform="scale(0.6)" style="fill: rgb(33, 146, 255); stroke-width: 1px; stroke-linecap: round; stroke-dasharray: 10000, 1; stroke: rgb(33, 146, 255);"/></marker><marker id="proposed-response-flow-end-white-_2192FF-0yvilwyx3uq4w8ycxavoy8fpq-left-to-right-left-to-right" viewBox="0 0 20 20" refX="21" refY="10" markerWidth="10" markerHeight="10" orient="auto"><g transform="" style="fill: white; stroke-width: 2; stroke-linecap: round; stroke-dasharray: 10000, 1; stroke: rgb(33, 146, 255);"><circle cx="10" cy="10" r="9"/><path d="M12 0.8V5" transform="translate(-2, 5)" style="stroke-width: 2.3px; stroke-linecap: round;"/><circle cx="10" cy="14" r="0.21"/></g></marker><marker id="proposed-condition-flow-end-white-_FEA00F-0yvilwyx3uq4w8ycxavoy8fpq-right-to-left-right-to-left" viewBox="0 0 20 20" refX="20.65" refY="10" markerWidth="10" markerHeight="10" orient="auto"><g transform="rotate(180, 10, 10)" style="fill: white; stroke-width: 1px; stroke-linecap: round; stroke-dasharray: 10000, 1;"><circle cx="10" cy="10" r="9" style="fill: white; stroke: rgb(254, 160, 15); stroke-width: 2px;"/><circle cx="6.5" cy="10" r="2.1" style="stroke: rgb(254, 160, 15); stroke-width: 2px;"/><path d="M9.5 10H12.5M15.5 12.5V10H12.5M12.5 10V12.5" style="stroke: rgb(254, 160, 15); stroke-width: 2px; stroke-linecap: round; stroke-linejoin: round;"/></g></marker><marker id="proposed-condition-flow-end-white-_FEA00F-0yvilwyx3uq4w8ycxavoy8fpq-bottom-to-top-bottom-to-top" viewBox="0 0 20 20" refX="20.65" refY="10" markerWidth="10" markerHeight="10" orient="auto"><g transform="rotate(90, 10, 10)" style="fill: white; stroke-width: 1px; stroke-linecap: round; stroke-dasharray: 10000, 1;"><circle cx="10" cy="10" r="9" style="fill: white; stroke: rgb(254, 160, 15); stroke-width: 2px;"/><circle cx="6.5" cy="10" r="2.1" style="stroke: rgb(254, 160, 15); stroke-width: 2px;"/><path d="M9.5 10H12.5M15.5 12.5V10H12.5M12.5 10V12.5" style="stroke: rgb(254, 160, 15); stroke-width: 2px; stroke-linecap: round; stroke-linejoin: round;"/></g></marker><marker id="proposed-exclude-flow-start-_FB1818-_FB1818-0yvilwyx3uq4w8ycxavoy8fpq-undefined-undefined" viewBox="0 0 20 20" refX="0" refY="7.22" markerWidth="10" markerHeight="10" orient="auto"><path d="M0 24V0L24 12L0 24Z" transform="scale(0.6)" style="fill: rgb(251, 24, 24); stroke-width: 1px; stroke-linecap: round; stroke-dasharray: 10000, 1; stroke: rgb(251, 24, 24);"/></marker><marker id="proposed-exclude-flow-end-white-_FB1818-0yvilwyx3uq4w8ycxavoy8fpq-bottom-to-top-bottom-to-top" viewBox="0 0 20 20" refX="21" refY="10" markerWidth="10" markerHeight="10" orient="auto"><g transform="rotate(90, 10, 10)" style="fill: white; stroke-width: 2; stroke-linecap: round; stroke-dasharray: 10000, 1; stroke: rgb(251, 24, 24);"><circle cx="10" cy="10" r="9"/><path d="M16 12H10" transform="translate(-3, -2)" style="fill: rgb(251, 24, 24); stroke-width: 2px; stroke-linecap: round;"/></g></marker><marker id="proposed-exclude-flow-end-white-_FB1818-0yvilwyx3uq4w8ycxavoy8fpq-top-to-bottom-top-to-bottom" viewBox="0 0 20 20" refX="21" refY="10" markerWidth="10" markerHeight="10" orient="auto"><g transform="rotate(270, 10, 10)" style="fill: white; stroke-width: 2; stroke-linecap: round; stroke-dasharray: 10000, 1; stroke: rgb(251, 24, 24);"><circle cx="10" cy="10" r="9"/><path d="M16 12H10" transform="translate(-3, -2)" style="fill: rgb(251, 24, 24); stroke-width: 2px; stroke-linecap: round;"/></g></marker><marker id="proposed-include-flow-start-_2CA81A-_2CA81A-0yvilwyx3uq4w8ycxavoy8fpq-undefined-undefined" viewBox="0 0 20 20" refX="0" refY="7.22" markerWidth="10" markerHeight="10" orient="auto"><path d="M0 24V0L24 12L0 24Z" transform="scale(0.6)" style="fill: rgb(44, 168, 26); stroke-width: 1px; stroke-linecap: round; stroke-dasharray: 10000, 1; stroke: rgb(44, 168, 26);"/></marker><marker id="proposed-include-flow-end-white-_2CA81A-0yvilwyx3uq4w8ycxavoy8fpq-bottom-to-top-bottom-to-top" viewBox="0 0 20 20" refX="21" refY="10" markerWidth="10" markerHeight="10" orient="auto"><g transform="rotate(90, 10, 10)" style="fill: white; stroke-width: 2; stroke-linecap: round; stroke-dasharray: 10000, 1; stroke: rgb(44, 168, 26);"><circle cx="10" cy="10" r="9"/><path d="M16 12L8 12M12 16L12 8" transform="translate(-2, -2)" style="fill: rgb(44, 168, 26); stroke-width: 2px; stroke-linecap: round;"/></g></marker><marker id="default-include-flow-end-_2CA81A-_2CA81A-0yvilwyx3uq4w8ycxavoy8fpq-undefined-undefined" viewBox="0 0 20 20" refX="20.65" refY="10" markerWidth="16" markerHeight="16" orient="auto"><g style="fill: rgb(44, 168, 26); stroke-width: 1px; stroke-linecap: round; stroke-dasharray: 10000, 1;"><rect x="8" y="9.15" width="12" height="1.7" style="fill: white;"/><path d="M2 14.5L2 5.5L12 10L2 14.5Z"/><path d="M20 10.7H16.7V14H15.3V10.7H12L12 9.3H15.3V6L16.7 6V9.3H20V10.7Z"/></g></marker><marker id="default-exclude-flow-end-_FB1818-_FB1818-0yvilwyx3uq4w8ycxavoy8fpq-top-to-bottom-top-to-bottom" viewBox="0 0 20 20" refX="20.65" refY="10" markerWidth="16" markerHeight="16" orient="auto"><g style="fill: rgb(251, 24, 24); stroke-width: 1px; stroke-linecap: round; stroke-dasharray: 10000, 1;"><rect x="8" y="9.15" width="12" height="1.7" style="fill: white;"/><path d="M2 14.5L2 5.5L12 10L2 14.5Z"/><path d="M13.8 9.6C14.7941 9.6 15.6 8.79411 15.6 7.8C15.6 6.80589 14.7941 6 13.8 6C12.8059 6 12 6.80589 12 7.8C12 8.79411 12.8059 9.6 13.8 9.6ZM13.8 8.4C14.1314 8.4 14.4 8.13137 14.4 7.8C14.4 7.46863 14.1314 7.2 13.8 7.2C13.4686 7.2 13.2 7.46863 13.2 7.8C13.2 8.13137 13.4686 8.4 13.8 8.4ZM12.9485 13.9647L12.1 13.1162L19.1162 6.1L19.9647 6.94852L12.9485 13.9647ZM20 12.2C20 13.1941 19.1941 14 18.2 14C17.2059 14 16.4 13.1941 16.4 12.2C16.4 11.2059 17.2059 10.4 18.2 10.4C19.1941 10.4 20 11.2059 20 12.2ZM18.8 12.2C18.8 12.5314 18.5314 12.8 18.2 12.8C17.8686 12.8 17.6 12.5314 17.6 12.2C17.6 11.8686 17.8686 11.6 18.2 11.6C18.5314 11.6 18.8 11.8686 18.8 12.2Z" transform="translate(6,6.5) rotate(270, 10, 10)" style="fill-rule: evenodd; clip-rule: evenodd;"/></g></marker><marker id="default-exclude-flow-end-_FB1818-_FB1818-0yvilwyx3uq4w8ycxavoy8fpq-bottom-to-top-bottom-to-top" viewBox="0 0 20 20" refX="20.65" refY="10" markerWidth="16" markerHeight="16" orient="auto"><g style="fill: rgb(251, 24, 24); stroke-width: 1px; stroke-linecap: round; stroke-dasharray: 10000, 1;"><rect x="8" y="9.15" width="12" height="1.7" style="fill: white;"/><path d="M2 14.5L2 5.5L12 10L2 14.5Z"/><path d="M13.8 9.6C14.7941 9.6 15.6 8.79411 15.6 7.8C15.6 6.80589 14.7941 6 13.8 6C12.8059 6 12 6.80589 12 7.8C12 8.79411 12.8059 9.6 13.8 9.6ZM13.8 8.4C14.1314 8.4 14.4 8.13137 14.4 7.8C14.4 7.46863 14.1314 7.2 13.8 7.2C13.4686 7.2 13.2 7.46863 13.2 7.8C13.2 8.13137 13.4686 8.4 13.8 8.4ZM12.9485 13.9647L12.1 13.1162L19.1162 6.1L19.9647 6.94852L12.9485 13.9647ZM20 12.2C20 13.1941 19.1941 14 18.2 14C17.2059 14 16.4 13.1941 16.4 12.2C16.4 11.2059 17.2059 10.4 18.2 10.4C19.1941 10.4 20 11.2059 20 12.2ZM18.8 12.2C18.8 12.5314 18.5314 12.8 18.2 12.8C17.8686 12.8 17.6 12.5314 17.6 12.2C17.6 11.8686 17.8686 11.6 18.2 11.6C18.5314 11.6 18.8 11.8686 18.8 12.2Z" transform="translate(6, -6) rotate(90, 10, 10)" style="fill-rule: evenodd; clip-rule: evenodd;"/></g></marker><marker id="default-condition-flow-end-_FEA00F-_FEA00F-0yvilwyx3uq4w8ycxavoy8fpq-undefined-undefined" viewBox="0 0 20 20" refX="20.65" refY="10" markerWidth="16" markerHeight="16" orient="auto"><g style="fill: rgb(254, 160, 15); stroke-width: 1px; stroke-linecap: round; stroke-dasharray: 10000, 1;"><rect x="9" y="9.15" width="4" height="1.7" style="fill: white;"/><circle cx="16" cy="10" r="4"/><path d="M2 14.5L2 5.5L12 10L2 14.5Z"/></g></marker><marker id="default-response-flow-start-_2192FF-_2192FF-0yvilwyx3uq4w8ycxavoy8fpq-undefined-undefined" viewBox="0 0 20 20" refX="-0.65" refY="10" markerWidth="16" markerHeight="16" orient="auto"><circle cx="4" cy="10" r="4" style="fill: rgb(33, 146, 255); stroke-width: 1px; stroke-linecap: round; stroke-dasharray: 10000, 1;"/></marker><marker id="default-response-flow-end-_2192FF-_2192FF-0yvilwyx3uq4w8ycxavoy8fpq-undefined-undefined" viewBox="0 0 20 20" refX="20.65" refY="10" markerWidth="16" markerHeight="16" orient="auto"><g style="fill: rgb(33, 146, 255); stroke-width: 1px; stroke-linecap: round; stroke-dasharray: 10000, 1;"><rect x="18" y="9.15" width="2" height="1.7" style="fill: white;"/><path d="M10 14.5L10 5.5L20 10L10 14.5Z"/></g></marker><marker id="new-include-flow-start-_2CA81A-_2CA81A-0yvilwyx3uq4w8ycxavoy8fpq-bottom-to-top-bottom-to-top" viewBox="0 0 20 20" refX="-0.6" refY="10" markerWidth="10" markerHeight="10" orient="auto"><g transform="rotate(90, 10, 10)" style="fill: black; stroke-width: 2; stroke-linecap: round; stroke-dasharray: 10000, 1; stroke: rgb(44, 168, 26);"><rect x="1" y="1" width="18" height="18" rx="1" ry="1" style="fill: rgb(44, 168, 26);"/><path d="M16 12L8 12M12 16L12 8" transform="translate(-2, -2)" style="stroke-width: 2px; stroke-linecap: round; stroke: white;"/></g></marker><marker id="new-exclude-flow-start-_FB1818-_FB1818-0yvilwyx3uq4w8ycxavoy8fpq-top-to-bottom-top-to-bottom" viewBox="0 0 20 20" refX="-0.6" refY="10" markerWidth="10" markerHeight="10" orient="auto"><g transform="rotate(270, 10, 10)" style="fill: black; stroke-width: 2; stroke-linecap: round; stroke-dasharray: 10000, 1; stroke: rgb(251, 24, 24);"><rect x="1" y="1" width="18" height="18" rx="1" ry="1" style="fill: rgb(251, 24, 24);"/><path d="M16 12H10" transform="translate(-3, -2)" style="stroke-width: 2px; stroke-linecap: round; stroke: white;"/></g></marker><marker id="new-exclude-flow-start-_FB1818-_FB1818-0yvilwyx3uq4w8ycxavoy8fpq-bottom-to-top-bottom-to-top" viewBox="0 0 20 20" refX="-0.6" refY="10" markerWidth="10" markerHeight="10" orient="auto"><g transform="rotate(90, 10, 10)" style="fill: black; stroke-width: 2; stroke-linecap: round; stroke-dasharray: 10000, 1; stroke: rgb(251, 24, 24);"><rect x="1" y="1" width="18" height="18" rx="1" ry="1" style="fill: rgb(251, 24, 24);"/><path d="M16 12H10" transform="translate(-3, -2)" style="stroke-width: 2px; stroke-linecap: round; stroke: white;"/></g></marker><marker id="new-condition-flow-end-white-_FEA00F-0yvilwyx3uq4w8ycxavoy8fpq-bottom-to-top-bottom-to-top" viewBox="0 0 20 20" refX="21" refY="10" markerWidth="10" markerHeight="10" orient="auto"><circle cx="10" cy="10" r="9" style="fill: white; stroke-width: 2; stroke-linecap: round; stroke-dasharray: 10000, 1; stroke: rgb(254, 160, 15);"/></marker><marker id="new-condition-flow-end-white-_FEA00F-0yvilwyx3uq4w8ycxavoy8fpq-right-to-left-right-to-left" viewBox="0 0 20 20" refX="21" refY="10" markerWidth="10" markerHeight="10" orient="auto"><circle cx="10" cy="10" r="9" style="fill: white; stroke-width: 2; stroke-linecap: round; stroke-dasharray: 10000, 1; stroke: rgb(254, 160, 15);"/></marker><marker id="new-response-flow-start-_2192FF-_2192FF-0yvilwyx3uq4w8ycxavoy8fpq-left-to-right-left-to-right" viewBox="0 0 20 20" refX="-0.6" refY="10" markerWidth="10" markerHeight="10" orient="auto"><g transform="" style="fill: black; stroke-width: 2; stroke-linecap: round; stroke-dasharray: 10000, 1; stroke: rgb(33, 146, 255);"><rect x="1" y="1" width="18" height="18" rx="1" ry="1" style="fill: rgb(33, 146, 255);"/><path d="M12 0.8V5" transform="translate(-2, 5)" style="stroke-width: 2.3px; stroke-linecap: round; stroke: white;"/><circle cx="10" cy="14" r="0.21" style="fill: white; stroke: white;"/></g></marker><marker id="new-condition-flow-end-white-_FEA00F-0yvilwyx3uq4w8ycxavoy8fpq-left-to-right-left-to-right" viewBox="0 0 20 20" refX="21" refY="10" markerWidth="10" markerHeight="10" orient="auto"><circle cx="10" cy="10" r="9" style="fill: white; stroke-width: 2; stroke-linecap: round; stroke-dasharray: 10000, 1; stroke: rgb(254, 160, 15);"/></marker></defs><g class="djs-group"><g class="djs-element djs-connection" data-element-id="Relation_0cpyv0r" style="display: block;"><g class="djs-visual"><path d="m  500,150L500,100 L620,100 L620,0 " style="fill: none; stroke-width: 2px; stroke-linejoin: round; stroke: rgb(44, 168, 26); marker-start: url('#new-include-flow-start-_2CA81A-_2CA81A-0yvilwyx3uq4w8ycxavoy8fpq-bottom-to-top-bottom-to-top');"/></g><path d="M500,150L500,100L620,100L620,0" class="djs-hit djs-hit-stroke" style="fill: none; stroke-opacity: 0; stroke: white; stroke-width: 15px;"/><rect x="495" y="-5" rx="4" width="130" height="160" class="djs-outline" style="fill: none;"/></g></g><g class="djs-group"><g class="djs-element djs-connection" data-element-id="Relation_0r1jfm2" style="display: block;"><g class="djs-visual"><path d="m  675,0L675,150 " style="fill: none; stroke-width: 2px; stroke-linejoin: round; stroke: rgb(251, 24, 24); marker-start: url('#new-exclude-flow-start-_FB1818-_FB1818-0yvilwyx3uq4w8ycxavoy8fpq-top-to-bottom-top-to-bottom');"/></g><path d="M675,0L675,150" class="djs-hit djs-hit-stroke" style="fill: none; stroke-opacity: 0; stroke: white; stroke-width: 15px;"/><rect x="670" y="-5" rx="4" width="10" height="160" class="djs-outline" style="fill: none;"/></g></g><g class="djs-group"><g class="djs-element djs-connection" data-element-id="Relation_0668l1u" style="display: block;"><g class="djs-visual"><path d="m  700,150L700,0 " style="fill: none; stroke-width: 2px; stroke-linejoin: round; stroke: rgb(251, 24, 24); marker-start: url('#new-exclude-flow-start-_FB1818-_FB1818-0yvilwyx3uq4w8ycxavoy8fpq-bottom-to-top-bottom-to-top');"/></g><path d="M700,150L700,0" class="djs-hit djs-hit-stroke" style="fill: none; stroke-opacity: 0; stroke: white; stroke-width: 15px;"/><rect x="695" y="-5" rx="4" width="10" height="160" class="djs-outline" style="fill: none;"/></g></g><g class="djs-group"><g class="djs-element djs-connection" data-element-id="Relation_11c37ji" style="display: block;"><g class="djs-visual"><path d="m  630,150L630,80 L530,80 L530,0 " style="fill: none; stroke-width: 2px; stroke-linejoin: round; stroke: rgb(254, 160, 15); marker-end: url('#new-condition-flow-end-white-_FEA00F-0yvilwyx3uq4w8ycxavoy8fpq-bottom-to-top-bottom-to-top');"/></g><path d="M630,150L630,80L530,80L530,0" class="djs-hit djs-hit-stroke" style="fill: none; stroke-opacity: 0; stroke: white; stroke-width: 15px;"/><rect x="525" y="-5" rx="4" width="110" height="160" class="djs-outline" style="fill: none;"/></g></g><g class="djs-group"><g class="djs-element djs-connection" data-element-id="Relation_10wi3cn" style="display: block;"><g class="djs-visual"><path d="m  480,150L480,0 " style="fill: none; stroke-width: 2px; stroke-linejoin: round; stroke: rgb(254, 160, 15); marker-end: url('#new-condition-flow-end-white-_FEA00F-0yvilwyx3uq4w8ycxavoy8fpq-bottom-to-top-bottom-to-top');"/></g><path d="M480,150L480,0" class="djs-hit djs-hit-stroke" style="fill: none; stroke-opacity: 0; stroke: white; stroke-width: 15px;"/><rect x="475" y="-5" rx="4" width="10" height="160" class="djs-outline" style="fill: none;"/></g></g><g class="djs-group"><g class="djs-element djs-connection" data-element-id="Relation_1fy1cmg" style="display: block;"><g class="djs-visual"><path d="m  360,150L360,80 L430,80 L430,0 " style="fill: none; stroke-width: 2px; stroke-linejoin: round; stroke: rgb(254, 160, 15); marker-end: url('#new-condition-flow-end-white-_FEA00F-0yvilwyx3uq4w8ycxavoy8fpq-bottom-to-top-bottom-to-top');"/></g><path d="M360,150L360,80L430,80L430,0" class="djs-hit djs-hit-stroke" style="fill: none; stroke-opacity: 0; stroke: white; stroke-width: 15px;"/><rect x="355" y="-5" rx="4" width="80" height="160" class="djs-outline" style="fill: none;"/></g></g><g class="djs-group"><g class="djs-element djs-connection" data-element-id="Relation_1fs45hu" style="display: block;"><g class="djs-visual"><path d="m  610,-75L545,-75 " style="fill: none; stroke-width: 2px; stroke-linejoin: round; stroke: rgb(254, 160, 15); marker-end: url('#new-condition-flow-end-white-_FEA00F-0yvilwyx3uq4w8ycxavoy8fpq-right-to-left-right-to-left');"/></g><path d="M610,-75L545,-75" class="djs-hit djs-hit-stroke" style="fill: none; stroke-opacity: 0; stroke: white; stroke-width: 15px;"/><rect x="540" y="-80" rx="4" width="75" height="10" class="djs-outline" style="fill: none;"/></g></g><g class="djs-group"><g class="djs-element djs-connection" data-element-id="Relation_1tf80mg" style="display: block;"><g class="djs-visual"><path d="m  360,-40L415,-40 " style="fill: none; stroke-width: 2px; stroke-linejoin: round; stroke: rgb(33, 146, 255); marker-start: url('#new-response-flow-start-_2192FF-_2192FF-0yvilwyx3uq4w8ycxavoy8fpq-left-to-right-left-to-right');"/></g><path d="M360,-40L415,-40" class="djs-hit djs-hit-stroke" style="fill: none; stroke-opacity: 0; stroke: white; stroke-width: 15px;"/><rect x="355" y="-45" rx="4" width="65" height="10" class="djs-outline" style="fill: none;"/></g></g><g class="djs-group"><g class="djs-element djs-connection" data-element-id="Relation_0bmitn7" style="display: block;"><g class="djs-visual"><path d="m  360,-75L415,-75 " style="fill: none; stroke-width: 2px; stroke-linejoin: round; stroke: rgb(254, 160, 15); marker-end: url('#new-condition-flow-end-white-_FEA00F-0yvilwyx3uq4w8ycxavoy8fpq-left-to-right-left-to-right');"/></g><path d="M360,-75L415,-75" class="djs-hit djs-hit-stroke" style="fill: none; stroke-opacity: 0; stroke: white; stroke-width: 15px;"/><rect x="355" y="-80" rx="4" width="65" height="10" class="djs-outline" style="fill: none;"/></g></g><g class="djs-group"><g class="djs-element djs-shape" data-element-id="Event_18xy8vi" style="display: block;" transform="matrix(1 0 0 1 230 -150)"><g class="djs-visual"><rect x="0" y="0" width="130" height="150" rx="7" ry="7" style="fill: white; fill-opacity: 0.35; stroke: black; stroke-width: 2px;"/><path style="fill: none; stroke: black; stroke-width: 2px;" d="M0,30L130,30"/><text lineHeight="1.2" class="djs-label" style="font-family: 'IBM Plex', sans-serif; font-size: 16px; font-weight: normal;"><tspan x="40.6484375" y="19.8">Citizen</tspan></text><text lineHeight="1.2" class="djs-label" style="font-family: 'IBM Plex', sans-serif; font-size: 16px; font-weight: normal;"><tspan x="20.125" y="85.2">Has reached </tspan><tspan x="21.7734375" y="104.4">pension age</tspan></text><path d="m 15,50 c3.45,3.86,6.8,7.34,10.02,11.74c3.49,-7.2,7.07,-14.42,12.98,-22.25c0,0,-1.59,-0.75,-1.59,-0.75c-4.99,5.47,-8.86,10.65,-12.23,16.81c-2.34,-2.18,-6.13,-5.27,-8.44,-6.86c0,0,-0.74,1.31,-0.74,1.31z" data-marker="executed" style="fill: rgb(76, 175, 80); stroke-width: 1px; stroke: rgb(76, 175, 80);"/></g><rect class="djs-hit djs-hit-all" x="0" y="0" width="130" height="150" style="fill: none; stroke-opacity: 0; stroke: white; stroke-width: 15px;"/><rect x="-5" y="-5" rx="4" width="140" height="160" class="djs-outline" style="fill: none;"/></g></g><g class="djs-group"><g class="djs-element djs-shape" data-element-id="Event_0tc3bqe" style="display: block;" transform="matrix(1 0 0 1 415 -150)"><g class="djs-visual"><rect x="0" y="0" width="130" height="150" rx="7" ry="7" style="fill: white; fill-opacity: 0.35; stroke: black; stroke-width: 2px;"/><path style="fill: none; stroke: black; stroke-width: 2px;" d="M0,30L130,30"/><text lineHeight="1.2" class="djs-label" style="font-family: 'IBM Plex', sans-serif; font-size: 16px; font-weight: normal;"><tspan x="21.5" y="19.8">Municipality</tspan></text><text lineHeight="1.2" class="djs-label" style="font-family: 'IBM Plex', sans-serif; font-size: 16px; font-weight: normal;"><tspan x="21" y="85.2">Grant public </tspan><tspan x="36.5" y="104.4">pension</tspan></text><path d="m 6,60 c0,0,0,0,0,0c0,-1.79,1.34,-3.25,3,-3.25c1.66,0,3,1.46,3,3.25c0,0,0,0,0,0c0,1.8,-1.34,3.25,-3,3.25c-1.66,0,-3,-1.45,-3,-3.25c0,0,0,0,0,0zm0.29,-19.5c-0.01,-0.1,-0.01,-0.21,-0.01,-0.31c0,-1.62,1.21,-2.94,2.71,-2.94c1.5,0,2.72,1.32,2.72,2.94c0,0.1,-0.01,0.21,-0.02,0.31c0,0,-1.05,11.39,-1.05,11.39c-0.08,0.9,-0.79,1.61,-1.65,1.61c-0.85,0,-1.56,-0.71,-1.65,-1.61c0,0,-1.05,-11.39,-1.05,-11.39z" data-marker="pending" style="fill: rgb(3, 155, 229); stroke-width: 2px; stroke: rgb(3, 155, 229);"/></g><rect class="djs-hit djs-hit-all" x="0" y="0" width="130" height="150" style="fill: none; stroke-opacity: 0; stroke: white; stroke-width: 15px;"/><rect x="-5" y="-5" rx="4" width="140" height="160" class="djs-outline" style="fill: none;"/></g></g><g class="djs-group"><g class="djs-element djs-shape" data-element-id="Event_0cbmdxj" style="display: block;" transform="matrix(1 0 0 1 610 -150)"><g class="djs-visual"><rect x="0" y="0" width="130" height="150" rx="7" ry="7" style="fill: white; fill-opacity: 0.35; stroke: black; stroke-width: 2px; stroke-dasharray: 12, 5;"/><path style="fill: none; stroke: black; stroke-width: 2px; stroke-dasharray: 12, 5;" d="M0,30L130,30"/><text lineHeight="1.2" class="djs-label" style="font-family: 'IBM Plex', sans-serif; font-size: 16px; font-weight: normal;"><tspan x="40.6484375" y="19.8">Citizen</tspan></text><text lineHeight="1.2" class="djs-label" style="font-family: 'IBM Plex', sans-serif; font-size: 16px; font-weight: normal;"><tspan x="23.7734375" y="75.60000000000001">Has lived in </tspan><tspan x="6.7890625" y="94.80000000000001">Denmark for the </tspan><tspan x="23.875" y="114.00000000000001">last 8 years</tspan></text></g><rect class="djs-hit djs-hit-all" x="0" y="0" width="130" height="150" style="fill: none; stroke-opacity: 0; stroke: white; stroke-width: 15px;"/><rect x="-5" y="-5" rx="4" width="140" height="160" class="djs-outline" style="fill: none;"/></g></g><g class="djs-group"><g class="djs-element djs-shape" data-element-id="Event_13yrxob" style="display: block;" transform="matrix(1 0 0 1 250 150)"><g class="djs-visual"><rect x="0" y="0" width="130" height="150" rx="7" ry="7" style="fill: white; fill-opacity: 0.35; stroke: black; stroke-width: 2px;"/><path style="fill: none; stroke: black; stroke-width: 2px;" d="M0,30L130,30"/><text lineHeight="1.2" class="djs-label" style="font-family: 'IBM Plex', sans-serif; font-size: 16px; font-weight: normal;"><tspan x="40.6484375" y="19.8">Citizen</tspan></text><text lineHeight="1.2" class="djs-label" style="font-family: 'IBM Plex', sans-serif; font-size: 16px; font-weight: normal;"><tspan x="25.390625" y="85.2">Has danish </tspan><tspan x="26.515625" y="104.4">citizenship</tspan></text></g><rect class="djs-hit djs-hit-all" x="0" y="0" width="130" height="150" style="fill: none; stroke-opacity: 0; stroke: white; stroke-width: 15px;"/><rect x="-5" y="-5" rx="4" width="140" height="160" class="djs-outline" style="fill: none;"/></g></g><g class="djs-group"><g class="djs-element djs-shape" data-element-id="Event_1omcj5d" style="display: block;" transform="matrix(1 0 0 1 415 150)"><g class="djs-visual"><rect x="0" y="0" width="130" height="150" rx="7" ry="7" style="fill: white; fill-opacity: 0.35; stroke: black; stroke-width: 2px;"/><path style="fill: none; stroke: black; stroke-width: 2px;" d="M0,30L130,30"/><text lineHeight="1.2" class="djs-label" style="font-family: 'IBM Plex', sans-serif; font-size: 16px; font-weight: normal;"><tspan x="40.6484375" y="19.8">Citizen</tspan></text><text lineHeight="1.2" class="djs-label" style="font-family: 'IBM Plex', sans-serif; font-size: 16px; font-weight: normal;"><tspan x="38.3984375" y="85.2">Lives in </tspan><tspan x="32.28125" y="104.4">Denmark</tspan></text></g><rect class="djs-hit djs-hit-all" x="0" y="0" width="130" height="150" style="fill: none; stroke-opacity: 0; stroke: white; stroke-width: 15px;"/><rect x="-5" y="-5" rx="4" width="140" height="160" class="djs-outline" style="fill: none;"/></g></g><g class="djs-group"><g class="djs-element djs-shape" data-element-id="Event_05ru0on" style="display: block;" transform="matrix(1 0 0 1 610 150)"><g class="djs-visual"><rect x="0" y="0" width="130" height="150" rx="7" ry="7" style="fill: white; fill-opacity: 0.35; stroke: black; stroke-width: 2px;"/><path style="fill: none; stroke: black; stroke-width: 2px;" d="M0,30L130,30"/><text lineHeight="1.2" class="djs-label" style="font-family: 'IBM Plex', sans-serif; font-size: 16px; font-weight: normal;"><tspan x="40.6484375" y="19.8">Citizen</tspan></text><text lineHeight="1.2" class="djs-label" style="font-family: 'IBM Plex', sans-serif; font-size: 16px; font-weight: normal;"><tspan x="23.7734375" y="46.8">Has lived in </tspan><tspan x="11.453125" y="66">Denmark for at </tspan><tspan x="26.5859375" y="85.2">least three </tspan><tspan x="12.390625" y="104.4">years between </tspan><tspan x="9.671875" y="123.60000000000001">15 and pension </tspan><tspan x="52.15625" y="142.8">age</tspan></text></g><rect class="djs-hit djs-hit-all" x="0" y="0" width="130" height="150" style="fill: none; stroke-opacity: 0; stroke: white; stroke-width: 15px;"/><rect x="-5" y="-5" rx="4" width="140" height="160" class="djs-outline" style="fill: none;"/></g></g></svg>
