<?xml version="1.0" encoding="utf-8"?>
<!-- created with diagram-js -->
<!DOCTYPE svg PUBLIC "-//W3C//DTD SVG 1.1//EN" "http://www.w3.org/Graphics/SVG/1.1/DTD/svg11.dtd">
<svg xmlns="http://www.w3.org/2000/svg" xmlns:xlink="http://www.w3.org/1999/xlink" width="1420" height="750" viewBox="255 -235 1420 750" version="1.1"><defs><marker id="proposed-condition-flow-end-white-_FEA00F-4rwgd2xm18tnus8hqoxws8asg-top-to-bottom-left-to-right" viewBox="0 0 20 20" refX="20.65" refY="10" markerWidth="10" markerHeight="10" orient="auto"><g transform="" style="fill: white; stroke-width: 1px; stroke-linecap: round; stroke-dasharray: 10000, 1;"><circle cx="10" cy="10" r="9" style="fill: white; stroke: rgb(254, 160, 15); stroke-width: 2px;"/><circle cx="6.5" cy="10" r="2.1" style="stroke: rgb(254, 160, 15); stroke-width: 2px;"/><path d="M9.5 10H12.5M15.5 12.5V10H12.5M12.5 10V12.5" style="stroke: rgb(254, 160, 15); stroke-width: 2px; stroke-linecap: round; stroke-linejoin: round;"/></g></marker><marker id="proposed-condition-flow-start-_FEA00F-_FEA00F-4rwgd2xm18tnus8hqoxws8asg-undefined-undefined" viewBox="0 0 20 20" refX="0" refY="7.22" markerWidth="10" markerHeight="10" orient="auto"><path d="M0 24V0L24 12L0 24Z" transform="scale(0.6)" style="fill: rgb(254, 160, 15); stroke-width: 1px; stroke-linecap: round; stroke-dasharray: 10000, 1; stroke: rgb(254, 160, 15);"/></marker><marker id="proposed-response-flow-start-_2192FF-_2192FF-4rwgd2xm18tnus8hqoxws8asg-undefined-undefined" viewBox="0 0 20 20" refX="0" refY="7.22" markerWidth="10" markerHeight="10" orient="auto"><path d="M0 24V0L24 12L0 24Z" transform="scale(0.6)" style="fill: rgb(33, 146, 255); stroke-width: 1px; stroke-linecap: round; stroke-dasharray: 10000, 1; stroke: rgb(33, 146, 255);"/></marker><marker id="proposed-response-flow-end-white-_2192FF-4rwgd2xm18tnus8hqoxws8asg-left-to-right-left-to-right" viewBox="0 0 20 20" refX="21" refY="10" markerWidth="10" markerHeight="10" orient="auto"><g transform="" style="fill: white; stroke-width: 2; stroke-linecap: round; stroke-dasharray: 10000, 1; stroke: rgb(33, 146, 255);"><circle cx="10" cy="10" r="9"/><path d="M12 0.8V5" transform="translate(-2, 5)" style="stroke-width: 2.3px; stroke-linecap: round;"/><circle cx="10" cy="14" r="0.21"/></g></marker><marker id="proposed-condition-flow-end-white-_FEA00F-4rwgd2xm18tnus8hqoxws8asg-left-to-right-left-to-right" viewBox="0 0 20 20" refX="20.65" refY="10" markerWidth="10" markerHeight="10" orient="auto"><g transform="" style="fill: white; stroke-width: 1px; stroke-linecap: round; stroke-dasharray: 10000, 1;"><circle cx="10" cy="10" r="9" style="fill: white; stroke: rgb(254, 160, 15); stroke-width: 2px;"/><circle cx="6.5" cy="10" r="2.1" style="stroke: rgb(254, 160, 15); stroke-width: 2px;"/><path d="M9.5 10H12.5M15.5 12.5V10H12.5M12.5 10V12.5" style="stroke: rgb(254, 160, 15); stroke-width: 2px; stroke-linecap: round; stroke-linejoin: round;"/></g></marker><marker id="proposed-response-flow-end-white-_2192FF-4rwgd2xm18tnus8hqoxws8asg-top-to-bottom-left-to-right" viewBox="0 0 20 20" refX="21" refY="10" markerWidth="10" markerHeight="10" orient="auto"><g transform="" style="fill: white; stroke-width: 2; stroke-linecap: round; stroke-dasharray: 10000, 1; stroke: rgb(33, 146, 255);"><circle cx="10" cy="10" r="9"/><path d="M12 0.8V5" transform="translate(-2, 5)" style="stroke-width: 2.3px; stroke-linecap: round;"/><circle cx="10" cy="14" r="0.21"/></g></marker><marker id="proposed-milestone-flow-end-white-_A932D0-4rwgd2xm18tnus8hqoxws8asg-bottom-to-top-bottom-to-top" viewBox="0 0 20 20" refX="20.65" refY="10" markerWidth="10" markerHeight="10" orient="auto"><g transform="rotate(90, 10, 10)" style="fill: white; stroke-width: 1px; stroke-linecap: round; stroke-dasharray: 10000, 1;"><circle cx="10" cy="10" r="9" style="fill: white; stroke: rgb(169, 50, 208); stroke-width: 2px;"/><circle cx="6.5" cy="10" r="2.1" style="stroke: rgb(169, 50, 208); stroke-width: 2px;"/><path d="M9.5 10H12.5M15.5 12.5V10H12.5M12.5 10V12.5" style="stroke: rgb(169, 50, 208); stroke-width: 2px; stroke-linecap: round; stroke-linejoin: round;"/></g></marker><marker id="proposed-milestone-flow-start-white-_A932D0-4rwgd2xm18tnus8hqoxws8asg-bottom-to-top-bottom-to-top" viewBox="0 0 20 20" refX="1.5" refY="4.7" markerWidth="20" markerHeight="20" orient="auto"><g style="fill: white; stroke-width: 1px; stroke-linecap: round; stroke-dasharray: 10000, 1; stroke: rgb(169, 50, 208);"><path d="M3,1 l17,8.5 l-17,8.5 z" transform="scale(0.5)" style="stroke-width: 2;"/><g transform="translate(-10.5, 1.8) rotate(90, 10, 10)"><path d="M3 2.7V4.8" style="stroke-width: 1px; stroke-linecap: round;"/><circle cx="3" cy="6.5" r="0.1"/></g></g></marker><marker id="proposed-condition-flow-end-white-_FEA00F-4rwgd2xm18tnus8hqoxws8asg-top-to-bottom-top-to-bottom" viewBox="0 0 20 20" refX="20.65" refY="10" markerWidth="10" markerHeight="10" orient="auto"><g transform="rotate(270, 10, 10)" style="fill: white; stroke-width: 1px; stroke-linecap: round; stroke-dasharray: 10000, 1;"><circle cx="10" cy="10" r="9" style="fill: white; stroke: rgb(254, 160, 15); stroke-width: 2px;"/><circle cx="6.5" cy="10" r="2.1" style="stroke: rgb(254, 160, 15); stroke-width: 2px;"/><path d="M9.5 10H12.5M15.5 12.5V10H12.5M12.5 10V12.5" style="stroke: rgb(254, 160, 15); stroke-width: 2px; stroke-linecap: round; stroke-linejoin: round;"/></g></marker><marker id="proposed-condition-flow-end-white-_FEA00F-4rwgd2xm18tnus8hqoxws8asg-right-to-left-top-to-bottom" viewBox="0 0 20 20" refX="20.65" refY="10" markerWidth="10" markerHeight="10" orient="auto"><g transform="rotate(270, 10, 10)" style="fill: white; stroke-width: 1px; stroke-linecap: round; stroke-dasharray: 10000, 1;"><circle cx="10" cy="10" r="9" style="fill: white; stroke: rgb(254, 160, 15); stroke-width: 2px;"/><circle cx="6.5" cy="10" r="2.1" style="stroke: rgb(254, 160, 15); stroke-width: 2px;"/><path d="M9.5 10H12.5M15.5 12.5V10H12.5M12.5 10V12.5" style="stroke: rgb(254, 160, 15); stroke-width: 2px; stroke-linecap: round; stroke-linejoin: round;"/></g></marker><marker id="proposed-condition-flow-end-white-_FEA00F-4rwgd2xm18tnus8hqoxws8asg-left-to-right-top-to-bottom" viewBox="0 0 20 20" refX="20.65" refY="10" markerWidth="10" markerHeight="10" orient="auto"><g transform="rotate(270, 10, 10)" style="fill: white; stroke-width: 1px; stroke-linecap: round; stroke-dasharray: 10000, 1;"><circle cx="10" cy="10" r="9" style="fill: white; stroke: rgb(254, 160, 15); stroke-width: 2px;"/><circle cx="6.5" cy="10" r="2.1" style="stroke: rgb(254, 160, 15); stroke-width: 2px;"/><path d="M9.5 10H12.5M15.5 12.5V10H12.5M12.5 10V12.5" style="stroke: rgb(254, 160, 15); stroke-width: 2px; stroke-linecap: round; stroke-linejoin: round;"/></g></marker><marker id="proposed-condition-flow-end-white-_FEA00F-4rwgd2xm18tnus8hqoxws8asg-right-to-left-right-to-left" viewBox="0 0 20 20" refX="20.65" refY="10" markerWidth="10" markerHeight="10" orient="auto"><g transform="rotate(180, 10, 10)" style="fill: white; stroke-width: 1px; stroke-linecap: round; stroke-dasharray: 10000, 1;"><circle cx="10" cy="10" r="9" style="fill: white; stroke: rgb(254, 160, 15); stroke-width: 2px;"/><circle cx="6.5" cy="10" r="2.1" style="stroke: rgb(254, 160, 15); stroke-width: 2px;"/><path d="M9.5 10H12.5M15.5 12.5V10H12.5M12.5 10V12.5" style="stroke: rgb(254, 160, 15); stroke-width: 2px; stroke-linecap: round; stroke-linejoin: round;"/></g></marker><marker id="proposed-condition-flow-end-white-_FEA00F-4rwgd2xm18tnus8hqoxws8asg-right-to-left-left-to-right" viewBox="0 0 20 20" refX="20.65" refY="10" markerWidth="10" markerHeight="10" orient="auto"><g transform="" style="fill: white; stroke-width: 1px; stroke-linecap: round; stroke-dasharray: 10000, 1;"><circle cx="10" cy="10" r="9" style="fill: white; stroke: rgb(254, 160, 15); stroke-width: 2px;"/><circle cx="6.5" cy="10" r="2.1" style="stroke: rgb(254, 160, 15); stroke-width: 2px;"/><path d="M9.5 10H12.5M15.5 12.5V10H12.5M12.5 10V12.5" style="stroke: rgb(254, 160, 15); stroke-width: 2px; stroke-linecap: round; stroke-linejoin: round;"/></g></marker><marker id="proposed-condition-flow-end-white-_FEA00F-4rwgd2xm18tnus8hqoxws8asg-left-to-right-right-to-left" viewBox="0 0 20 20" refX="20.65" refY="10" markerWidth="10" markerHeight="10" orient="auto"><g transform="rotate(180, 10, 10)" style="fill: white; stroke-width: 1px; stroke-linecap: round; stroke-dasharray: 10000, 1;"><circle cx="10" cy="10" r="9" style="fill: white; stroke: rgb(254, 160, 15); stroke-width: 2px;"/><circle cx="6.5" cy="10" r="2.1" style="stroke: rgb(254, 160, 15); stroke-width: 2px;"/><path d="M9.5 10H12.5M15.5 12.5V10H12.5M12.5 10V12.5" style="stroke: rgb(254, 160, 15); stroke-width: 2px; stroke-linecap: round; stroke-linejoin: round;"/></g></marker><marker id="proposed-response-flow-end-white-_2192FF-4rwgd2xm18tnus8hqoxws8asg-left-to-right-right-to-left" viewBox="0 0 20 20" refX="21" refY="10" markerWidth="10" markerHeight="10" orient="auto"><g transform="rotate(180, 10, 10)" style="fill: white; stroke-width: 2; stroke-linecap: round; stroke-dasharray: 10000, 1; stroke: rgb(33, 146, 255);"><circle cx="10" cy="10" r="9"/><path d="M12 0.8V5" transform="translate(-2, 5)" style="stroke-width: 2.3px; stroke-linecap: round;"/><circle cx="10" cy="14" r="0.21"/></g></marker><marker id="proposed-response-flow-end-white-_2192FF-4rwgd2xm18tnus8hqoxws8asg-left-to-right-top-to-bottom" viewBox="0 0 20 20" refX="21" refY="10" markerWidth="10" markerHeight="10" orient="auto"><g transform="rotate(270, 10, 10)" style="fill: white; stroke-width: 2; stroke-linecap: round; stroke-dasharray: 10000, 1; stroke: rgb(33, 146, 255);"><circle cx="10" cy="10" r="9"/><path d="M12 0.8V5" transform="translate(-2, 5)" style="stroke-width: 2.3px; stroke-linecap: round;"/><circle cx="10" cy="14" r="0.21"/></g></marker><marker id="proposed-response-flow-end-white-_2192FF-4rwgd2xm18tnus8hqoxws8asg-top-to-bottom-right-to-left" viewBox="0 0 20 20" refX="21" refY="10" markerWidth="10" markerHeight="10" orient="auto"><g transform="rotate(180, 10, 10)" style="fill: white; stroke-width: 2; stroke-linecap: round; stroke-dasharray: 10000, 1; stroke: rgb(33, 146, 255);"><circle cx="10" cy="10" r="9"/><path d="M12 0.8V5" transform="translate(-2, 5)" style="stroke-width: 2.3px; stroke-linecap: round;"/><circle cx="10" cy="14" r="0.21"/></g></marker><marker id="proposed-response-flow-end-white-_2192FF-4rwgd2xm18tnus8hqoxws8asg-right-to-left-right-to-left" viewBox="0 0 20 20" refX="21" refY="10" markerWidth="10" markerHeight="10" orient="auto"><g transform="rotate(180, 10, 10)" style="fill: white; stroke-width: 2; stroke-linecap: round; stroke-dasharray: 10000, 1; stroke: rgb(33, 146, 255);"><circle cx="10" cy="10" r="9"/><path d="M12 0.8V5" transform="translate(-2, 5)" style="stroke-width: 2.3px; stroke-linecap: round;"/><circle cx="10" cy="14" r="0.21"/></g></marker><marker id="proposed-response-flow-end-white-_2192FF-4rwgd2xm18tnus8hqoxws8asg-right-to-left-top-to-bottom" viewBox="0 0 20 20" refX="21" refY="10" markerWidth="10" markerHeight="10" orient="auto"><g transform="rotate(270, 10, 10)" style="fill: white; stroke-width: 2; stroke-linecap: round; stroke-dasharray: 10000, 1; stroke: rgb(33, 146, 255);"><circle cx="10" cy="10" r="9"/><path d="M12 0.8V5" transform="translate(-2, 5)" style="stroke-width: 2.3px; stroke-linecap: round;"/><circle cx="10" cy="14" r="0.21"/></g></marker><marker id="proposed-response-flow-end-white-_2192FF-4rwgd2xm18tnus8hqoxws8asg-top-to-bottom-top-to-bottom" viewBox="0 0 20 20" refX="21" refY="10" markerWidth="10" markerHeight="10" orient="auto"><g transform="rotate(270, 10, 10)" style="fill: white; stroke-width: 2; stroke-linecap: round; stroke-dasharray: 10000, 1; stroke: rgb(33, 146, 255);"><circle cx="10" cy="10" r="9"/><path d="M12 0.8V5" transform="translate(-2, 5)" style="stroke-width: 2.3px; stroke-linecap: round;"/><circle cx="10" cy="14" r="0.21"/></g></marker></defs><g class="djs-group"><g class="djs-element djs-shape" data-element-id="Nesting_0chkp2q" style="display: block;" transform="matrix(1 0 0 1 260 -25)"><g class="djs-visual"><rect x="0" y="0" width="730" height="300" rx="7" ry="7" style="fill: white; fill-opacity: 0.35; stroke: black; stroke-width: 2px;"/><path style="fill: none; stroke: black; stroke-width: 2px;" d="M0,30L730,30"/><text lineHeight="1.2" class="djs-label" style="font-family: 'IBM Plex', sans-serif; font-size: 16px; font-weight: normal;"><tspan x="337.53125" y="19.8">Nesting</tspan></text><path d="m 715,295 l -2.25 0 l 0 -13 l 2.175 0 l 0 2.175 q 0.7 -0.95, 1.788 -1.762 a 4.329 4.329 0 0 1 1.776 -0.656 a 5.657 5.657 0 0 1 0.811, -0.056 a 5.806 5.806 0 0 1 1.266 0.13 q 0.836 0.186 1.445 0.643 a 3.315, 3.315 0 0 1 0.576 0.552 a 4.601 4.601 0 0 1 0.902 1.845 q 0.163 0.66 0.183, 1.432 a 8.441 8.441 0 0 1 0.003 0.223 l 0 8.475 l -2.25 0 l 0 -8.225 q 0, -1.148 -0.445 -1.926 a 2.741 2.741 0 0 0 -0.217 -0.324 a 2.145 2.145 0 0 0, -1.57 -0.838 a 3.015 3.015 0 0 0 -0.268 -0.012 a 3.28 3.28 0 0 0 -1.712 0.491, a 4.338 4.338 0 0 0 -0.463 0.322 q -1.025 0.812 -1.75 1.912 l 0 8.6 Z" data-marker="nesting" style="fill: grey; stroke-width: 1px; stroke: grey;"/></g><rect class="djs-hit djs-hit-all" x="0" y="0" width="730" height="300" style="fill: none; stroke-opacity: 0; stroke: white; stroke-width: 15px;"/><rect x="-5" y="-5" rx="4" width="740" height="310" class="djs-outline" style="fill: none;"/></g><g class="djs-children"><g class="djs-group"><g class="djs-element djs-shape" data-element-id="Event_1sfcuyh" style="display: block;" transform="matrix(1 0 0 1 310 65)"><g class="djs-visual"><rect x="0" y="0" width="130" height="150" rx="7" ry="7" style="fill: white; fill-opacity: 0.35; stroke: black; stroke-width: 2px;"/><path style="fill: none; stroke: black; stroke-width: 2px;" d="M0,30L130,30"/><text lineHeight="1.2" class="djs-label" style="font-family: 'IBM Plex', sans-serif; font-size: 16px; font-weight: normal;"><tspan x="65" y="19.8"/></text><text lineHeight="1.2" class="djs-label" style="font-family: 'IBM Plex', sans-serif; font-size: 16px; font-weight: normal;"><tspan x="59.7734375" y="94.80000000000001">B</tspan></text></g><rect class="djs-hit djs-hit-all" x="0" y="0" width="130" height="150" style="fill: none; stroke-opacity: 0; stroke: white; stroke-width: 15px;"/><rect x="-5" y="-5" rx="4" width="140" height="160" class="djs-outline" style="fill: none;"/></g></g><g class="djs-group"><g class="djs-element djs-shape" data-element-id="Event_0afs5u7" style="display: block;" transform="matrix(1 0 0 1 530 65)"><g class="djs-visual"><rect x="0" y="0" width="130" height="150" rx="7" ry="7" style="fill: white; fill-opacity: 0.35; stroke: black; stroke-width: 2px;"/><path style="fill: none; stroke: black; stroke-width: 2px;" d="M0,30L130,30"/><text lineHeight="1.2" class="djs-label" style="font-family: 'IBM Plex', sans-serif; font-size: 16px; font-weight: normal;"><tspan x="65" y="19.8"/></text><text lineHeight="1.2" class="djs-label" style="font-family: 'IBM Plex', sans-serif; font-size: 16px; font-weight: normal;"><tspan x="60.03125" y="94.80000000000001">C</tspan></text></g><rect class="djs-hit djs-hit-all" x="0" y="0" width="130" height="150" style="fill: none; stroke-opacity: 0; stroke: white; stroke-width: 15px;"/><rect x="-5" y="-5" rx="4" width="140" height="160" class="djs-outline" style="fill: none;"/></g></g><g class="djs-group"><g class="djs-element djs-shape" data-element-id="Event_11so7ph" style="display: block;" transform="matrix(1 0 0 1 780 65)"><g class="djs-visual"><rect x="0" y="0" width="130" height="150" rx="7" ry="7" style="fill: white; fill-opacity: 0.35; stroke: black; stroke-width: 2px;"/><path style="fill: none; stroke: black; stroke-width: 2px;" d="M0,30L130,30"/><text lineHeight="1.2" class="djs-label" style="font-family: 'IBM Plex', sans-serif; font-size: 16px; font-weight: normal;"><tspan x="65" y="19.8"/></text><text lineHeight="1.2" class="djs-label" style="font-family: 'IBM Plex', sans-serif; font-size: 16px; font-weight: normal;"><tspan x="59.625" y="94.80000000000001">D</tspan></text></g><rect class="djs-hit djs-hit-all" x="0" y="0" width="130" height="150" style="fill: none; stroke-opacity: 0; stroke: white; stroke-width: 15px;"/><rect x="-5" y="-5" rx="4" width="140" height="160" class="djs-outline" style="fill: none;"/></g></g></g></g><g class="djs-group"><g class="djs-element djs-connection" data-element-id="Relation_12g08f1" style="display: block;"><g class="djs-visual"><path d="m  595,-80L595,-25 " style="fill: none; stroke-width: 2px; stroke-linejoin: round; stroke: rgb(254, 160, 15); marker-end: url('#proposed-condition-flow-end-white-_FEA00F-4rwgd2xm18tnus8hqoxws8asg-top-to-bottom-top-to-bottom'); marker-start: url('#proposed-condition-flow-start-_FEA00F-_FEA00F-4rwgd2xm18tnus8hqoxws8asg-undefined-undefined');"/></g><path d="M595,-80L595,-25" class="djs-hit djs-hit-stroke" style="fill: none; stroke-opacity: 0; stroke: white; stroke-width: 15px;"/><rect x="590" y="-85" rx="4" width="10" height="65" class="djs-outline" style="fill: none;"/></g></g><g class="djs-group"><g class="djs-element djs-connection" data-element-id="Relation_18dtff7" style="display: block;"><g class="djs-visual"><path d="m  605,275L605,360 " style="fill: none; stroke-width: 2px; stroke-linejoin: round; stroke: rgb(33, 146, 255); marker-start: url('#proposed-response-flow-start-_2192FF-_2192FF-4rwgd2xm18tnus8hqoxws8asg-undefined-undefined'); marker-end: url('#proposed-response-flow-end-white-_2192FF-4rwgd2xm18tnus8hqoxws8asg-top-to-bottom-top-to-bottom');"/></g><path d="M605,275L605,360" class="djs-hit djs-hit-stroke" style="fill: none; stroke-opacity: 0; stroke: white; stroke-width: 15px;"/><rect x="600" y="270" rx="4" width="10" height="95" class="djs-outline" style="fill: none;"/></g></g><g class="djs-group"><g class="djs-element djs-connection" data-element-id="Relation_0rby8uv" style="display: block;"><g class="djs-visual"><path d="m  660,140L780,140 " style="fill: none; stroke-width: 2px; stroke-linejoin: round; stroke: rgb(254, 160, 15); marker-end: url('#proposed-condition-flow-end-white-_FEA00F-4rwgd2xm18tnus8hqoxws8asg-left-to-right-left-to-right'); marker-start: url('#proposed-condition-flow-start-_FEA00F-_FEA00F-4rwgd2xm18tnus8hqoxws8asg-undefined-undefined');"/></g><path d="M660,140L780,140" class="djs-hit djs-hit-stroke" style="fill: none; stroke-opacity: 0; stroke: white; stroke-width: 15px;"/><rect x="655" y="135" rx="4" width="130" height="10" class="djs-outline" style="fill: none;"/></g></g><g class="djs-group"><g class="djs-element djs-connection" data-element-id="Relation_14e5t0q" style="display: block;"><g class="djs-visual"><path d="m  1320,-85L1175,-85 L1175,70 " style="fill: none; stroke-width: 2px; stroke-linejoin: round; stroke: rgb(254, 160, 15); marker-end: url('#proposed-condition-flow-end-white-_FEA00F-4rwgd2xm18tnus8hqoxws8asg-right-to-left-top-to-bottom'); marker-start: url('#proposed-condition-flow-start-_FEA00F-_FEA00F-4rwgd2xm18tnus8hqoxws8asg-undefined-undefined');"/></g><path d="M1320,-85L1175,-85L1175,70" class="djs-hit djs-hit-stroke" style="fill: none; stroke-opacity: 0; stroke: white; stroke-width: 15px;"/><rect x="1170" y="-90" rx="4" width="155" height="165" class="djs-outline" style="fill: none;"/></g></g><g class="djs-group"><g class="djs-element djs-connection" data-element-id="Relation_1ajrwo7" style="display: block;"><g class="djs-visual"><path d="m  1385,-10L1385,70 " style="fill: none; stroke-width: 2px; stroke-linejoin: round; stroke: rgb(254, 160, 15); marker-end: url('#proposed-condition-flow-end-white-_FEA00F-4rwgd2xm18tnus8hqoxws8asg-top-to-bottom-top-to-bottom'); marker-start: url('#proposed-condition-flow-start-_FEA00F-_FEA00F-4rwgd2xm18tnus8hqoxws8asg-undefined-undefined');"/></g><path d="M1385,-10L1385,70" class="djs-hit djs-hit-stroke" style="fill: none; stroke-opacity: 0; stroke: white; stroke-width: 15px;"/><rect x="1380" y="-15" rx="4" width="10" height="90" class="djs-outline" style="fill: none;"/></g></g><g class="djs-group"><g class="djs-element djs-connection" data-element-id="Relation_0cwp63o" style="display: block;"><g class="djs-visual"><path d="m  1450,-85L1605,-85 L1605,70 " style="fill: none; stroke-width: 2px; stroke-linejoin: round; stroke: rgb(254, 160, 15); marker-end: url('#proposed-condition-flow-end-white-_FEA00F-4rwgd2xm18tnus8hqoxws8asg-left-to-right-top-to-bottom'); marker-start: url('#proposed-condition-flow-start-_FEA00F-_FEA00F-4rwgd2xm18tnus8hqoxws8asg-undefined-undefined');"/></g><path d="M1450,-85L1605,-85L1605,70" class="djs-hit djs-hit-stroke" style="fill: none; stroke-opacity: 0; stroke: white; stroke-width: 15px;"/><rect x="1445" y="-90" rx="4" width="165" height="165" class="djs-outline" style="fill: none;"/></g></g><g class="djs-group"><g class="djs-element djs-connection" data-element-id="Relation_0k9nvv9" style="display: block;"><g class="djs-visual"><path d="m  1605,220L1605,335 L1450,335 " style="fill: none; stroke-width: 2px; stroke-linejoin: round; stroke: rgb(33, 146, 255); marker-start: url('#proposed-response-flow-start-_2192FF-_2192FF-4rwgd2xm18tnus8hqoxws8asg-undefined-undefined'); marker-end: url('#proposed-response-flow-end-white-_2192FF-4rwgd2xm18tnus8hqoxws8asg-top-to-bottom-right-to-left');"/></g><path d="M1605,220L1605,335L1450,335" class="djs-hit djs-hit-stroke" style="fill: none; stroke-opacity: 0; stroke: white; stroke-width: 15px;"/><rect x="1445" y="215" rx="4" width="165" height="125" class="djs-outline" style="fill: none;"/></g></g><g class="djs-group"><g class="djs-element djs-connection" data-element-id="Relation_06vgk20" style="display: block;"><g class="djs-visual"><path d="m  1375,220L1375,260 " style="fill: none; stroke-width: 2px; stroke-linejoin: round; stroke: rgb(33, 146, 255); marker-start: url('#proposed-response-flow-start-_2192FF-_2192FF-4rwgd2xm18tnus8hqoxws8asg-undefined-undefined'); marker-end: url('#proposed-response-flow-end-white-_2192FF-4rwgd2xm18tnus8hqoxws8asg-top-to-bottom-top-to-bottom');"/></g><path d="M1375,220L1375,260" class="djs-hit djs-hit-stroke" style="fill: none; stroke-opacity: 0; stroke: white; stroke-width: 15px;"/><rect x="1370" y="215" rx="4" width="10" height="50" class="djs-outline" style="fill: none;"/></g></g><g class="djs-group"><g class="djs-element djs-connection" data-element-id="Relation_14d7op5" style="display: block;"><g class="djs-visual"><path d="m  1175,220L1175,335 L1320,335 " style="fill: none; stroke-width: 2px; stroke-linejoin: round; stroke: rgb(33, 146, 255); marker-start: url('#proposed-response-flow-start-_2192FF-_2192FF-4rwgd2xm18tnus8hqoxws8asg-undefined-undefined'); marker-end: url('#proposed-response-flow-end-white-_2192FF-4rwgd2xm18tnus8hqoxws8asg-top-to-bottom-left-to-right');"/></g><path d="M1175,220L1175,335L1320,335" class="djs-hit djs-hit-stroke" style="fill: none; stroke-opacity: 0; stroke: white; stroke-width: 15px;"/><rect x="1170" y="215" rx="4" width="155" height="125" class="djs-outline" style="fill: none;"/></g></g><g class="djs-group"><g class="djs-element djs-connection" data-element-id="Relation_1cbu6yg" style="display: block;"><g class="djs-visual"><path d="m  1440,145L1540,145 " style="fill: none; stroke-width: 2px; stroke-linejoin: round; stroke: rgb(254, 160, 15); marker-end: url('#proposed-condition-flow-end-white-_FEA00F-4rwgd2xm18tnus8hqoxws8asg-left-to-right-left-to-right'); marker-start: url('#proposed-condition-flow-start-_FEA00F-_FEA00F-4rwgd2xm18tnus8hqoxws8asg-undefined-undefined');"/></g><path d="M1440,145L1540,145" class="djs-hit djs-hit-stroke" style="fill: none; stroke-opacity: 0; stroke: white; stroke-width: 15px;"/><rect x="1435" y="140" rx="4" width="110" height="10" class="djs-outline" style="fill: none;"/></g></g><g class="djs-group"><g class="djs-element djs-shape" data-element-id="Event_0bt2eht" style="display: block;" transform="matrix(1 0 0 1 530 -230)"><g class="djs-visual"><rect x="0" y="0" width="130" height="150" rx="7" ry="7" style="fill: white; fill-opacity: 0.35; stroke: black; stroke-width: 2px;"/><path style="fill: none; stroke: black; stroke-width: 2px;" d="M0,30L130,30"/><text lineHeight="1.2" class="djs-label" style="font-family: 'IBM Plex', sans-serif; font-size: 16px; font-weight: normal;"><tspan x="65" y="19.8"/></text><text lineHeight="1.2" class="djs-label" style="font-family: 'IBM Plex', sans-serif; font-size: 16px; font-weight: normal;"><tspan x="59.8671875" y="94.80000000000001">A</tspan></text></g><rect class="djs-hit djs-hit-all" x="0" y="0" width="130" height="150" style="fill: none; stroke-opacity: 0; stroke: white; stroke-width: 15px;"/><rect x="-5" y="-5" rx="4" width="140" height="160" class="djs-outline" style="fill: none;"/></g></g><g class="djs-group"><g class="djs-element djs-shape" data-element-id="Event_17h6kam" style="display: block;" transform="matrix(1 0 0 1 540 360)"><g class="djs-visual"><rect x="0" y="0" width="130" height="150" rx="7" ry="7" style="fill: white; fill-opacity: 0.35; stroke: black; stroke-width: 2px;"/><path style="fill: none; stroke: black; stroke-width: 2px;" d="M0,30L130,30"/><text lineHeight="1.2" class="djs-label" style="font-family: 'IBM Plex', sans-serif; font-size: 16px; font-weight: normal;"><tspan x="65" y="19.8"/></text><text lineHeight="1.2" class="djs-label" style="font-family: 'IBM Plex', sans-serif; font-size: 16px; font-weight: normal;"><tspan x="60.3359375" y="94.80000000000001">E</tspan></text></g><rect class="djs-hit djs-hit-all" x="0" y="0" width="130" height="150" style="fill: none; stroke-opacity: 0; stroke: white; stroke-width: 15px;"/><rect x="-5" y="-5" rx="4" width="140" height="160" class="djs-outline" style="fill: none;"/></g></g><g class="djs-group"><g class="djs-element djs-shape" data-element-id="Event_0d9vg29" style="display: block;" transform="matrix(1 0 0 1 1320 -160)"><g class="djs-visual"><rect x="0" y="0" width="130" height="150" rx="7" ry="7" style="fill: white; fill-opacity: 0.35; stroke: black; stroke-width: 2px;"/><path style="fill: none; stroke: black; stroke-width: 2px;" d="M0,30L130,30"/><text lineHeight="1.2" class="djs-label" style="font-family: 'IBM Plex', sans-serif; font-size: 16px; font-weight: normal;"><tspan x="65" y="19.8"/></text><text lineHeight="1.2" class="djs-label" style="font-family: 'IBM Plex', sans-serif; font-size: 16px; font-weight: normal;"><tspan x="59.8671875" y="94.80000000000001">A</tspan></text></g><rect class="djs-hit djs-hit-all" x="0" y="0" width="130" height="150" style="fill: none; stroke-opacity: 0; stroke: white; stroke-width: 15px;"/><rect x="-5" y="-5" rx="4" width="140" height="160" class="djs-outline" style="fill: none;"/></g></g><g class="djs-group"><g class="djs-element djs-shape" data-element-id="Event_0drr7h3" style="display: block;" transform="matrix(1 0 0 1 1320 260)"><g class="djs-visual"><rect x="0" y="0" width="130" height="150" rx="7" ry="7" style="fill: white; fill-opacity: 0.35; stroke: black; stroke-width: 2px;"/><path style="fill: none; stroke: black; stroke-width: 2px;" d="M0,30L130,30"/><text lineHeight="1.2" class="djs-label" style="font-family: 'IBM Plex', sans-serif; font-size: 16px; font-weight: normal;"><tspan x="65" y="19.8"/></text><text lineHeight="1.2" class="djs-label" style="font-family: 'IBM Plex', sans-serif; font-size: 16px; font-weight: normal;"><tspan x="60.3359375" y="94.80000000000001">E</tspan></text></g><rect class="djs-hit djs-hit-all" x="0" y="0" width="130" height="150" style="fill: none; stroke-opacity: 0; stroke: white; stroke-width: 15px;"/><rect x="-5" y="-5" rx="4" width="140" height="160" class="djs-outline" style="fill: none;"/></g></g><g class="djs-group"><g class="djs-element djs-shape" data-element-id="Event_0uip4wj" style="display: block;" transform="matrix(1 0 0 1 1540 70)"><g class="djs-visual"><rect x="0" y="0" width="130" height="150" rx="7" ry="7" style="fill: white; fill-opacity: 0.35; stroke: black; stroke-width: 2px;"/><path style="fill: none; stroke: black; stroke-width: 2px;" d="M0,30L130,30"/><text lineHeight="1.2" class="djs-label" style="font-family: 'IBM Plex', sans-serif; font-size: 16px; font-weight: normal;"><tspan x="65" y="19.8"/></text><text lineHeight="1.2" class="djs-label" style="font-family: 'IBM Plex', sans-serif; font-size: 16px; font-weight: normal;"><tspan x="59.625" y="94.80000000000001">D</tspan></text></g><rect class="djs-hit djs-hit-all" x="0" y="0" width="130" height="150" style="fill: none; stroke-opacity: 0; stroke: white; stroke-width: 15px;"/><rect x="-5" y="-5" rx="4" width="140" height="160" class="djs-outline" style="fill: none;"/></g></g><g class="djs-group"><g class="djs-element djs-shape" data-element-id="Event_1v03bic" style="display: block;" transform="matrix(1 0 0 1 1310 70)"><g class="djs-visual"><rect x="0" y="0" width="130" height="150" rx="7" ry="7" style="fill: white; fill-opacity: 0.35; stroke: black; stroke-width: 2px;"/><path style="fill: none; stroke: black; stroke-width: 2px;" d="M0,30L130,30"/><text lineHeight="1.2" class="djs-label" style="font-family: 'IBM Plex', sans-serif; font-size: 16px; font-weight: normal;"><tspan x="65" y="19.8"/></text><text lineHeight="1.2" class="djs-label" style="font-family: 'IBM Plex', sans-serif; font-size: 16px; font-weight: normal;"><tspan x="60.03125" y="94.80000000000001">C</tspan></text></g><rect class="djs-hit djs-hit-all" x="0" y="0" width="130" height="150" style="fill: none; stroke-opacity: 0; stroke: white; stroke-width: 15px;"/><rect x="-5" y="-5" rx="4" width="140" height="160" class="djs-outline" style="fill: none;"/></g></g><g class="djs-group"><g class="djs-element djs-shape" data-element-id="Event_1gcby6i" style="display: block;" transform="matrix(1 0 0 1 1110 70)"><g class="djs-visual"><rect x="0" y="0" width="130" height="150" rx="7" ry="7" style="fill: white; fill-opacity: 0.35; stroke: black; stroke-width: 2px;"/><path style="fill: none; stroke: black; stroke-width: 2px;" d="M0,30L130,30"/><text lineHeight="1.2" class="djs-label" style="font-family: 'IBM Plex', sans-serif; font-size: 16px; font-weight: normal;"><tspan x="65" y="19.8"/></text><text lineHeight="1.2" class="djs-label" style="font-family: 'IBM Plex', sans-serif; font-size: 16px; font-weight: normal;"><tspan x="59.7734375" y="94.80000000000001">B</tspan></text></g><rect class="djs-hit djs-hit-all" x="0" y="0" width="130" height="150" style="fill: none; stroke-opacity: 0; stroke: white; stroke-width: 15px;"/><rect x="-5" y="-5" rx="4" width="140" height="160" class="djs-outline" style="fill: none;"/></g></g></svg>
