<?xml version="1.0" encoding="utf-8"?>
<!-- created with diagram-js -->
<!DOCTYPE svg PUBLIC "-//W3C//DTD SVG 1.1//EN" "http://www.w3.org/Graphics/SVG/1.1/DTD/svg11.dtd">
<svg xmlns="http://www.w3.org/2000/svg" xmlns:xlink="http://www.w3.org/1999/xlink" width="530" height="710" viewBox="555 75 530 710" version="1.1"><defs><marker id="proposed-condition-flow-end-white-_FEA00F-45udfk2pnt4bsgqbxhza0hq1d-right-to-left-top-to-bottom" viewBox="0 0 20 20" refX="20.65" refY="10" markerWidth="10" markerHeight="10" orient="auto"><g transform="rotate(270, 10, 10)" style="fill: white; stroke-width: 1px; stroke-linecap: round; stroke-dasharray: 10000, 1;"><circle cx="10" cy="10" r="9" style="fill: white; stroke: rgb(254, 160, 15); stroke-width: 2px;"/><circle cx="6.5" cy="10" r="2.1" style="stroke: rgb(254, 160, 15); stroke-width: 2px;"/><path d="M9.5 10H12.5M15.5 12.5V10H12.5M12.5 10V12.5" style="stroke: rgb(254, 160, 15); stroke-width: 2px; stroke-linecap: round; stroke-linejoin: round;"/></g></marker><marker id="proposed-condition-flow-start-_FEA00F-_FEA00F-45udfk2pnt4bsgqbxhza0hq1d-undefined-undefined" viewBox="0 0 20 20" refX="0" refY="7.22" markerWidth="10" markerHeight="10" orient="auto"><path d="M0 24V0L24 12L0 24Z" transform="scale(0.6)" style="fill: rgb(254, 160, 15); stroke-width: 1px; stroke-linecap: round; stroke-dasharray: 10000, 1; stroke: rgb(254, 160, 15);"/></marker><marker id="proposed-condition-flow-end-white-_FEA00F-45udfk2pnt4bsgqbxhza0hq1d-left-to-right-top-to-bottom" viewBox="0 0 20 20" refX="20.65" refY="10" markerWidth="10" markerHeight="10" orient="auto"><g transform="rotate(270, 10, 10)" style="fill: white; stroke-width: 1px; stroke-linecap: round; stroke-dasharray: 10000, 1;"><circle cx="10" cy="10" r="9" style="fill: white; stroke: rgb(254, 160, 15); stroke-width: 2px;"/><circle cx="6.5" cy="10" r="2.1" style="stroke: rgb(254, 160, 15); stroke-width: 2px;"/><path d="M9.5 10H12.5M15.5 12.5V10H12.5M12.5 10V12.5" style="stroke: rgb(254, 160, 15); stroke-width: 2px; stroke-linecap: round; stroke-linejoin: round;"/></g></marker><marker id="proposed-response-flow-start-_2192FF-_2192FF-45udfk2pnt4bsgqbxhza0hq1d-undefined-undefined" viewBox="0 0 20 20" refX="0" refY="7.22" markerWidth="10" markerHeight="10" orient="auto"><path d="M0 24V0L24 12L0 24Z" transform="scale(0.6)" style="fill: rgb(33, 146, 255); stroke-width: 1px; stroke-linecap: round; stroke-dasharray: 10000, 1; stroke: rgb(33, 146, 255);"/></marker><marker id="proposed-response-flow-end-white-_2192FF-45udfk2pnt4bsgqbxhza0hq1d-bottom-to-top-bottom-to-top" viewBox="0 0 20 20" refX="21" refY="10" markerWidth="10" markerHeight="10" orient="auto"><g transform="rotate(90, 10, 10)" style="fill: white; stroke-width: 2; stroke-linecap: round; stroke-dasharray: 10000, 1; stroke: rgb(33, 146, 255);"><circle cx="10" cy="10" r="9"/><path d="M12 0.8V5" transform="translate(-2, 5)" style="stroke-width: 2.3px; stroke-linecap: round;"/><circle cx="10" cy="14" r="0.21"/></g></marker><marker id="proposed-condition-flow-end-white-_FEA00F-45udfk2pnt4bsgqbxhza0hq1d-bottom-to-top-bottom-to-top" viewBox="0 0 20 20" refX="20.65" refY="10" markerWidth="10" markerHeight="10" orient="auto"><g transform="rotate(90, 10, 10)" style="fill: white; stroke-width: 1px; stroke-linecap: round; stroke-dasharray: 10000, 1;"><circle cx="10" cy="10" r="9" style="fill: white; stroke: rgb(254, 160, 15); stroke-width: 2px;"/><circle cx="6.5" cy="10" r="2.1" style="stroke: rgb(254, 160, 15); stroke-width: 2px;"/><path d="M9.5 10H12.5M15.5 12.5V10H12.5M12.5 10V12.5" style="stroke: rgb(254, 160, 15); stroke-width: 2px; stroke-linecap: round; stroke-linejoin: round;"/></g></marker><marker id="proposed-exclude-flow-start-_FB1818-_FB1818-45udfk2pnt4bsgqbxhza0hq1d-undefined-undefined" viewBox="0 0 20 20" refX="0" refY="7.22" markerWidth="10" markerHeight="10" orient="auto"><path d="M0 24V0L24 12L0 24Z" transform="scale(0.6)" style="fill: rgb(251, 24, 24); stroke-width: 1px; stroke-linecap: round; stroke-dasharray: 10000, 1; stroke: rgb(251, 24, 24);"/></marker><marker id="proposed-exclude-flow-end-white-_FB1818-45udfk2pnt4bsgqbxhza0hq1d-right-to-left-right-to-left" viewBox="0 0 20 20" refX="21" refY="10" markerWidth="10" markerHeight="10" orient="auto"><g transform="rotate(180, 10, 10)" style="fill: white; stroke-width: 2; stroke-linecap: round; stroke-dasharray: 10000, 1; stroke: rgb(251, 24, 24);"><circle cx="10" cy="10" r="9"/><path d="M16 12H10" transform="translate(-3, -2)" style="fill: rgb(251, 24, 24); stroke-width: 2px; stroke-linecap: round;"/></g></marker><marker id="proposed-exclude-flow-end-white-_FB1818-45udfk2pnt4bsgqbxhza0hq1d-left-to-right-left-to-right" viewBox="0 0 20 20" refX="21" refY="10" markerWidth="10" markerHeight="10" orient="auto"><g transform="" style="fill: white; stroke-width: 2; stroke-linecap: round; stroke-dasharray: 10000, 1; stroke: rgb(251, 24, 24);"><circle cx="10" cy="10" r="9"/><path d="M16 12H10" transform="translate(-3, -2)" style="fill: rgb(251, 24, 24); stroke-width: 2px; stroke-linecap: round;"/></g></marker><marker id="proposed-exclude-flow-end-white-_FB1818-45udfk2pnt4bsgqbxhza0hq1d-bottom-to-top-left-to-right" viewBox="0 0 20 20" refX="21" refY="10" markerWidth="10" markerHeight="10" orient="auto"><g transform="" style="fill: white; stroke-width: 2; stroke-linecap: round; stroke-dasharray: 10000, 1; stroke: rgb(251, 24, 24);"><circle cx="10" cy="10" r="9"/><path d="M16 12H10" transform="translate(-3, -2)" style="fill: rgb(251, 24, 24); stroke-width: 2px; stroke-linecap: round;"/></g></marker><marker id="proposed-response-flow-end-white-_2192FF-45udfk2pnt4bsgqbxhza0hq1d-top-to-bottom-top-to-bottom" viewBox="0 0 20 20" refX="21" refY="10" markerWidth="10" markerHeight="10" orient="auto"><g transform="rotate(270, 10, 10)" style="fill: white; stroke-width: 2; stroke-linecap: round; stroke-dasharray: 10000, 1; stroke: rgb(33, 146, 255);"><circle cx="10" cy="10" r="9"/><path d="M12 0.8V5" transform="translate(-2, 5)" style="stroke-width: 2.3px; stroke-linecap: round;"/><circle cx="10" cy="14" r="0.21"/></g></marker></defs><g class="djs-group"><g class="djs-element djs-connection" data-element-id="Relation_1mmezpw" style="display: block;"><g class="djs-visual"><path d="m  845,260L845,330 " style="fill: none; stroke-width: 2px; stroke-linejoin: round; stroke: rgb(33, 146, 255); marker-start: url('#proposed-response-flow-start-_2192FF-_2192FF-45udfk2pnt4bsgqbxhza0hq1d-undefined-undefined'); marker-end: url('#proposed-response-flow-end-white-_2192FF-45udfk2pnt4bsgqbxhza0hq1d-top-to-bottom-top-to-bottom');"/></g><path d="M845,260L845,330" class="djs-hit djs-hit-stroke" style="fill: none; stroke-opacity: 0; stroke: white; stroke-width: 15px;"/><rect x="840" y="255" rx="4" width="10" height="80" class="djs-outline" style="fill: none;"/></g></g><g class="djs-group"><g class="djs-element djs-connection" data-element-id="Relation_1dviaxw" style="display: block;"><g class="djs-visual"><path d="m  845,110L845,80 L740,80 L740,140 L780,140 " style="fill: none; stroke-width: 2px; stroke-linejoin: round; stroke: rgb(251, 24, 24); marker-start: url('#proposed-exclude-flow-start-_FB1818-_FB1818-45udfk2pnt4bsgqbxhza0hq1d-undefined-undefined'); marker-end: url('#proposed-exclude-flow-end-white-_FB1818-45udfk2pnt4bsgqbxhza0hq1d-bottom-to-top-left-to-right');"/></g><path d="M845,110L845,80L740,80L740,140L780,140" class="djs-hit djs-hit-stroke" style="fill: none; stroke-opacity: 0; stroke: white; stroke-width: 15px;"/><rect x="735" y="75" rx="4" width="115" height="70" class="djs-outline" style="fill: none;"/></g></g><g class="djs-group"><g class="djs-element djs-connection" data-element-id="Relation_013u1o3" style="display: block;"><g class="djs-visual"><path d="m  920,740L710,740 " style="fill: none; stroke-width: 2px; stroke-linejoin: round; stroke: rgb(251, 24, 24); marker-start: url('#proposed-exclude-flow-start-_FB1818-_FB1818-45udfk2pnt4bsgqbxhza0hq1d-undefined-undefined'); marker-end: url('#proposed-exclude-flow-end-white-_FB1818-45udfk2pnt4bsgqbxhza0hq1d-right-to-left-right-to-left');"/></g><path d="M920,740L710,740" class="djs-hit djs-hit-stroke" style="fill: none; stroke-opacity: 0; stroke: white; stroke-width: 15px;"/><rect x="705" y="735" rx="4" width="220" height="10" class="djs-outline" style="fill: none;"/></g></g><g class="djs-group"><g class="djs-element djs-connection" data-element-id="Relation_0vs880s" style="display: block;"><g class="djs-visual"><path d="m  710,705L920,705 " style="fill: none; stroke-width: 2px; stroke-linejoin: round; stroke: rgb(251, 24, 24); marker-start: url('#proposed-exclude-flow-start-_FB1818-_FB1818-45udfk2pnt4bsgqbxhza0hq1d-undefined-undefined'); marker-end: url('#proposed-exclude-flow-end-white-_FB1818-45udfk2pnt4bsgqbxhza0hq1d-left-to-right-left-to-right');"/></g><path d="M710,705L920,705" class="djs-hit djs-hit-stroke" style="fill: none; stroke-opacity: 0; stroke: white; stroke-width: 15px;"/><rect x="705" y="700" rx="4" width="220" height="10" class="djs-outline" style="fill: none;"/></g></g><g class="djs-group"><g class="djs-element djs-connection" data-element-id="Relation_0ed4yxi" style="display: block;"><g class="djs-visual"><path d="m  910,490L730,490 " style="fill: none; stroke-width: 2px; stroke-linejoin: round; stroke: rgb(251, 24, 24); marker-start: url('#proposed-exclude-flow-start-_FB1818-_FB1818-45udfk2pnt4bsgqbxhza0hq1d-undefined-undefined'); marker-end: url('#proposed-exclude-flow-end-white-_FB1818-45udfk2pnt4bsgqbxhza0hq1d-right-to-left-right-to-left');"/></g><path d="M910,490L730,490" class="djs-hit djs-hit-stroke" style="fill: none; stroke-opacity: 0; stroke: white; stroke-width: 15px;"/><rect x="725" y="485" rx="4" width="190" height="10" class="djs-outline" style="fill: none;"/></g></g><g class="djs-group"><g class="djs-element djs-connection" data-element-id="Relation_16em25k" style="display: block;"><g class="djs-visual"><path d="m  655,630L655,530 " style="fill: none; stroke-width: 2px; stroke-linejoin: round; stroke: rgb(254, 160, 15); marker-end: url('#proposed-condition-flow-end-white-_FEA00F-45udfk2pnt4bsgqbxhza0hq1d-bottom-to-top-bottom-to-top'); marker-start: url('#proposed-condition-flow-start-_FEA00F-_FEA00F-45udfk2pnt4bsgqbxhza0hq1d-undefined-undefined');"/></g><path d="M655,630L655,530" class="djs-hit djs-hit-stroke" style="fill: none; stroke-opacity: 0; stroke: white; stroke-width: 15px;"/><rect x="650" y="525" rx="4" width="10" height="110" class="djs-outline" style="fill: none;"/></g></g><g class="djs-group"><g class="djs-element djs-connection" data-element-id="Relation_1vg6v34" style="display: block;"><g class="djs-visual"><path d="m  975,630L975,530 " style="fill: none; stroke-width: 2px; stroke-linejoin: round; stroke: rgb(33, 146, 255); marker-start: url('#proposed-response-flow-start-_2192FF-_2192FF-45udfk2pnt4bsgqbxhza0hq1d-undefined-undefined'); marker-end: url('#proposed-response-flow-end-white-_2192FF-45udfk2pnt4bsgqbxhza0hq1d-bottom-to-top-bottom-to-top');"/></g><path d="M975,630L975,530" class="djs-hit djs-hit-stroke" style="fill: none; stroke-opacity: 0; stroke: white; stroke-width: 15px;"/><rect x="970" y="525" rx="4" width="10" height="110" class="djs-outline" style="fill: none;"/></g></g><g class="djs-group"><g class="djs-element djs-connection" data-element-id="Relation_0qftx4x" style="display: block;"><g class="djs-visual"><path d="m  910,200L975,200 L975,380 " style="fill: none; stroke-width: 2px; stroke-linejoin: round; stroke: rgb(254, 160, 15); marker-end: url('#proposed-condition-flow-end-white-_FEA00F-45udfk2pnt4bsgqbxhza0hq1d-left-to-right-top-to-bottom'); marker-start: url('#proposed-condition-flow-start-_FEA00F-_FEA00F-45udfk2pnt4bsgqbxhza0hq1d-undefined-undefined');"/></g><path d="M910,200L975,200L975,380" class="djs-hit djs-hit-stroke" style="fill: none; stroke-opacity: 0; stroke: white; stroke-width: 15px;"/><rect x="905" y="195" rx="4" width="75" height="190" class="djs-outline" style="fill: none;"/></g></g><g class="djs-group"><g class="djs-element djs-connection" data-element-id="Relation_1yawyqk" style="display: block;"><g class="djs-visual"><path d="m  780,200L665,200 L665,380 " style="fill: none; stroke-width: 2px; stroke-linejoin: round; stroke: rgb(254, 160, 15); marker-end: url('#proposed-condition-flow-end-white-_FEA00F-45udfk2pnt4bsgqbxhza0hq1d-right-to-left-top-to-bottom'); marker-start: url('#proposed-condition-flow-start-_FEA00F-_FEA00F-45udfk2pnt4bsgqbxhza0hq1d-undefined-undefined');"/></g><path d="M780,200L665,200L665,380" class="djs-hit djs-hit-stroke" style="fill: none; stroke-opacity: 0; stroke: white; stroke-width: 15px;"/><rect x="660" y="195" rx="4" width="125" height="190" class="djs-outline" style="fill: none;"/></g></g><g class="djs-group"><g class="djs-element djs-shape" data-element-id="Event_0ajon2r" style="display: block;" transform="matrix(1 0 0 1 780 110)"><g class="djs-visual"><rect x="0" y="0" width="130" height="150" rx="7" ry="7" style="fill: white; fill-opacity: 0.35; stroke: black; stroke-width: 2px;"/><path style="fill: none; stroke: black; stroke-width: 2px;" d="M0,30L130,30"/><text lineHeight="1.2" class="djs-label" style="font-family: 'IBM Plex', sans-serif; font-size: 16px; font-weight: normal;"><tspan x="44.3125" y="19.8">Seller</tspan></text><text lineHeight="1.2" class="djs-label" style="font-family: 'IBM Plex', sans-serif; font-size: 16px; font-weight: normal;"><tspan x="16.28125" y="94.80000000000001">Finalize order</tspan></text></g><rect class="djs-hit djs-hit-all" x="0" y="0" width="130" height="150" style="fill: none; stroke-opacity: 0; stroke: white; stroke-width: 15px;"/><rect x="-5" y="-5" rx="4" width="140" height="160" class="djs-outline" style="fill: none;"/></g></g><g class="djs-group"><g class="djs-element djs-shape" data-element-id="Event_0d7mdvu" style="display: block;" transform="matrix(1 0 0 1 580 630)"><g class="djs-visual"><rect x="0" y="0" width="130" height="150" rx="7" ry="7" style="fill: white; fill-opacity: 0.35; stroke: black; stroke-width: 2px;"/><path style="fill: none; stroke: black; stroke-width: 2px;" d="M0,30L130,30"/><text lineHeight="1.2" class="djs-label" style="font-family: 'IBM Plex', sans-serif; font-size: 16px; font-weight: normal;"><tspan x="7.5390625" y="19.8">Delivery Service</tspan></text><text lineHeight="1.2" class="djs-label" style="font-family: 'IBM Plex', sans-serif; font-size: 16px; font-weight: normal;"><tspan x="26.7578125" y="94.80000000000001">Ship Order</tspan></text></g><rect class="djs-hit djs-hit-all" x="0" y="0" width="130" height="150" style="fill: none; stroke-opacity: 0; stroke: white; stroke-width: 15px;"/><rect x="-5" y="-5" rx="4" width="140" height="160" class="djs-outline" style="fill: none;"/></g></g><g class="djs-group"><g class="djs-element djs-shape" data-element-id="Event_0kbk7c9" style="display: block;" transform="matrix(1 0 0 1 920 630)"><g class="djs-visual"><rect x="0" y="0" width="130" height="150" rx="7" ry="7" style="fill: white; fill-opacity: 0.35; stroke: black; stroke-width: 2px;"/><path style="fill: none; stroke: black; stroke-width: 2px;" d="M0,30L130,30"/><text lineHeight="1.2" class="djs-label" style="font-family: 'IBM Plex', sans-serif; font-size: 16px; font-weight: normal;"><tspan x="7.5390625" y="19.8">Delivery Service</tspan></text><text lineHeight="1.2" class="djs-label" style="font-family: 'IBM Plex', sans-serif; font-size: 16px; font-weight: normal;"><tspan x="6.9375" y="85.2">Notify Shipment </tspan><tspan x="46.3125" y="104.4">issue</tspan></text></g><rect class="djs-hit djs-hit-all" x="0" y="0" width="130" height="150" style="fill: none; stroke-opacity: 0; stroke: white; stroke-width: 15px;"/><rect x="-5" y="-5" rx="4" width="140" height="160" class="djs-outline" style="fill: none;"/></g></g><g class="djs-group"><g class="djs-element djs-shape" data-element-id="SubProcess_1wyn6rl" style="display: block;" transform="matrix(1 0 0 1 560 330)"><g class="djs-visual"><rect x="0" y="0" width="520" height="245" rx="7" ry="7" style="fill: white; fill-opacity: 0.35; stroke: black; stroke-width: 2px;"/><path d="m 505,240 l0.95,-1.875a4.639,4.639,0,0,0,0.786,0.531q0.389,0.212,0.852, 0.382a6.018,6.018,0,0,0,1.902,0.359a6.866,6.866,0,0,0,0.21,0.003a6.778,6.778, 0,0,0,0.771,-0.041q0.796,-0.091,1.288,-0.388a1.934,1.934,0,0,0,0.054, -0.033a1.862,1.862,0,0,0,0.383,-0.324a1.263,1.263,0,0,0,0.329,-0.864a1.781, 1.781,0,0,0,-0.079,-0.537a1.553,1.553,0,0,0,-0.183,-0.388q-0.263,-0.4,-0.963, -0.787a7.116,7.116,0,0,0,-0.499,-0.249q-0.529,-0.24,-1.276,-0.503a25.896, 25.896,0,0,0,-0.25,-0.086a11.654,11.654,0,0,1,-1.099,-0.436q-1.025,-0.472, -1.638,-1.051a2.831,2.831,0,0,1,-0.824,-1.5a4.198,4.198,0,0,1,-0.089,-0.888a3.03, 3.03,0,0,1,0.987,-2.254a4.366,4.366,0,0,1,0.326,-0.283a4.441,4.441,0,0,1,1.509, -0.762q0.929,-0.276,2.128,-0.276q1.25,0,2.225,0.263a9.692,9.692,0,0,1,1.034, 0.338a7.778,7.778,0,0,1,0.716,0.324l-0.625,1.85a6.132,6.132,0,0,0,-0.917, -0.441a7.548,7.548,0,0,0,-0.62,-0.209q-0.863,-0.25,-1.913,-0.25a5.158,5.158,0, 0,0,-0.734,0.049q-0.772,0.111,-1.241,0.476a2.33,2.33,0,0,0,-0.339,0.318q-0.176, 0.205,-0.26,0.423a1.132,1.132,0,0,0,-0.076,0.409a1.23,1.23,0,0,0,0.374,0.888a1.771, 1.771,0,0,0,0.151,0.137q0.516,0.418,2,0.908a21.155,21.155,0,0,0,0.05,0.017a16.938, 16.938,0,0,1,1.266,0.475q1.203,0.511,1.892,1.082a3.737,3.737,0,0,1,0.292,0.268q0.975, 1,0.975,2.5a3.468,3.468,0,0,1,-0.266,1.379q-0.346,0.81,-1.146,1.384q-1.185,0.849, -3.048,0.986a10.106,10.106,0,0,1,-0.74,0.026a9.997,9.997,0,0,1,-1.465,-0.103a7.737, 7.737,0,0,1,-1.197,-0.272a7.721,7.721,0,0,1,-0.961,-0.371q-0.566,-0.266,-1.002,-0.604z" data-marker="subprocess" style="fill: grey; stroke-width: 1px; stroke: grey;"/></g><rect class="djs-hit djs-hit-all" x="0" y="0" width="520" height="245" style="fill: none; stroke-opacity: 0; stroke: white; stroke-width: 15px;"/><rect x="-5" y="-5" rx="4" width="530" height="255" class="djs-outline" style="fill: none;"/></g><g class="djs-children"><g class="djs-group"><g class="djs-element djs-shape" data-element-id="Event_1bs72yb" style="display: block;" transform="matrix(1 0 0 1 910 380)"><g class="djs-visual"><rect x="0" y="0" width="130" height="150" rx="7" ry="7" style="fill: white; fill-opacity: 0.35; stroke: black; stroke-width: 2px;"/><path style="fill: none; stroke: black; stroke-width: 2px;" d="M0,30L130,30"/><text lineHeight="1.2" class="djs-label" style="font-family: 'IBM Plex', sans-serif; font-size: 16px; font-weight: normal;"><tspan x="44.3125" y="19.8">Seller</tspan></text><text lineHeight="1.2" class="djs-label" style="font-family: 'IBM Plex', sans-serif; font-size: 16px; font-weight: normal;"><tspan x="19.96875" y="94.80000000000001">Reject Order</tspan></text></g><rect class="djs-hit djs-hit-all" x="0" y="0" width="130" height="150" style="fill: none; stroke-opacity: 0; stroke: white; stroke-width: 15px;"/><rect x="-5" y="-5" rx="4" width="140" height="160" class="djs-outline" style="fill: none;"/></g></g><g class="djs-group"><g class="djs-element djs-shape" data-element-id="Event_1h7okte" style="display: block;" transform="matrix(1 0 0 1 600 380)"><g class="djs-visual"><rect x="0" y="0" width="130" height="150" rx="7" ry="7" style="fill: white; fill-opacity: 0.35; stroke: black; stroke-width: 2px;"/><path style="fill: none; stroke: black; stroke-width: 2px;" d="M0,30L130,30"/><text lineHeight="1.2" class="djs-label" style="font-family: 'IBM Plex', sans-serif; font-size: 16px; font-weight: normal;"><tspan x="44.3125" y="19.8">Seller</tspan></text><text lineHeight="1.2" class="djs-label" style="font-family: 'IBM Plex', sans-serif; font-size: 16px; font-weight: normal;"><tspan x="14.140625" y="94.80000000000001">Confirm Order</tspan></text></g><rect class="djs-hit djs-hit-all" x="0" y="0" width="130" height="150" style="fill: none; stroke-opacity: 0; stroke: white; stroke-width: 15px;"/><rect x="-5" y="-5" rx="4" width="140" height="160" class="djs-outline" style="fill: none;"/></g></g></g></g></svg>
