<?xml version="1.0" encoding="utf-8"?>
<!-- created with diagram-js -->
<!DOCTYPE svg PUBLIC "-//W3C//DTD SVG 1.1//EN" "http://www.w3.org/Graphics/SVG/1.1/DTD/svg11.dtd">
<svg xmlns="http://www.w3.org/2000/svg" xmlns:xlink="http://www.w3.org/1999/xlink" width="512" height="402" viewBox="524 634 512 402" version="1.1"><defs><marker id="default-condition-flow-end-_FEA00F-_FEA00F-ejr3gtmad2cbhktfwi5anj7ea-undefined-undefined" viewBox="0 0 20 20" refX="19.1" refY="7.2" markerWidth="11" markerHeight="11" orient="auto"><path d="M 17.83,7.19 C 17.83,9.29 16.20,10.99 14.18,10.99 12.16,10.99 10.52,9.29 10.52,7.19 10.52,5.09 12.16,3.38 14.18,3.38 16.20,3.38 17.83,5.09 17.83,7.19 Z M 10.59,7.18 C 10.59,7.18 5.29,9.56 5.29,9.56 5.29,9.56 -0.00,11.94 -0.00,11.94 -0.00,11.94 0.01,7.16 0.01,7.16 0.01,7.16 0.03,2.37 0.03,2.37 0.03,2.37 5.31,4.77 5.31,4.77 5.31,4.77 10.59,7.18 10.59,7.18 Z" style="fill: rgb(254, 160, 15); stroke-width: 1px; stroke-linecap: butt; stroke-dasharray: 10000px, 1px; stroke: rgb(254, 160, 15);"/></marker><marker id="default-response-flow-start-_2192FF-_2192FF-ejr3gtmad2cbhktfwi5anj7ea-undefined-undefined" viewBox="0 0 20 20" refX="4.2" refY="6.6" markerWidth="11" markerHeight="11" orient="auto"><path d="M 12.24,6.64 C 12.24,8.74 10.60,10.44 8.58,10.44 6.56,10.44 4.92,8.74 4.92,6.64 4.92,4.54 6.56,2.84 8.58,2.84 10.60,2.84 12.24,4.54 12.24,6.64 Z" style="fill: rgb(33, 146, 255); stroke-width: 1px; stroke-linecap: butt; stroke-dasharray: 10000px, 1px; stroke: rgb(33, 146, 255);"/></marker><marker id="default-response-flow-end-_2192FF-_2192FF-ejr3gtmad2cbhktfwi5anj7ea-undefined-undefined" viewBox="0 0 20 20" refX="8.7" refY="5" markerWidth="16" markerHeight="16" orient="auto"><path d="m 1 5 l 0 -3 l 7 3 l -7 3 z" style="fill: rgb(33, 146, 255); stroke-width: 1px; stroke-linecap: butt; stroke-dasharray: 10000px, 1px; stroke: rgb(33, 146, 255);"/></marker><marker id="default-exclude-flow-end-_FB1818-_FB1818-ejr3gtmad2cbhktfwi5anj7ea-undefined-undefined" viewBox="0 0 20 20" refX="21" refY="7.73" markerWidth="8" markerHeight="8" orient="auto"><g style="fill: rgb(251, 24, 24); stroke-width: 1px; stroke-linecap: butt; stroke-dasharray: 10000px, 1px; stroke: rgb(251, 24, 24);"><rect x="10" y="4" width="20" height="100" style="fill: white; stroke: none;"/><path d="M 18.28,0.00 C 18.28,0.00 20.00,0.92 20.00,0.92 20.00,0.92 11.84,14.84 11.84,14.84 11.84,14.84 10.12,13.92 10.12,13.92 10.12,13.92 18.28,0.00 18.28,0.00 Z M 16.61,13.64 C 16.61,14.39 17.23,15.00 18.01,15.00 18.78,15.00 19.41,14.39 19.41,13.64 19.41,12.88 18.78,12.27 18.01,12.27 17.23,12.27 16.61,12.88 16.61,13.64 Z M 13.74,1.47 C 13.74,2.22 13.11,2.83 12.34,2.83 11.56,2.83 10.94,2.22 10.94,1.47 10.94,0.72 11.56,0.11 12.34,0.11 13.11,0.11 13.74,0.72 13.74,1.47 Z M 12.25,7.81 C 12.25,7.81 6.13,11.23 6.13,11.23 6.13,11.23 -0.00,14.65 -0.00,14.65 -0.00,14.65 0.02,7.78 0.02,7.78 0.02,7.78 0.03,0.92 0.03,0.92 0.03,0.92 6.14,4.36 6.14,4.36 6.14,4.36 12.25,7.81 12.25,7.81 Z"/></g></marker><marker id="default-include-flow-end-_2CA81A-_2CA81A-ejr3gtmad2cbhktfwi5anj7ea-undefined-undefined" viewBox="0 0 20 20" refX="20.6" refY="6.6" markerWidth="11" markerHeight="11" orient="auto"><path d="M 18.35,5.99 C 18.35,5.99 15.08,5.99 15.08,5.99 15.08,5.99 15.08,2.66 15.08,2.66 15.08,2.35 14.83,2.10 14.53,2.10 14.23,2.10 13.99,2.35 13.99,2.66 13.99,2.66 13.99,5.99 13.99,5.99 13.99,5.99 10.72,5.99 10.72,5.99 10.42,5.99 10.17,6.24 10.17,6.54 10.17,6.85 10.42,7.10 10.72,7.10 10.72,7.10 13.99,7.10 13.99,7.10 13.99,7.10 13.99,10.43 13.99,10.43 13.99,10.73 14.23,10.98 14.53,10.98 14.83,10.98 15.08,10.73 15.08,10.43 15.08,10.43 15.08,7.10 15.08,7.10 15.08,7.10 18.35,7.10 18.35,7.10 18.65,7.10 18.89,6.85 18.89,6.54 18.89,6.24 18.65,5.99 18.35,5.99 18.35,5.99 18.35,5.99 18.35,5.99 Z M 10.53,6.59 C 10.53,6.59 5.27,9.52 5.27,9.52 5.27,9.52 0.00,12.46 0.00,12.46 0.00,12.46 0.01,6.57 0.01,6.57 0.01,6.57 0.03,0.69 0.03,0.69 0.03,0.69 5.28,3.64 5.28,3.64 5.28,3.64 10.53,6.59 10.53,6.59 Z" style="fill: rgb(44, 168, 26); stroke-width: 1px; stroke-linecap: butt; stroke-dasharray: 10000px, 1px; stroke: rgb(44, 168, 26);"/></marker></defs><g class="djs-group"><g class="djs-element djs-connection" data-element-id="Relation_1yngtqi" style="display: block;"><g class="djs-visual"><path d="m  940,790L940,880 " style="fill: none; stroke-width: 2px; stroke-linejoin: round; stroke: rgb(44, 168, 26); marker-end: url('#default-include-flow-end-_2CA81A-_2CA81A-ejr3gtmad2cbhktfwi5anj7ea-undefined-undefined');"/></g><path d="M940,790L940,880" style="fill: none; stroke-opacity: 0; stroke: white; stroke-width: 15px;" class="djs-hit djs-hit-stroke"/><rect x="934" y="784" rx="4" width="12" height="102" style="fill: none;" class="djs-outline"/></g></g><g class="djs-group"><g class="djs-element djs-connection" data-element-id="Relation_137ycmm" style="display: block;"><g class="djs-visual"><path d="m  870,790L870,850 L700,850 L700,880 " style="fill: none; stroke-width: 2px; stroke-linejoin: round; stroke: rgb(44, 168, 26); marker-end: url('#default-include-flow-end-_2CA81A-_2CA81A-ejr3gtmad2cbhktfwi5anj7ea-undefined-undefined');"/></g><path d="M870,790L870,850L700,850L700,880" style="fill: none; stroke-opacity: 0; stroke: white; stroke-width: 15px;" class="djs-hit djs-hit-stroke"/><rect x="694" y="784" rx="4" width="182" height="102" style="fill: none;" class="djs-outline"/></g></g><g class="djs-group"><g class="djs-element djs-connection" data-element-id="Relation_1n7xmdr" style="display: block;"><g class="djs-visual"><path d="m  900,970L730,970 " style="fill: none; stroke-width: 2px; stroke-linejoin: round; stroke: rgb(251, 24, 24); marker-end: url('#default-exclude-flow-end-_FB1818-_FB1818-ejr3gtmad2cbhktfwi5anj7ea-undefined-undefined');"/></g><path d="M900,970L730,970" style="fill: none; stroke-opacity: 0; stroke: white; stroke-width: 15px;" class="djs-hit djs-hit-stroke"/><rect x="724" y="964" rx="4" width="182" height="12" style="fill: none;" class="djs-outline"/></g></g><g class="djs-group"><g class="djs-element djs-connection" data-element-id="Relation_1u4r4j1" style="display: block;"><g class="djs-visual"><path d="m  730,940L900,940 " style="fill: none; stroke-width: 2px; stroke-linejoin: round; stroke: rgb(251, 24, 24); marker-end: url('#default-exclude-flow-end-_FB1818-_FB1818-ejr3gtmad2cbhktfwi5anj7ea-undefined-undefined');"/></g><path d="M730,940L900,940" style="fill: none; stroke-opacity: 0; stroke: white; stroke-width: 15px;" class="djs-hit djs-hit-stroke"/><rect x="724" y="934" rx="4" width="182" height="12" style="fill: none;" class="djs-outline"/></g></g><g class="djs-group"><g class="djs-element djs-connection" data-element-id="Relation_1ssvzyp" style="display: block;"><g class="djs-visual"><path d="m  1010,880L1010,715 L960,715 " style="fill: none; stroke-width: 2px; stroke-linejoin: round; stroke: rgb(33, 146, 255); marker-start: url('#default-response-flow-start-_2192FF-_2192FF-ejr3gtmad2cbhktfwi5anj7ea-undefined-undefined'); marker-end: url('#default-response-flow-end-_2192FF-_2192FF-ejr3gtmad2cbhktfwi5anj7ea-undefined-undefined');" orient="auto"/></g><path d="M1010,880L1010,715L960,715" style="fill: none; stroke-opacity: 0; stroke: white; stroke-width: 15px;" class="djs-hit djs-hit-stroke"/><rect x="954" y="709" rx="4" width="62" height="177" style="fill: none;" class="djs-outline"/></g></g><g class="djs-group"><g class="djs-element djs-connection" data-element-id="Relation_0657l4q" style="display: block;"><g class="djs-visual"><path d="m  560,790L560,955 L600,955 " style="fill: none; stroke-width: 2px; stroke-linejoin: round; stroke: rgb(33, 146, 255); marker-start: url('#default-response-flow-start-_2192FF-_2192FF-ejr3gtmad2cbhktfwi5anj7ea-undefined-undefined'); marker-end: url('#default-response-flow-end-_2192FF-_2192FF-ejr3gtmad2cbhktfwi5anj7ea-undefined-undefined');" orient="auto"/></g><path d="M560,790L560,955L600,955" style="fill: none; stroke-opacity: 0; stroke: white; stroke-width: 15px;" class="djs-hit djs-hit-stroke"/><rect x="554" y="784" rx="4" width="52" height="177" style="fill: none;" class="djs-outline"/></g></g><g class="djs-group"><g class="djs-element djs-connection" data-element-id="Relation_0ash6jx" style="display: block;"><g class="djs-visual"><path d="m  660,730L830,730 " style="fill: none; stroke-width: 2px; stroke-linejoin: round; stroke: rgb(33, 146, 255); marker-start: url('#default-response-flow-start-_2192FF-_2192FF-ejr3gtmad2cbhktfwi5anj7ea-undefined-undefined'); marker-end: url('#default-response-flow-end-_2192FF-_2192FF-ejr3gtmad2cbhktfwi5anj7ea-undefined-undefined');" orient="auto"/></g><path d="M660,730L830,730" style="fill: none; stroke-opacity: 0; stroke: white; stroke-width: 15px;" class="djs-hit djs-hit-stroke"/><rect x="654" y="724" rx="4" width="182" height="12" style="fill: none;" class="djs-outline"/></g></g><g class="djs-group"><g class="djs-element djs-connection" data-element-id="Relation_0r82e1v" style="display: block;"><g class="djs-visual"><path d="m  920,790L920,880 " style="fill: none; stroke-width: 2px; stroke-linejoin: round; stroke: rgb(254, 160, 15); marker-end: url('#default-condition-flow-end-_FEA00F-_FEA00F-ejr3gtmad2cbhktfwi5anj7ea-undefined-undefined');"/></g><path d="M920,790L920,880" style="fill: none; stroke-opacity: 0; stroke: white; stroke-width: 15px;" class="djs-hit djs-hit-stroke"/><rect x="914" y="784" rx="4" width="12" height="102" style="fill: none;" class="djs-outline"/></g></g><g class="djs-group"><g class="djs-element djs-connection" data-element-id="Relation_1yod626" style="display: block;"><g class="djs-visual"><path d="m  850,790L850,830 L680,830 L680,880 " style="fill: none; stroke-width: 2px; stroke-linejoin: round; stroke: rgb(254, 160, 15); marker-end: url('#default-condition-flow-end-_FEA00F-_FEA00F-ejr3gtmad2cbhktfwi5anj7ea-undefined-undefined');"/></g><path d="M850,790L850,830L680,830L680,880" style="fill: none; stroke-opacity: 0; stroke: white; stroke-width: 15px;" class="djs-hit djs-hit-stroke"/><rect x="674" y="784" rx="4" width="182" height="102" style="fill: none;" class="djs-outline"/></g></g><g class="djs-group"><g class="djs-element djs-connection" data-element-id="Relation_0bwj6m5" style="display: block;"><g class="djs-visual"><path d="m  660,700L830,700 " style="fill: none; stroke-width: 2px; stroke-linejoin: round; stroke: rgb(254, 160, 15); marker-end: url('#default-condition-flow-end-_FEA00F-_FEA00F-ejr3gtmad2cbhktfwi5anj7ea-undefined-undefined');"/></g><path d="M660,700L830,700" style="fill: none; stroke-opacity: 0; stroke: white; stroke-width: 15px;" class="djs-hit djs-hit-stroke"/><rect x="654" y="694" rx="4" width="182" height="12" style="fill: none;" class="djs-outline"/></g></g><g class="djs-group"><g class="djs-element djs-shape" data-element-id="Event_05zzfzn" transform="matrix(1, 0, 0, 1, 530, 640)" style="display: block;"><g class="djs-visual"><rect x="0" y="0" width="130" height="150" rx="7" ry="7" style="fill: white; fill-opacity: 0.35; stroke: black; stroke-width: 2px;"/><path style="fill: none; stroke: black; stroke-width: 2px;" d="M0,30L130,30"/><text style="font-family: IBM Plex, sans-serif; font-size: 16px; font-weight: normal;" lineHeight="1.2" class="djs-label"><tspan x="40.933332443237305" y="19.8">Doctor</tspan></text><text style="font-family: IBM Plex, sans-serif; font-size: 16px; font-weight: normal;" lineHeight="1.2" class="djs-label"><tspan x="31.924999237060547" y="85.2">Ordinate </tspan><tspan x="32.025001525878906" y="104.4">medicine</tspan></text></g><rect style="fill: none; stroke-opacity: 0; stroke: white; stroke-width: 15px;" class="djs-hit djs-hit-all" x="0" y="0" width="130" height="150"/><rect x="-6" y="-6" rx="4" width="142" height="162" style="fill: none;" class="djs-outline"/></g></g><g class="djs-group"><g class="djs-element djs-shape" data-element-id="Event_0akzsoe" transform="matrix(1, 0, 0, 1, 830, 640)" style="display: block;"><g class="djs-visual"><rect x="0" y="0" width="130" height="150" rx="7" ry="7" style="fill: white; fill-opacity: 0.35; stroke: black; stroke-width: 2px;"/><path style="fill: none; stroke: black; stroke-width: 2px;" d="M0,30L130,30"/><text style="font-family: IBM Plex, sans-serif; font-size: 16px; font-weight: normal;" lineHeight="1.2" class="djs-label"><tspan x="41.433332443237305" y="19.8">Doctor</tspan></text><text style="font-family: IBM Plex, sans-serif; font-size: 16px; font-weight: normal;" lineHeight="1.2" class="djs-label"><tspan x="48.99166679382324" y="94.80000000000001">Sign</tspan></text></g><rect style="fill: none; stroke-opacity: 0; stroke: white; stroke-width: 15px;" class="djs-hit djs-hit-all" x="0" y="0" width="130" height="150"/><rect x="-6" y="-6" rx="4" width="142" height="162" style="fill: none;" class="djs-outline"/></g></g><g class="djs-group"><g class="djs-element djs-shape" data-element-id="Event_1dvmik4" transform="matrix(1, 0, 0, 1, 600, 880)" style="display: block;"><g class="djs-visual"><rect x="0" y="0" width="130" height="150" rx="7" ry="7" style="fill: white; fill-opacity: 0.35; stroke: black; stroke-width: 2px;"/><path style="fill: none; stroke: black; stroke-width: 2px;" d="M0,30L130,30"/><text style="font-family: IBM Plex, sans-serif; font-size: 16px; font-weight: normal;" lineHeight="1.2" class="djs-label"><tspan x="43.65833282470703" y="19.8">Nurse</tspan></text><text style="font-family: IBM Plex, sans-serif; font-size: 16px; font-weight: normal;" lineHeight="1.2" class="djs-label"><tspan x="14.308334350585938" y="94.80000000000001">Give medicine</tspan></text></g><rect style="fill: none; stroke-opacity: 0; stroke: white; stroke-width: 15px;" class="djs-hit djs-hit-all" x="0" y="0" width="130" height="150"/><rect x="-6" y="-6" rx="4" width="142" height="162" style="fill: none;" class="djs-outline"/></g></g><g class="djs-group"><g class="djs-element djs-shape" data-element-id="Event_1503wgv" transform="matrix(1, 0, 0, 1, 900, 880)" style="display: block;"><g class="djs-visual"><rect x="0" y="0" width="130" height="150" rx="7" ry="7" style="fill: white; fill-opacity: 0.35; stroke: black; stroke-width: 2px;"/><path style="fill: none; stroke: black; stroke-width: 2px;" d="M0,30L130,30"/><text style="font-family: IBM Plex, sans-serif; font-size: 16px; font-weight: normal;" lineHeight="1.2" class="djs-label"><tspan x="43.65833282470703" y="19.8">Nurse</tspan></text><text style="font-family: IBM Plex, sans-serif; font-size: 16px; font-weight: normal;" lineHeight="1.2" class="djs-label"><tspan x="28.78333282470703" y="94.80000000000001">Don't trust</tspan></text></g><rect style="fill: none; stroke-opacity: 0; stroke: white; stroke-width: 15px;" class="djs-hit djs-hit-all" x="0" y="0" width="130" height="150"/><rect x="-6" y="-6" rx="4" width="142" height="162" style="fill: none;" class="djs-outline"/></g></g></svg>