<?xml version="1.0" encoding="utf-8"?>
<!-- created with diagram-js -->
<!DOCTYPE svg PUBLIC "-//W3C//DTD SVG 1.1//EN" "http://www.w3.org/Graphics/SVG/1.1/DTD/svg11.dtd">
<svg xmlns="http://www.w3.org/2000/svg" xmlns:xlink="http://www.w3.org/1999/xlink" width="905" height="605" viewBox="155 -205 905 605" version="1.1"><defs><marker id="proposed-condition-flow-end-white-_FEA00F-4rwgd2xm18tnus8hqoxws8asg-top-to-bottom-left-to-right" viewBox="0 0 20 20" refX="20.65" refY="10" markerWidth="10" markerHeight="10" orient="auto"><g transform="" style="fill: white; stroke-width: 1px; stroke-linecap: round; stroke-dasharray: 10000, 1;"><circle cx="10" cy="10" r="9" style="fill: white; stroke: rgb(254, 160, 15); stroke-width: 2px;"/><circle cx="6.5" cy="10" r="2.1" style="stroke: rgb(254, 160, 15); stroke-width: 2px;"/><path d="M9.5 10H12.5M15.5 12.5V10H12.5M12.5 10V12.5" style="stroke: rgb(254, 160, 15); stroke-width: 2px; stroke-linecap: round; stroke-linejoin: round;"/></g></marker><marker id="proposed-condition-flow-start-_FEA00F-_FEA00F-4rwgd2xm18tnus8hqoxws8asg-undefined-undefined" viewBox="0 0 20 20" refX="0" refY="7.22" markerWidth="10" markerHeight="10" orient="auto"><path d="M0 24V0L24 12L0 24Z" transform="scale(0.6)" style="fill: rgb(254, 160, 15); stroke-width: 1px; stroke-linecap: round; stroke-dasharray: 10000, 1; stroke: rgb(254, 160, 15);"/></marker><marker id="proposed-response-flow-start-_2192FF-_2192FF-4rwgd2xm18tnus8hqoxws8asg-undefined-undefined" viewBox="0 0 20 20" refX="0" refY="7.22" markerWidth="10" markerHeight="10" orient="auto"><path d="M0 24V0L24 12L0 24Z" transform="scale(0.6)" style="fill: rgb(33, 146, 255); stroke-width: 1px; stroke-linecap: round; stroke-dasharray: 10000, 1; stroke: rgb(33, 146, 255);"/></marker><marker id="proposed-response-flow-end-white-_2192FF-4rwgd2xm18tnus8hqoxws8asg-left-to-right-left-to-right" viewBox="0 0 20 20" refX="21" refY="10" markerWidth="10" markerHeight="10" orient="auto"><g transform="" style="fill: white; stroke-width: 2; stroke-linecap: round; stroke-dasharray: 10000, 1; stroke: rgb(33, 146, 255);"><circle cx="10" cy="10" r="9"/><path d="M12 0.8V5" transform="translate(-2, 5)" style="stroke-width: 2.3px; stroke-linecap: round;"/><circle cx="10" cy="14" r="0.21"/></g></marker><marker id="proposed-condition-flow-end-white-_FEA00F-4rwgd2xm18tnus8hqoxws8asg-left-to-right-left-to-right" viewBox="0 0 20 20" refX="20.65" refY="10" markerWidth="10" markerHeight="10" orient="auto"><g transform="" style="fill: white; stroke-width: 1px; stroke-linecap: round; stroke-dasharray: 10000, 1;"><circle cx="10" cy="10" r="9" style="fill: white; stroke: rgb(254, 160, 15); stroke-width: 2px;"/><circle cx="6.5" cy="10" r="2.1" style="stroke: rgb(254, 160, 15); stroke-width: 2px;"/><path d="M9.5 10H12.5M15.5 12.5V10H12.5M12.5 10V12.5" style="stroke: rgb(254, 160, 15); stroke-width: 2px; stroke-linecap: round; stroke-linejoin: round;"/></g></marker><marker id="proposed-response-flow-end-white-_2192FF-4rwgd2xm18tnus8hqoxws8asg-top-to-bottom-left-to-right" viewBox="0 0 20 20" refX="21" refY="10" markerWidth="10" markerHeight="10" orient="auto"><g transform="" style="fill: white; stroke-width: 2; stroke-linecap: round; stroke-dasharray: 10000, 1; stroke: rgb(33, 146, 255);"><circle cx="10" cy="10" r="9"/><path d="M12 0.8V5" transform="translate(-2, 5)" style="stroke-width: 2.3px; stroke-linecap: round;"/><circle cx="10" cy="14" r="0.21"/></g></marker><marker id="proposed-milestone-flow-end-white-_A932D0-4rwgd2xm18tnus8hqoxws8asg-bottom-to-top-bottom-to-top" viewBox="0 0 20 20" refX="20.65" refY="10" markerWidth="10" markerHeight="10" orient="auto"><g transform="rotate(90, 10, 10)" style="fill: white; stroke-width: 1px; stroke-linecap: round; stroke-dasharray: 10000, 1;"><circle cx="10" cy="10" r="9" style="fill: white; stroke: rgb(169, 50, 208); stroke-width: 2px;"/><circle cx="6.5" cy="10" r="2.1" style="stroke: rgb(169, 50, 208); stroke-width: 2px;"/><path d="M9.5 10H12.5M15.5 12.5V10H12.5M12.5 10V12.5" style="stroke: rgb(169, 50, 208); stroke-width: 2px; stroke-linecap: round; stroke-linejoin: round;"/></g></marker><marker id="proposed-milestone-flow-start-white-_A932D0-4rwgd2xm18tnus8hqoxws8asg-bottom-to-top-bottom-to-top" viewBox="0 0 20 20" refX="1.5" refY="4.7" markerWidth="20" markerHeight="20" orient="auto"><g style="fill: white; stroke-width: 1px; stroke-linecap: round; stroke-dasharray: 10000, 1; stroke: rgb(169, 50, 208);"><path d="M3,1 l17,8.5 l-17,8.5 z" transform="scale(0.5)" style="stroke-width: 2;"/><g transform="translate(-10.5, 1.8) rotate(90, 10, 10)"><path d="M3 2.7V4.8" style="stroke-width: 1px; stroke-linecap: round;"/><circle cx="3" cy="6.5" r="0.1"/></g></g></marker><marker id="proposed-condition-flow-end-white-_FEA00F-4rwgd2xm18tnus8hqoxws8asg-top-to-bottom-top-to-bottom" viewBox="0 0 20 20" refX="20.65" refY="10" markerWidth="10" markerHeight="10" orient="auto"><g transform="rotate(270, 10, 10)" style="fill: white; stroke-width: 1px; stroke-linecap: round; stroke-dasharray: 10000, 1;"><circle cx="10" cy="10" r="9" style="fill: white; stroke: rgb(254, 160, 15); stroke-width: 2px;"/><circle cx="6.5" cy="10" r="2.1" style="stroke: rgb(254, 160, 15); stroke-width: 2px;"/><path d="M9.5 10H12.5M15.5 12.5V10H12.5M12.5 10V12.5" style="stroke: rgb(254, 160, 15); stroke-width: 2px; stroke-linecap: round; stroke-linejoin: round;"/></g></marker><marker id="proposed-condition-flow-end-white-_FEA00F-4rwgd2xm18tnus8hqoxws8asg-right-to-left-top-to-bottom" viewBox="0 0 20 20" refX="20.65" refY="10" markerWidth="10" markerHeight="10" orient="auto"><g transform="rotate(270, 10, 10)" style="fill: white; stroke-width: 1px; stroke-linecap: round; stroke-dasharray: 10000, 1;"><circle cx="10" cy="10" r="9" style="fill: white; stroke: rgb(254, 160, 15); stroke-width: 2px;"/><circle cx="6.5" cy="10" r="2.1" style="stroke: rgb(254, 160, 15); stroke-width: 2px;"/><path d="M9.5 10H12.5M15.5 12.5V10H12.5M12.5 10V12.5" style="stroke: rgb(254, 160, 15); stroke-width: 2px; stroke-linecap: round; stroke-linejoin: round;"/></g></marker><marker id="proposed-condition-flow-end-white-_FEA00F-4rwgd2xm18tnus8hqoxws8asg-left-to-right-top-to-bottom" viewBox="0 0 20 20" refX="20.65" refY="10" markerWidth="10" markerHeight="10" orient="auto"><g transform="rotate(270, 10, 10)" style="fill: white; stroke-width: 1px; stroke-linecap: round; stroke-dasharray: 10000, 1;"><circle cx="10" cy="10" r="9" style="fill: white; stroke: rgb(254, 160, 15); stroke-width: 2px;"/><circle cx="6.5" cy="10" r="2.1" style="stroke: rgb(254, 160, 15); stroke-width: 2px;"/><path d="M9.5 10H12.5M15.5 12.5V10H12.5M12.5 10V12.5" style="stroke: rgb(254, 160, 15); stroke-width: 2px; stroke-linecap: round; stroke-linejoin: round;"/></g></marker><marker id="proposed-condition-flow-end-white-_FEA00F-4rwgd2xm18tnus8hqoxws8asg-right-to-left-right-to-left" viewBox="0 0 20 20" refX="20.65" refY="10" markerWidth="10" markerHeight="10" orient="auto"><g transform="rotate(180, 10, 10)" style="fill: white; stroke-width: 1px; stroke-linecap: round; stroke-dasharray: 10000, 1;"><circle cx="10" cy="10" r="9" style="fill: white; stroke: rgb(254, 160, 15); stroke-width: 2px;"/><circle cx="6.5" cy="10" r="2.1" style="stroke: rgb(254, 160, 15); stroke-width: 2px;"/><path d="M9.5 10H12.5M15.5 12.5V10H12.5M12.5 10V12.5" style="stroke: rgb(254, 160, 15); stroke-width: 2px; stroke-linecap: round; stroke-linejoin: round;"/></g></marker><marker id="proposed-condition-flow-end-white-_FEA00F-4rwgd2xm18tnus8hqoxws8asg-right-to-left-left-to-right" viewBox="0 0 20 20" refX="20.65" refY="10" markerWidth="10" markerHeight="10" orient="auto"><g transform="" style="fill: white; stroke-width: 1px; stroke-linecap: round; stroke-dasharray: 10000, 1;"><circle cx="10" cy="10" r="9" style="fill: white; stroke: rgb(254, 160, 15); stroke-width: 2px;"/><circle cx="6.5" cy="10" r="2.1" style="stroke: rgb(254, 160, 15); stroke-width: 2px;"/><path d="M9.5 10H12.5M15.5 12.5V10H12.5M12.5 10V12.5" style="stroke: rgb(254, 160, 15); stroke-width: 2px; stroke-linecap: round; stroke-linejoin: round;"/></g></marker><marker id="proposed-condition-flow-end-white-_FEA00F-4rwgd2xm18tnus8hqoxws8asg-left-to-right-right-to-left" viewBox="0 0 20 20" refX="20.65" refY="10" markerWidth="10" markerHeight="10" orient="auto"><g transform="rotate(180, 10, 10)" style="fill: white; stroke-width: 1px; stroke-linecap: round; stroke-dasharray: 10000, 1;"><circle cx="10" cy="10" r="9" style="fill: white; stroke: rgb(254, 160, 15); stroke-width: 2px;"/><circle cx="6.5" cy="10" r="2.1" style="stroke: rgb(254, 160, 15); stroke-width: 2px;"/><path d="M9.5 10H12.5M15.5 12.5V10H12.5M12.5 10V12.5" style="stroke: rgb(254, 160, 15); stroke-width: 2px; stroke-linecap: round; stroke-linejoin: round;"/></g></marker><marker id="proposed-response-flow-end-white-_2192FF-4rwgd2xm18tnus8hqoxws8asg-left-to-right-right-to-left" viewBox="0 0 20 20" refX="21" refY="10" markerWidth="10" markerHeight="10" orient="auto"><g transform="rotate(180, 10, 10)" style="fill: white; stroke-width: 2; stroke-linecap: round; stroke-dasharray: 10000, 1; stroke: rgb(33, 146, 255);"><circle cx="10" cy="10" r="9"/><path d="M12 0.8V5" transform="translate(-2, 5)" style="stroke-width: 2.3px; stroke-linecap: round;"/><circle cx="10" cy="14" r="0.21"/></g></marker><marker id="proposed-response-flow-end-white-_2192FF-4rwgd2xm18tnus8hqoxws8asg-left-to-right-top-to-bottom" viewBox="0 0 20 20" refX="21" refY="10" markerWidth="10" markerHeight="10" orient="auto"><g transform="rotate(270, 10, 10)" style="fill: white; stroke-width: 2; stroke-linecap: round; stroke-dasharray: 10000, 1; stroke: rgb(33, 146, 255);"><circle cx="10" cy="10" r="9"/><path d="M12 0.8V5" transform="translate(-2, 5)" style="stroke-width: 2.3px; stroke-linecap: round;"/><circle cx="10" cy="14" r="0.21"/></g></marker><marker id="proposed-response-flow-end-white-_2192FF-4rwgd2xm18tnus8hqoxws8asg-top-to-bottom-right-to-left" viewBox="0 0 20 20" refX="21" refY="10" markerWidth="10" markerHeight="10" orient="auto"><g transform="rotate(180, 10, 10)" style="fill: white; stroke-width: 2; stroke-linecap: round; stroke-dasharray: 10000, 1; stroke: rgb(33, 146, 255);"><circle cx="10" cy="10" r="9"/><path d="M12 0.8V5" transform="translate(-2, 5)" style="stroke-width: 2.3px; stroke-linecap: round;"/><circle cx="10" cy="14" r="0.21"/></g></marker><marker id="proposed-response-flow-end-white-_2192FF-4rwgd2xm18tnus8hqoxws8asg-right-to-left-right-to-left" viewBox="0 0 20 20" refX="21" refY="10" markerWidth="10" markerHeight="10" orient="auto"><g transform="rotate(180, 10, 10)" style="fill: white; stroke-width: 2; stroke-linecap: round; stroke-dasharray: 10000, 1; stroke: rgb(33, 146, 255);"><circle cx="10" cy="10" r="9"/><path d="M12 0.8V5" transform="translate(-2, 5)" style="stroke-width: 2.3px; stroke-linecap: round;"/><circle cx="10" cy="14" r="0.21"/></g></marker><marker id="proposed-response-flow-end-white-_2192FF-4rwgd2xm18tnus8hqoxws8asg-right-to-left-top-to-bottom" viewBox="0 0 20 20" refX="21" refY="10" markerWidth="10" markerHeight="10" orient="auto"><g transform="rotate(270, 10, 10)" style="fill: white; stroke-width: 2; stroke-linecap: round; stroke-dasharray: 10000, 1; stroke: rgb(33, 146, 255);"><circle cx="10" cy="10" r="9"/><path d="M12 0.8V5" transform="translate(-2, 5)" style="stroke-width: 2.3px; stroke-linecap: round;"/><circle cx="10" cy="14" r="0.21"/></g></marker><marker id="proposed-response-flow-end-white-_2192FF-4rwgd2xm18tnus8hqoxws8asg-top-to-bottom-top-to-bottom" viewBox="0 0 20 20" refX="21" refY="10" markerWidth="10" markerHeight="10" orient="auto"><g transform="rotate(270, 10, 10)" style="fill: white; stroke-width: 2; stroke-linecap: round; stroke-dasharray: 10000, 1; stroke: rgb(33, 146, 255);"><circle cx="10" cy="10" r="9"/><path d="M12 0.8V5" transform="translate(-2, 5)" style="stroke-width: 2.3px; stroke-linecap: round;"/><circle cx="10" cy="14" r="0.21"/></g></marker><marker id="proposed-condition-flow-end-white-_FEA00F-4rwgd2xm18tnus8hqoxws8asg-left-to-right-bottom-to-top" viewBox="0 0 20 20" refX="20.65" refY="10" markerWidth="10" markerHeight="10" orient="auto"><g transform="rotate(90, 10, 10)" style="fill: white; stroke-width: 1px; stroke-linecap: round; stroke-dasharray: 10000, 1;"><circle cx="10" cy="10" r="9" style="fill: white; stroke: rgb(254, 160, 15); stroke-width: 2px;"/><circle cx="6.5" cy="10" r="2.1" style="stroke: rgb(254, 160, 15); stroke-width: 2px;"/><path d="M9.5 10H12.5M15.5 12.5V10H12.5M12.5 10V12.5" style="stroke: rgb(254, 160, 15); stroke-width: 2px; stroke-linecap: round; stroke-linejoin: round;"/></g></marker><marker id="proposed-exclude-flow-start-_FB1818-_FB1818-4rwgd2xm18tnus8hqoxws8asg-undefined-undefined" viewBox="0 0 20 20" refX="0" refY="7.22" markerWidth="10" markerHeight="10" orient="auto"><path d="M0 24V0L24 12L0 24Z" transform="scale(0.6)" style="fill: rgb(251, 24, 24); stroke-width: 1px; stroke-linecap: round; stroke-dasharray: 10000, 1; stroke: rgb(251, 24, 24);"/></marker><marker id="proposed-exclude-flow-end-white-_FB1818-4rwgd2xm18tnus8hqoxws8asg-left-to-right-bottom-to-top" viewBox="0 0 20 20" refX="21" refY="10" markerWidth="10" markerHeight="10" orient="auto"><g transform="rotate(90, 10, 10)" style="fill: white; stroke-width: 2; stroke-linecap: round; stroke-dasharray: 10000, 1; stroke: rgb(251, 24, 24);"><circle cx="10" cy="10" r="9"/><path d="M16 12H10" transform="translate(-3, -2)" style="fill: rgb(251, 24, 24); stroke-width: 2px; stroke-linecap: round;"/></g></marker><marker id="proposed-response-flow-end-white-_2192FF-4rwgd2xm18tnus8hqoxws8asg-top-to-bottom-bottom-to-top" viewBox="0 0 20 20" refX="21" refY="10" markerWidth="10" markerHeight="10" orient="auto"><g transform="rotate(90, 10, 10)" style="fill: white; stroke-width: 2; stroke-linecap: round; stroke-dasharray: 10000, 1; stroke: rgb(33, 146, 255);"><circle cx="10" cy="10" r="9"/><path d="M12 0.8V5" transform="translate(-2, 5)" style="stroke-width: 2.3px; stroke-linecap: round;"/><circle cx="10" cy="14" r="0.21"/></g></marker><marker id="proposed-milestone-flow-end-white-_A932D0-4rwgd2xm18tnus8hqoxws8asg-left-to-right-left-to-right" viewBox="0 0 20 20" refX="20.65" refY="10" markerWidth="10" markerHeight="10" orient="auto"><g transform="" style="fill: white; stroke-width: 1px; stroke-linecap: round; stroke-dasharray: 10000, 1;"><circle cx="10" cy="10" r="9" style="fill: white; stroke: rgb(169, 50, 208); stroke-width: 2px;"/><circle cx="6.5" cy="10" r="2.1" style="stroke: rgb(169, 50, 208); stroke-width: 2px;"/><path d="M9.5 10H12.5M15.5 12.5V10H12.5M12.5 10V12.5" style="stroke: rgb(169, 50, 208); stroke-width: 2px; stroke-linecap: round; stroke-linejoin: round;"/></g></marker><marker id="proposed-milestone-flow-start-white-_A932D0-4rwgd2xm18tnus8hqoxws8asg-left-to-right-left-to-right" viewBox="0 0 20 20" refX="1.5" refY="4.7" markerWidth="20" markerHeight="20" orient="auto"><g style="fill: white; stroke-width: 1px; stroke-linecap: round; stroke-dasharray: 10000, 1; stroke: rgb(169, 50, 208);"><path d="M3,1 l17,8.5 l-17,8.5 z" transform="scale(0.5)" style="stroke-width: 2;"/><g transform=" "><path d="M3 2.7V4.8" style="stroke-width: 1px; stroke-linecap: round;"/><circle cx="3" cy="6.5" r="0.1"/></g></g></marker><marker id="proposed-condition-flow-end-white-_FEA00F-4rwgd2xm18tnus8hqoxws8asg-bottom-to-top-bottom-to-top" viewBox="0 0 20 20" refX="20.65" refY="10" markerWidth="10" markerHeight="10" orient="auto"><g transform="rotate(90, 10, 10)" style="fill: white; stroke-width: 1px; stroke-linecap: round; stroke-dasharray: 10000, 1;"><circle cx="10" cy="10" r="9" style="fill: white; stroke: rgb(254, 160, 15); stroke-width: 2px;"/><circle cx="6.5" cy="10" r="2.1" style="stroke: rgb(254, 160, 15); stroke-width: 2px;"/><path d="M9.5 10H12.5M15.5 12.5V10H12.5M12.5 10V12.5" style="stroke: rgb(254, 160, 15); stroke-width: 2px; stroke-linecap: round; stroke-linejoin: round;"/></g></marker></defs><g class="djs-group"><g class="djs-element djs-shape" data-element-id="SubProcess_1fhz1v1" style="display: block;" transform="matrix(1 0 0 1 500 115)"><g class="djs-visual"><rect x="0" y="0" width="400" height="280" rx="7" ry="7" style="fill: white; fill-opacity: 0.35; stroke: black; stroke-width: 2px;"/><text lineHeight="1.2" class="djs-label" style="font-family: 'IBM Plex', sans-serif; font-size: 16px; font-weight: normal;"><tspan x="101.9609375" y="19.4">Assess Conflict of Interests</tspan></text><path d="m 385,275 l0.95,-1.875a4.639,4.639,0,0,0,0.786,0.531q0.389,0.212,0.852, 0.382a6.018,6.018,0,0,0,1.902,0.359a6.866,6.866,0,0,0,0.21,0.003a6.778,6.778, 0,0,0,0.771,-0.041q0.796,-0.091,1.288,-0.388a1.934,1.934,0,0,0,0.054, -0.033a1.862,1.862,0,0,0,0.383,-0.324a1.263,1.263,0,0,0,0.329,-0.864a1.781, 1.781,0,0,0,-0.079,-0.537a1.553,1.553,0,0,0,-0.183,-0.388q-0.263,-0.4,-0.963, -0.787a7.116,7.116,0,0,0,-0.499,-0.249q-0.529,-0.24,-1.276,-0.503a25.896, 25.896,0,0,0,-0.25,-0.086a11.654,11.654,0,0,1,-1.099,-0.436q-1.025,-0.472, -1.638,-1.051a2.831,2.831,0,0,1,-0.824,-1.5a4.198,4.198,0,0,1,-0.089,-0.888a3.03, 3.03,0,0,1,0.987,-2.254a4.366,4.366,0,0,1,0.326,-0.283a4.441,4.441,0,0,1,1.509, -0.762q0.929,-0.276,2.128,-0.276q1.25,0,2.225,0.263a9.692,9.692,0,0,1,1.034, 0.338a7.778,7.778,0,0,1,0.716,0.324l-0.625,1.85a6.132,6.132,0,0,0,-0.917, -0.441a7.548,7.548,0,0,0,-0.62,-0.209q-0.863,-0.25,-1.913,-0.25a5.158,5.158,0, 0,0,-0.734,0.049q-0.772,0.111,-1.241,0.476a2.33,2.33,0,0,0,-0.339,0.318q-0.176, 0.205,-0.26,0.423a1.132,1.132,0,0,0,-0.076,0.409a1.23,1.23,0,0,0,0.374,0.888a1.771, 1.771,0,0,0,0.151,0.137q0.516,0.418,2,0.908a21.155,21.155,0,0,0,0.05,0.017a16.938, 16.938,0,0,1,1.266,0.475q1.203,0.511,1.892,1.082a3.737,3.737,0,0,1,0.292,0.268q0.975, 1,0.975,2.5a3.468,3.468,0,0,1,-0.266,1.379q-0.346,0.81,-1.146,1.384q-1.185,0.849, -3.048,0.986a10.106,10.106,0,0,1,-0.74,0.026a9.997,9.997,0,0,1,-1.465,-0.103a7.737, 7.737,0,0,1,-1.197,-0.272a7.721,7.721,0,0,1,-0.961,-0.371q-0.566,-0.266,-1.002,-0.604z" data-marker="subprocess" style="fill: grey; stroke-width: 1px; stroke: grey;"/></g><rect class="djs-hit djs-hit-all" x="0" y="0" width="400" height="280" style="fill: none; stroke-opacity: 0; stroke: white; stroke-width: 15px;"/><rect x="-5" y="-5" rx="4" width="410" height="290" class="djs-outline" style="fill: none;"/></g><g class="djs-children"><g class="djs-group"><g class="djs-element djs-connection" data-element-id="Relation_06xe9tv" style="display: block;"><g class="djs-visual"><path d="m  670,245L730,245 " style="fill: none; stroke-width: 2px; stroke-linejoin: round; stroke: rgb(33, 146, 255); marker-start: url('#proposed-response-flow-start-_2192FF-_2192FF-4rwgd2xm18tnus8hqoxws8asg-undefined-undefined'); marker-end: url('#proposed-response-flow-end-white-_2192FF-4rwgd2xm18tnus8hqoxws8asg-left-to-right-left-to-right');"/></g><path d="M670,245L730,245" class="djs-hit djs-hit-stroke" style="fill: none; stroke-opacity: 0; stroke: white; stroke-width: 15px;"/><rect x="665" y="240" rx="4" width="70" height="10" class="djs-outline" style="fill: none;"/></g></g><g class="djs-group"><g class="djs-element djs-shape" data-element-id="Event_0fa2ln8" style="display: block;" transform="matrix(1 0 0 1 540 170)"><g class="djs-visual"><rect x="0" y="0" width="130" height="150" rx="7" ry="7" style="fill: white; fill-opacity: 0.35; stroke: black; stroke-width: 2px;"/><path style="fill: none; stroke: black; stroke-width: 2px;" d="M0,30L130,30"/><text lineHeight="1.2" class="djs-label" style="font-family: 'IBM Plex', sans-serif; font-size: 16px; font-weight: normal;"><tspan x="65" y="19.8"/></text><text lineHeight="1.2" class="djs-label" style="font-family: 'IBM Plex', sans-serif; font-size: 16px; font-weight: normal;"><tspan x="34.765625" y="66">Disclose </tspan><tspan x="30.15625" y="85.2">reviewers </tspan><tspan x="31.765625" y="104.4">names to </tspan><tspan x="31.6171875" y="123.60000000000001">applicant</tspan></text></g><rect class="djs-hit djs-hit-all" x="0" y="0" width="130" height="150" style="fill: none; stroke-opacity: 0; stroke: white; stroke-width: 15px;"/><rect x="-5" y="-5" rx="4" width="140" height="160" class="djs-outline" style="fill: none;"/></g></g><g class="djs-group"><g class="djs-element djs-shape" data-element-id="Event_1as2ff2" style="display: block;" transform="matrix(1 0 0 1 730 170)"><g class="djs-visual"><rect x="0" y="0" width="130" height="150" rx="7" ry="7" style="fill: white; fill-opacity: 0.35; stroke: black; stroke-width: 2px;"/><path style="fill: none; stroke: black; stroke-width: 2px;" d="M0,30L130,30"/><text lineHeight="1.2" class="djs-label" style="font-family: 'IBM Plex', sans-serif; font-size: 16px; font-weight: normal;"><tspan x="65" y="19.8"/></text><text lineHeight="1.2" class="djs-label" style="font-family: 'IBM Plex', sans-serif; font-size: 16px; font-weight: normal;"><tspan x="7.453125" y="56.400000000000006">Filter Reviewers </tspan><tspan x="11.109375" y="75.60000000000001">with Conflict of </tspan><tspan x="32.25" y="94.80000000000001">Interests </tspan><tspan x="7.21875" y="114.00000000000001">according to the</tspan><tspan x="7.546875" y="133.20000000000002">applicant report</tspan></text></g><rect class="djs-hit djs-hit-all" x="0" y="0" width="130" height="150" style="fill: none; stroke-opacity: 0; stroke: white; stroke-width: 15px;"/><rect x="-5" y="-5" rx="4" width="140" height="160" class="djs-outline" style="fill: none;"/></g></g></g></g><g class="djs-group"><g class="djs-element djs-connection" data-element-id="Relation_1q3uoeh" style="display: block;"><g class="djs-visual"><path d="m  300,-125L355,-125 " style="fill: none; stroke-width: 2px; stroke-linejoin: round; stroke: rgb(254, 160, 15); marker-end: url('#proposed-condition-flow-end-white-_FEA00F-4rwgd2xm18tnus8hqoxws8asg-left-to-right-left-to-right'); marker-start: url('#proposed-condition-flow-start-_FEA00F-_FEA00F-4rwgd2xm18tnus8hqoxws8asg-undefined-undefined');"/></g><path d="M300,-125L355,-125" class="djs-hit djs-hit-stroke" style="fill: none; stroke-opacity: 0; stroke: white; stroke-width: 15px;"/><rect x="295" y="-130" rx="4" width="65" height="10" class="djs-outline" style="fill: none;"/></g></g><g class="djs-group"><g class="djs-element djs-connection" data-element-id="Relation_144xd9q" style="display: block;"><g class="djs-visual"><path d="m  485,-140L545,-140 " style="fill: none; stroke-width: 2px; stroke-linejoin: round; stroke: rgb(33, 146, 255); marker-start: url('#proposed-response-flow-start-_2192FF-_2192FF-4rwgd2xm18tnus8hqoxws8asg-undefined-undefined'); marker-end: url('#proposed-response-flow-end-white-_2192FF-4rwgd2xm18tnus8hqoxws8asg-left-to-right-left-to-right');"/></g><path d="M485,-140L545,-140" class="djs-hit djs-hit-stroke" style="fill: none; stroke-opacity: 0; stroke: white; stroke-width: 15px;"/><rect x="480" y="-145" rx="4" width="70" height="10" class="djs-outline" style="fill: none;"/></g></g><g class="djs-group"><g class="djs-element djs-connection" data-element-id="Relation_0bifg9s" style="display: block;"><g class="djs-visual"><path d="m  675,-125L735,-125 " style="fill: none; stroke-width: 2px; stroke-linejoin: round; stroke: rgb(33, 146, 255); marker-start: url('#proposed-response-flow-start-_2192FF-_2192FF-4rwgd2xm18tnus8hqoxws8asg-undefined-undefined'); marker-end: url('#proposed-response-flow-end-white-_2192FF-4rwgd2xm18tnus8hqoxws8asg-left-to-right-left-to-right');"/></g><path d="M675,-125L735,-125" class="djs-hit djs-hit-stroke" style="fill: none; stroke-opacity: 0; stroke: white; stroke-width: 15px;"/><rect x="670" y="-130" rx="4" width="70" height="10" class="djs-outline" style="fill: none;"/></g></g><g class="djs-group"><g class="djs-element djs-connection" data-element-id="Relation_1lso2h2" style="display: block;"><g class="djs-visual"><path d="m  865,-90L925,-90 " style="fill: none; stroke-width: 2px; stroke-linejoin: round; stroke: rgb(33, 146, 255); marker-start: url('#proposed-response-flow-start-_2192FF-_2192FF-4rwgd2xm18tnus8hqoxws8asg-undefined-undefined'); marker-end: url('#proposed-response-flow-end-white-_2192FF-4rwgd2xm18tnus8hqoxws8asg-left-to-right-left-to-right');"/></g><path d="M865,-90L925,-90" class="djs-hit djs-hit-stroke" style="fill: none; stroke-opacity: 0; stroke: white; stroke-width: 15px;"/><rect x="860" y="-95" rx="4" width="70" height="10" class="djs-outline" style="fill: none;"/></g></g><g class="djs-group"><g class="djs-element djs-connection" data-element-id="Relation_00oi2jp" style="display: block;"><g class="djs-visual"><path d="m  290,175L390,175 L390,-50 " style="fill: none; stroke-width: 2px; stroke-linejoin: round; stroke: rgb(251, 24, 24); marker-start: url('#proposed-exclude-flow-start-_FB1818-_FB1818-4rwgd2xm18tnus8hqoxws8asg-undefined-undefined'); marker-end: url('#proposed-exclude-flow-end-white-_FB1818-4rwgd2xm18tnus8hqoxws8asg-left-to-right-bottom-to-top');"/></g><path d="M290,175L390,175L390,-50" class="djs-hit djs-hit-stroke" style="fill: none; stroke-opacity: 0; stroke: white; stroke-width: 15px;"/><rect x="285" y="-55" rx="4" width="110" height="235" class="djs-outline" style="fill: none;"/></g></g><g class="djs-group"><g class="djs-element djs-connection" data-element-id="Relation_1f03k3v" style="display: block;"><g class="djs-visual"><path d="m  450,-50L450,175 L500,175 " style="fill: none; stroke-width: 2px; stroke-linejoin: round; stroke: rgb(254, 160, 15); marker-end: url('#proposed-condition-flow-end-white-_FEA00F-4rwgd2xm18tnus8hqoxws8asg-top-to-bottom-left-to-right'); marker-start: url('#proposed-condition-flow-start-_FEA00F-_FEA00F-4rwgd2xm18tnus8hqoxws8asg-undefined-undefined');"/></g><path d="M450,-50L450,175L500,175" class="djs-hit djs-hit-stroke" style="fill: none; stroke-opacity: 0; stroke: white; stroke-width: 15px;"/><rect x="445" y="-55" rx="4" width="60" height="235" class="djs-outline" style="fill: none;"/></g></g><g class="djs-group"><g class="djs-element djs-connection" data-element-id="Relation_1twp5ft" style="display: block;"><g class="djs-visual"><path d="m  865,-125L925,-125 " style="fill: none; stroke-width: 2px; stroke-linejoin: round; stroke: rgb(169, 50, 208); marker-end: url('#proposed-milestone-flow-end-white-_A932D0-4rwgd2xm18tnus8hqoxws8asg-left-to-right-left-to-right'); marker-start: url('#proposed-milestone-flow-start-white-_A932D0-4rwgd2xm18tnus8hqoxws8asg-left-to-right-left-to-right');"/></g><path d="M865,-125L925,-125" class="djs-hit djs-hit-stroke" style="fill: none; stroke-opacity: 0; stroke: white; stroke-width: 15px;"/><rect x="860" y="-130" rx="4" width="70" height="10" class="djs-outline" style="fill: none;"/></g></g><g class="djs-group"><g class="djs-element djs-connection" data-element-id="Relation_1xw2c29" style="display: block;"><g class="djs-visual"><path d="m  610,115L610,-50 " style="fill: none; stroke-width: 2px; stroke-linejoin: round; stroke: rgb(254, 160, 15); marker-end: url('#proposed-condition-flow-end-white-_FEA00F-4rwgd2xm18tnus8hqoxws8asg-bottom-to-top-bottom-to-top'); marker-start: url('#proposed-condition-flow-start-_FEA00F-_FEA00F-4rwgd2xm18tnus8hqoxws8asg-undefined-undefined');"/></g><path d="M610,115L610,-50" class="djs-hit djs-hit-stroke" style="fill: none; stroke-opacity: 0; stroke: white; stroke-width: 15px;"/><rect x="605" y="-55" rx="4" width="10" height="175" class="djs-outline" style="fill: none;"/></g></g><g class="djs-group"><g class="djs-element djs-shape" data-element-id="Event_1sf8tgw" style="display: block;" transform="matrix(1 0 0 1 170 -200)"><g class="djs-visual"><rect x="0" y="0" width="130" height="150" rx="7" ry="7" style="fill: white; fill-opacity: 0.35; stroke: black; stroke-width: 2px;"/><path style="fill: none; stroke: black; stroke-width: 2px;" d="M0,30L130,30"/><text lineHeight="1.2" class="djs-label" style="font-family: 'IBM Plex', sans-serif; font-size: 16px; font-weight: normal;"><tspan x="65" y="19.8"/></text><text lineHeight="1.2" class="djs-label" style="font-family: 'IBM Plex', sans-serif; font-size: 16px; font-weight: normal;"><tspan x="7.9765625" y="85.2">Start Evaluation</tspan><tspan x="41.7890625" y="104.4">Round</tspan></text></g><rect class="djs-hit djs-hit-all" x="0" y="0" width="130" height="150" style="fill: none; stroke-opacity: 0; stroke: white; stroke-width: 15px;"/><rect x="-5" y="-5" rx="4" width="140" height="160" class="djs-outline" style="fill: none;"/></g></g><g class="djs-group"><g class="djs-element djs-shape" data-element-id="Event_191im4m" style="display: block;" transform="matrix(1 0 0 1 355 -200)"><g class="djs-visual"><rect x="0" y="0" width="130" height="150" rx="7" ry="7" style="fill: white; fill-opacity: 0.35; stroke: black; stroke-width: 2px;"/><path style="fill: none; stroke: black; stroke-width: 2px;" d="M0,30L130,30"/><text lineHeight="1.2" class="djs-label" style="font-family: 'IBM Plex', sans-serif; font-size: 16px; font-weight: normal;"><tspan x="65" y="19.8"/></text><text lineHeight="1.2" class="djs-label" style="font-family: 'IBM Plex', sans-serif; font-size: 16px; font-weight: normal;"><tspan x="36.96875" y="85.2">Receive </tspan><tspan x="24.28125" y="104.4">Application</tspan></text></g><rect class="djs-hit djs-hit-all" x="0" y="0" width="130" height="150" style="fill: none; stroke-opacity: 0; stroke: white; stroke-width: 15px;"/><rect x="-5" y="-5" rx="4" width="140" height="160" class="djs-outline" style="fill: none;"/></g></g><g class="djs-group"><g class="djs-element djs-shape" data-element-id="Event_1gdggek" style="display: block;" transform="matrix(1 0 0 1 545 -200)"><g class="djs-visual"><rect x="0" y="0" width="130" height="150" rx="7" ry="7" style="fill: white; fill-opacity: 0.35; stroke: black; stroke-width: 2px;"/><path style="fill: none; stroke: black; stroke-width: 2px;" d="M0,30L130,30"/><text lineHeight="1.2" class="djs-label" style="font-family: 'IBM Plex', sans-serif; font-size: 16px; font-weight: normal;"><tspan x="65" y="19.8"/></text><text lineHeight="1.2" class="djs-label" style="font-family: 'IBM Plex', sans-serif; font-size: 16px; font-weight: normal;"><tspan x="25.40625" y="85.2">Host board </tspan><tspan x="35.6484375" y="104.4">meeting</tspan></text></g><rect class="djs-hit djs-hit-all" x="0" y="0" width="130" height="150" style="fill: none; stroke-opacity: 0; stroke: white; stroke-width: 15px;"/><rect x="-5" y="-5" rx="4" width="140" height="160" class="djs-outline" style="fill: none;"/></g></g><g class="djs-group"><g class="djs-element djs-shape" data-element-id="Event_094x5ae" style="display: block;" transform="matrix(1 0 0 1 735 -200)"><g class="djs-visual"><rect x="0" y="0" width="130" height="150" rx="7" ry="7" style="fill: white; fill-opacity: 0.35; stroke: black; stroke-width: 2px;"/><path style="fill: none; stroke: black; stroke-width: 2px;" d="M0,30L130,30"/><text lineHeight="1.2" class="djs-label" style="font-family: 'IBM Plex', sans-serif; font-size: 16px; font-weight: normal;"><tspan x="65" y="19.8"/></text><text lineHeight="1.2" class="djs-label" style="font-family: 'IBM Plex', sans-serif; font-size: 16px; font-weight: normal;"><tspan x="12.6796875" y="94.80000000000001">Update Report</tspan></text></g><rect class="djs-hit djs-hit-all" x="0" y="0" width="130" height="150" style="fill: none; stroke-opacity: 0; stroke: white; stroke-width: 15px;"/><rect x="-5" y="-5" rx="4" width="140" height="160" class="djs-outline" style="fill: none;"/></g></g><g class="djs-group"><g class="djs-element djs-shape" data-element-id="Event_1pnwfru" style="display: block;" transform="matrix(1 0 0 1 925 -200)"><g class="djs-visual"><rect x="0" y="0" width="130" height="150" rx="7" ry="7" style="fill: white; fill-opacity: 0.35; stroke: black; stroke-width: 2px;"/><path style="fill: none; stroke: black; stroke-width: 2px;" d="M0,30L130,30"/><text lineHeight="1.2" class="djs-label" style="font-family: 'IBM Plex', sans-serif; font-size: 16px; font-weight: normal;"><tspan x="65" y="19.8"/></text><text lineHeight="1.2" class="djs-label" style="font-family: 'IBM Plex', sans-serif; font-size: 16px; font-weight: normal;"><tspan x="8.8359375" y="94.80000000000001">Approve Report</tspan></text></g><rect class="djs-hit djs-hit-all" x="0" y="0" width="130" height="150" style="fill: none; stroke-opacity: 0; stroke: white; stroke-width: 15px;"/><rect x="-5" y="-5" rx="4" width="140" height="160" class="djs-outline" style="fill: none;"/></g></g><g class="djs-group"><g class="djs-element djs-shape" data-element-id="Event_1upi9ve" style="display: block;" transform="matrix(1 0 0 1 160 100)"><g class="djs-visual"><rect x="0" y="0" width="130" height="150" rx="7" ry="7" style="fill: white; fill-opacity: 0.35; stroke: black; stroke-width: 2px;"/><path style="fill: none; stroke: black; stroke-width: 2px;" d="M0,30L130,30"/><text lineHeight="1.2" class="djs-label" style="font-family: 'IBM Plex', sans-serif; font-size: 16px; font-weight: normal;"><tspan x="65" y="19.8"/></text><text lineHeight="1.2" class="djs-label" style="font-family: 'IBM Plex', sans-serif; font-size: 16px; font-weight: normal;"><tspan x="24.28125" y="85.2">Application </tspan><tspan x="5.5078125" y="104.4">Deadline Passed</tspan></text></g><rect class="djs-hit djs-hit-all" x="0" y="0" width="130" height="150" style="fill: none; stroke-opacity: 0; stroke: white; stroke-width: 15px;"/><rect x="-5" y="-5" rx="4" width="140" height="160" class="djs-outline" style="fill: none;"/></g></g></svg>
