<?xml version="1.0" encoding="utf-8"?>
<!-- created with diagram-js -->
<!DOCTYPE svg PUBLIC "-//W3C//DTD SVG 1.1//EN" "http://www.w3.org/Graphics/SVG/1.1/DTD/svg11.dtd">
<svg xmlns="http://www.w3.org/2000/svg" xmlns:xlink="http://www.w3.org/1999/xlink" width="510" height="480" viewBox="175 175 510 480" version="1.1"><defs><marker id="proposed-condition-flow-end-white-_FEA00F-6bl0sj84nb35vcf7t2lkq9k0f-left-to-right-left-to-right" viewBox="0 0 20 20" refX="20.65" refY="10" markerWidth="10" markerHeight="10" orient="auto"><g transform="" style="fill: white; stroke-width: 1px; stroke-linecap: round; stroke-dasharray: 10000, 1;"><circle cx="10" cy="10" r="9" style="fill: white; stroke: rgb(254, 160, 15); stroke-width: 2px;"/><circle cx="6.5" cy="10" r="2.1" style="stroke: rgb(254, 160, 15); stroke-width: 2px;"/><path d="M9.5 10H12.5M15.5 12.5V10H12.5M12.5 10V12.5" style="stroke: rgb(254, 160, 15); stroke-width: 2px; stroke-linecap: round; stroke-linejoin: round;"/></g></marker><marker id="proposed-condition-flow-start-_FEA00F-_FEA00F-6bl0sj84nb35vcf7t2lkq9k0f-undefined-undefined" viewBox="0 0 20 20" refX="0" refY="7.22" markerWidth="10" markerHeight="10" orient="auto"><path d="M0 24V0L24 12L0 24Z" transform="scale(0.6)" style="fill: rgb(254, 160, 15); stroke-width: 1px; stroke-linecap: round; stroke-dasharray: 10000, 1; stroke: rgb(254, 160, 15);"/></marker><marker id="proposed-condition-flow-end-white-_FEA00F-6bl0sj84nb35vcf7t2lkq9k0f-bottom-to-top-bottom-to-top" viewBox="0 0 20 20" refX="20.65" refY="10" markerWidth="10" markerHeight="10" orient="auto"><g transform="rotate(90, 10, 10)" style="fill: white; stroke-width: 1px; stroke-linecap: round; stroke-dasharray: 10000, 1;"><circle cx="10" cy="10" r="9" style="fill: white; stroke: rgb(254, 160, 15); stroke-width: 2px;"/><circle cx="6.5" cy="10" r="2.1" style="stroke: rgb(254, 160, 15); stroke-width: 2px;"/><path d="M9.5 10H12.5M15.5 12.5V10H12.5M12.5 10V12.5" style="stroke: rgb(254, 160, 15); stroke-width: 2px; stroke-linecap: round; stroke-linejoin: round;"/></g></marker><marker id="proposed-condition-flow-end-white-_FEA00F-6bl0sj84nb35vcf7t2lkq9k0f-top-to-bottom-top-to-bottom" viewBox="0 0 20 20" refX="20.65" refY="10" markerWidth="10" markerHeight="10" orient="auto"><g transform="rotate(270, 10, 10)" style="fill: white; stroke-width: 1px; stroke-linecap: round; stroke-dasharray: 10000, 1;"><circle cx="10" cy="10" r="9" style="fill: white; stroke: rgb(254, 160, 15); stroke-width: 2px;"/><circle cx="6.5" cy="10" r="2.1" style="stroke: rgb(254, 160, 15); stroke-width: 2px;"/><path d="M9.5 10H12.5M15.5 12.5V10H12.5M12.5 10V12.5" style="stroke: rgb(254, 160, 15); stroke-width: 2px; stroke-linecap: round; stroke-linejoin: round;"/></g></marker><marker id="proposed-response-flow-start-_2192FF-_2192FF-6bl0sj84nb35vcf7t2lkq9k0f-undefined-undefined" viewBox="0 0 20 20" refX="0" refY="7.22" markerWidth="10" markerHeight="10" orient="auto"><path d="M0 24V0L24 12L0 24Z" transform="scale(0.6)" style="fill: rgb(33, 146, 255); stroke-width: 1px; stroke-linecap: round; stroke-dasharray: 10000, 1; stroke: rgb(33, 146, 255);"/></marker><marker id="proposed-response-flow-end-white-_2192FF-6bl0sj84nb35vcf7t2lkq9k0f-left-to-right-left-to-right" viewBox="0 0 20 20" refX="21" refY="10" markerWidth="10" markerHeight="10" orient="auto"><g transform="" style="fill: white; stroke-width: 2; stroke-linecap: round; stroke-dasharray: 10000, 1; stroke: rgb(33, 146, 255);"><circle cx="10" cy="10" r="9"/><path d="M12 0.8V5" transform="translate(-2, 5)" style="stroke-width: 2.3px; stroke-linecap: round;"/><circle cx="10" cy="14" r="0.21"/></g></marker><marker id="proposed-response-flow-end-white-_2192FF-6bl0sj84nb35vcf7t2lkq9k0f-bottom-to-top-bottom-to-top" viewBox="0 0 20 20" refX="21" refY="10" markerWidth="10" markerHeight="10" orient="auto"><g transform="rotate(90, 10, 10)" style="fill: white; stroke-width: 2; stroke-linecap: round; stroke-dasharray: 10000, 1; stroke: rgb(33, 146, 255);"><circle cx="10" cy="10" r="9"/><path d="M12 0.8V5" transform="translate(-2, 5)" style="stroke-width: 2.3px; stroke-linecap: round;"/><circle cx="10" cy="14" r="0.21"/></g></marker><marker id="proposed-exclude-flow-start-_FB1818-_FB1818-6bl0sj84nb35vcf7t2lkq9k0f-undefined-undefined" viewBox="0 0 20 20" refX="0" refY="7.22" markerWidth="10" markerHeight="10" orient="auto"><path d="M0 24V0L24 12L0 24Z" transform="scale(0.6)" style="fill: rgb(251, 24, 24); stroke-width: 1px; stroke-linecap: round; stroke-dasharray: 10000, 1; stroke: rgb(251, 24, 24);"/></marker><marker id="proposed-exclude-flow-end-white-_FB1818-6bl0sj84nb35vcf7t2lkq9k0f-bottom-to-top-top-to-bottom" viewBox="0 0 20 20" refX="21" refY="10" markerWidth="10" markerHeight="10" orient="auto"><g transform="rotate(270, 10, 10)" style="fill: white; stroke-width: 2; stroke-linecap: round; stroke-dasharray: 10000, 1; stroke: rgb(251, 24, 24);"><circle cx="10" cy="10" r="9"/><path d="M16 12H10" transform="translate(-3, -2)" style="fill: rgb(251, 24, 24); stroke-width: 2px; stroke-linecap: round;"/></g></marker><marker id="proposed-include-flow-start-_2CA81A-_2CA81A-6bl0sj84nb35vcf7t2lkq9k0f-undefined-undefined" viewBox="0 0 20 20" refX="0" refY="7.22" markerWidth="10" markerHeight="10" orient="auto"><path d="M0 24V0L24 12L0 24Z" transform="scale(0.6)" style="fill: rgb(44, 168, 26); stroke-width: 1px; stroke-linecap: round; stroke-dasharray: 10000, 1; stroke: rgb(44, 168, 26);"/></marker><marker id="proposed-include-flow-end-white-_2CA81A-6bl0sj84nb35vcf7t2lkq9k0f-top-to-bottom-top-to-bottom" viewBox="0 0 20 20" refX="21" refY="10" markerWidth="10" markerHeight="10" orient="auto"><g transform="rotate(270, 10, 10)" style="fill: white; stroke-width: 2; stroke-linecap: round; stroke-dasharray: 10000, 1; stroke: rgb(44, 168, 26);"><circle cx="10" cy="10" r="9"/><path d="M16 12L8 12M12 16L12 8" transform="translate(-2, -2)" style="fill: rgb(44, 168, 26); stroke-width: 2px; stroke-linecap: round;"/></g></marker><marker id="proposed-include-flow-end-white-_2CA81A-6bl0sj84nb35vcf7t2lkq9k0f-left-to-right-left-to-right" viewBox="0 0 20 20" refX="21" refY="10" markerWidth="10" markerHeight="10" orient="auto"><g transform="" style="fill: white; stroke-width: 2; stroke-linecap: round; stroke-dasharray: 10000, 1; stroke: rgb(44, 168, 26);"><circle cx="10" cy="10" r="9"/><path d="M16 12L8 12M12 16L12 8" transform="translate(-2, -2)" style="fill: rgb(44, 168, 26); stroke-width: 2px; stroke-linecap: round;"/></g></marker><marker id="proposed-condition-flow-end-white-_FEA00F-6bl0sj84nb35vcf7t2lkq9k0f-left-to-right-right-to-left" viewBox="0 0 20 20" refX="20.65" refY="10" markerWidth="10" markerHeight="10" orient="auto"><g transform="rotate(180, 10, 10)" style="fill: white; stroke-width: 1px; stroke-linecap: round; stroke-dasharray: 10000, 1;"><circle cx="10" cy="10" r="9" style="fill: white; stroke: rgb(254, 160, 15); stroke-width: 2px;"/><circle cx="6.5" cy="10" r="2.1" style="stroke: rgb(254, 160, 15); stroke-width: 2px;"/><path d="M9.5 10H12.5M15.5 12.5V10H12.5M12.5 10V12.5" style="stroke: rgb(254, 160, 15); stroke-width: 2px; stroke-linecap: round; stroke-linejoin: round;"/></g></marker><marker id="proposed-response-flow-end-white-_2192FF-6bl0sj84nb35vcf7t2lkq9k0f-left-to-right-right-to-left" viewBox="0 0 20 20" refX="21" refY="10" markerWidth="10" markerHeight="10" orient="auto"><g transform="rotate(180, 10, 10)" style="fill: white; stroke-width: 2; stroke-linecap: round; stroke-dasharray: 10000, 1; stroke: rgb(33, 146, 255);"><circle cx="10" cy="10" r="9"/><path d="M12 0.8V5" transform="translate(-2, 5)" style="stroke-width: 2.3px; stroke-linecap: round;"/><circle cx="10" cy="14" r="0.21"/></g></marker><marker id="proposed-response-flow-end-white-_2192FF-6bl0sj84nb35vcf7t2lkq9k0f-left-to-right-top-to-bottom" viewBox="0 0 20 20" refX="21" refY="10" markerWidth="10" markerHeight="10" orient="auto"><g transform="rotate(270, 10, 10)" style="fill: white; stroke-width: 2; stroke-linecap: round; stroke-dasharray: 10000, 1; stroke: rgb(33, 146, 255);"><circle cx="10" cy="10" r="9"/><path d="M12 0.8V5" transform="translate(-2, 5)" style="stroke-width: 2.3px; stroke-linecap: round;"/><circle cx="10" cy="14" r="0.21"/></g></marker><marker id="proposed-condition-flow-end-white-_FEA00F-6bl0sj84nb35vcf7t2lkq9k0f-top-to-bottom-left-to-right" viewBox="0 0 20 20" refX="20.65" refY="10" markerWidth="10" markerHeight="10" orient="auto"><g transform="" style="fill: white; stroke-width: 1px; stroke-linecap: round; stroke-dasharray: 10000, 1;"><circle cx="10" cy="10" r="9" style="fill: white; stroke: rgb(254, 160, 15); stroke-width: 2px;"/><circle cx="6.5" cy="10" r="2.1" style="stroke: rgb(254, 160, 15); stroke-width: 2px;"/><path d="M9.5 10H12.5M15.5 12.5V10H12.5M12.5 10V12.5" style="stroke: rgb(254, 160, 15); stroke-width: 2px; stroke-linecap: round; stroke-linejoin: round;"/></g></marker><marker id="proposed-response-flow-end-white-_2192FF-6bl0sj84nb35vcf7t2lkq9k0f-top-to-bottom-left-to-right" viewBox="0 0 20 20" refX="21" refY="10" markerWidth="10" markerHeight="10" orient="auto"><g transform="" style="fill: white; stroke-width: 2; stroke-linecap: round; stroke-dasharray: 10000, 1; stroke: rgb(33, 146, 255);"><circle cx="10" cy="10" r="9"/><path d="M12 0.8V5" transform="translate(-2, 5)" style="stroke-width: 2.3px; stroke-linecap: round;"/><circle cx="10" cy="14" r="0.21"/></g></marker><marker id="proposed-milestone-flow-end-white-_A932D0-6bl0sj84nb35vcf7t2lkq9k0f-bottom-to-top-bottom-to-top" viewBox="0 0 20 20" refX="20.65" refY="10" markerWidth="10" markerHeight="10" orient="auto"><g transform="rotate(90, 10, 10)" style="fill: white; stroke-width: 1px; stroke-linecap: round; stroke-dasharray: 10000, 1;"><circle cx="10" cy="10" r="9" style="fill: white; stroke: rgb(169, 50, 208); stroke-width: 2px;"/><circle cx="6.5" cy="10" r="2.1" style="stroke: rgb(169, 50, 208); stroke-width: 2px;"/><path d="M9.5 10H12.5M15.5 12.5V10H12.5M12.5 10V12.5" style="stroke: rgb(169, 50, 208); stroke-width: 2px; stroke-linecap: round; stroke-linejoin: round;"/></g></marker><marker id="proposed-milestone-flow-start-white-_A932D0-6bl0sj84nb35vcf7t2lkq9k0f-bottom-to-top-bottom-to-top" viewBox="0 0 20 20" refX="1.5" refY="4.7" markerWidth="20" markerHeight="20" orient="auto"><g style="fill: white; stroke-width: 1px; stroke-linecap: round; stroke-dasharray: 10000, 1; stroke: rgb(169, 50, 208);"><path d="M3,1 l17,8.5 l-17,8.5 z" transform="scale(0.5)" style="stroke-width: 2;"/><g transform="translate(-10.5, 1.8) rotate(90, 10, 10)"><path d="M3 2.7V4.8" style="stroke-width: 1px; stroke-linecap: round;"/><circle cx="3" cy="6.5" r="0.1"/></g></g></marker></defs><g class="djs-group"><g class="djs-element djs-connection" data-element-id="Relation_0cn7s17" style="display: block;"><g class="djs-visual"><path d="m  245,330L245,410 L350,410 L350,560 L550,560 " style="fill: none; stroke-width: 2px; stroke-linejoin: round; stroke: rgb(254, 160, 15); marker-end: url('#proposed-condition-flow-end-white-_FEA00F-6bl0sj84nb35vcf7t2lkq9k0f-top-to-bottom-left-to-right'); marker-start: url('#proposed-condition-flow-start-_FEA00F-_FEA00F-6bl0sj84nb35vcf7t2lkq9k0f-undefined-undefined');"/></g><path d="M245,330L245,410L350,410L350,560L550,560" class="djs-hit djs-hit-stroke" style="fill: none; stroke-opacity: 0; stroke: white; stroke-width: 15px;"/><rect x="240" y="325" rx="4" width="315" height="240" class="djs-outline" style="fill: none;"/></g></g><g class="djs-group"><g class="djs-element djs-connection" data-element-id="Relation_1y7uzkr" style="display: block;"><g class="djs-visual"><path d="m  310,620L550,620 " style="fill: none; stroke-width: 2px; stroke-linejoin: round; stroke: rgb(33, 146, 255); marker-start: url('#proposed-response-flow-start-_2192FF-_2192FF-6bl0sj84nb35vcf7t2lkq9k0f-undefined-undefined'); marker-end: url('#proposed-response-flow-end-white-_2192FF-6bl0sj84nb35vcf7t2lkq9k0f-left-to-right-left-to-right');"/></g><path d="M310,620L550,620" class="djs-hit djs-hit-stroke" style="fill: none; stroke-opacity: 0; stroke: white; stroke-width: 15px;"/><rect x="305" y="615" rx="4" width="250" height="10" class="djs-outline" style="fill: none;"/></g></g><g class="djs-group"><g class="djs-element djs-connection" data-element-id="Relation_04y1thg" style="display: block;"><g class="djs-visual"><path d="m  310,255L550,255 " style="fill: none; stroke-width: 2px; stroke-linejoin: round; stroke: rgb(254, 160, 15); marker-end: url('#proposed-condition-flow-end-white-_FEA00F-6bl0sj84nb35vcf7t2lkq9k0f-left-to-right-left-to-right'); marker-start: url('#proposed-condition-flow-start-_FEA00F-_FEA00F-6bl0sj84nb35vcf7t2lkq9k0f-undefined-undefined');"/></g><path d="M310,255L550,255" class="djs-hit djs-hit-stroke" style="fill: none; stroke-opacity: 0; stroke: white; stroke-width: 15px;"/><rect x="305" y="250" rx="4" width="250" height="10" class="djs-outline" style="fill: none;"/></g></g><g class="djs-group"><g class="djs-element djs-connection" data-element-id="Relation_0e60zds" style="display: block;"><g class="djs-visual"><path d="m  310,280L550,280 " style="fill: none; stroke-width: 2px; stroke-linejoin: round; stroke: rgb(33, 146, 255); marker-start: url('#proposed-response-flow-start-_2192FF-_2192FF-6bl0sj84nb35vcf7t2lkq9k0f-undefined-undefined'); marker-end: url('#proposed-response-flow-end-white-_2192FF-6bl0sj84nb35vcf7t2lkq9k0f-left-to-right-left-to-right');"/></g><path d="M310,280L550,280" class="djs-hit djs-hit-stroke" style="fill: none; stroke-opacity: 0; stroke: white; stroke-width: 15px;"/><rect x="305" y="275" rx="4" width="250" height="10" class="djs-outline" style="fill: none;"/></g></g><g class="djs-group"><g class="djs-element djs-connection" data-element-id="Relation_0h9u9vx" style="display: block;"><g class="djs-visual"><path d="m  280,330L280,400 L360,400 L360,540 L550,540 " style="fill: none; stroke-width: 2px; stroke-linejoin: round; stroke: rgb(33, 146, 255); marker-start: url('#proposed-response-flow-start-_2192FF-_2192FF-6bl0sj84nb35vcf7t2lkq9k0f-undefined-undefined'); marker-end: url('#proposed-response-flow-end-white-_2192FF-6bl0sj84nb35vcf7t2lkq9k0f-top-to-bottom-left-to-right');"/></g><path d="M280,330L280,400L360,400L360,540L550,540" class="djs-hit djs-hit-stroke" style="fill: none; stroke-opacity: 0; stroke: white; stroke-width: 15px;"/><rect x="275" y="325" rx="4" width="280" height="220" class="djs-outline" style="fill: none;"/></g></g><g class="djs-group"><g class="djs-element djs-connection" data-element-id="Relation_0knz8rr" style="display: block;"><g class="djs-visual"><path d="m  615,500L615,330 " style="fill: none; stroke-width: 2px; stroke-linejoin: round; stroke: rgb(169, 50, 208); marker-end: url('#proposed-milestone-flow-end-white-_A932D0-6bl0sj84nb35vcf7t2lkq9k0f-bottom-to-top-bottom-to-top'); marker-start: url('#proposed-milestone-flow-start-white-_A932D0-6bl0sj84nb35vcf7t2lkq9k0f-bottom-to-top-bottom-to-top');"/></g><path d="M615,500L615,330" class="djs-hit djs-hit-stroke" style="fill: none; stroke-opacity: 0; stroke: white; stroke-width: 15px;"/><rect x="610" y="325" rx="4" width="10" height="180" class="djs-outline" style="fill: none;"/></g></g><g class="djs-group"><g class="djs-element djs-shape" data-element-id="Event_1bvmrm9" style="display: block;" transform="matrix(1 0 0 1 180 180)"><g class="djs-visual"><rect x="0" y="0" width="130" height="150" rx="7" ry="7" style="fill: white; fill-opacity: 0.35; stroke: black; stroke-width: 2px;"/><path style="fill: none; stroke: black; stroke-width: 2px;" d="M0,30L130,30"/><text lineHeight="1.2" class="djs-label" style="font-family: 'IBM Plex', sans-serif; font-size: 16px; font-weight: normal;"><tspan x="43.4453125" y="19.8">HHRR</tspan></text><text lineHeight="1.2" class="djs-label" style="font-family: 'IBM Plex', sans-serif; font-size: 16px; font-weight: normal;"><tspan x="37.6171875" y="66">Consult </tspan><tspan x="23.6875" y="85.2">Employee's </tspan><tspan x="43.375" y="104.4">salary </tspan><tspan x="26.09375" y="123.60000000000001">agreement</tspan></text></g><rect class="djs-hit djs-hit-all" x="0" y="0" width="130" height="150" style="fill: none; stroke-opacity: 0; stroke: white; stroke-width: 15px;"/><rect x="-5" y="-5" rx="4" width="140" height="160" class="djs-outline" style="fill: none;"/></g></g><g class="djs-group"><g class="djs-element djs-shape" data-element-id="Event_084mgdk" style="display: block;" transform="matrix(1 0 0 1 180 500)"><g class="djs-visual"><rect x="0" y="0" width="130" height="150" rx="7" ry="7" style="fill: white; fill-opacity: 0.35; stroke: black; stroke-width: 2px;"/><path style="fill: none; stroke: black; stroke-width: 2px;" d="M0,30L130,30"/><text lineHeight="1.2" class="djs-label" style="font-family: 'IBM Plex', sans-serif; font-size: 16px; font-weight: normal;"><tspan x="29.359375" y="19.8">Employee</tspan></text><text lineHeight="1.2" class="djs-label" style="font-family: 'IBM Plex', sans-serif; font-size: 16px; font-weight: normal;"><tspan x="40.7109375" y="75.60000000000001">Report </tspan><tspan x="28.3046875" y="94.80000000000001">Additional </tspan><tspan x="6.703125" y="114.00000000000001">Income Sources</tspan></text></g><rect class="djs-hit djs-hit-all" x="0" y="0" width="130" height="150" style="fill: none; stroke-opacity: 0; stroke: white; stroke-width: 15px;"/><rect x="-5" y="-5" rx="4" width="140" height="160" class="djs-outline" style="fill: none;"/></g></g><g class="djs-group"><g class="djs-element djs-shape" data-element-id="Event_0zaxxoa" style="display: block;" transform="matrix(1 0 0 1 550 500)"><g class="djs-visual"><rect x="0" y="0" width="130" height="150" rx="7" ry="7" style="fill: white; fill-opacity: 0.35; stroke: black; stroke-width: 2px;"/><path style="fill: none; stroke: black; stroke-width: 2px;" d="M0,30L130,30"/><text lineHeight="1.2" class="djs-label" style="font-family: 'IBM Plex', sans-serif; font-size: 16px; font-weight: normal;"><tspan x="32.0234375" y="10.2">Economy </tspan><tspan x="21.8203125" y="29.4">Department</tspan></text><text lineHeight="1.2" class="djs-label" style="font-family: 'IBM Plex', sans-serif; font-size: 16px; font-weight: normal;"><tspan x="22.9609375" y="75.60000000000001">Perform tax </tspan><tspan x="13.8125" y="94.80000000000001">calculation for </tspan><tspan x="29.625" y="114.00000000000001">employee</tspan></text></g><rect class="djs-hit djs-hit-all" x="0" y="0" width="130" height="150" style="fill: none; stroke-opacity: 0; stroke: white; stroke-width: 15px;"/><rect x="-5" y="-5" rx="4" width="140" height="160" class="djs-outline" style="fill: none;"/></g></g><g class="djs-group"><g class="djs-element djs-shape" data-element-id="Event_0ea55hv" style="display: block;" transform="matrix(1 0 0 1 550 180)"><g class="djs-visual"><rect x="0" y="0" width="130" height="150" rx="7" ry="7" style="fill: white; fill-opacity: 0.35; stroke: black; stroke-width: 2px;"/><path style="fill: none; stroke: black; stroke-width: 2px;" d="M0,30L130,30"/><text lineHeight="1.2" class="djs-label" style="font-family: 'IBM Plex', sans-serif; font-size: 16px; font-weight: normal;"><tspan x="24.7734375" y="19.8">Accounting</tspan></text><text lineHeight="1.2" class="djs-label" style="font-family: 'IBM Plex', sans-serif; font-size: 16px; font-weight: normal;"><tspan x="28.4921875" y="94.80000000000001">Pay salary</tspan></text></g><rect class="djs-hit djs-hit-all" x="0" y="0" width="130" height="150" style="fill: none; stroke-opacity: 0; stroke: white; stroke-width: 15px;"/><rect x="-5" y="-5" rx="4" width="140" height="160" class="djs-outline" style="fill: none;"/></g></g></svg>
